%TF.GenerationSoftware,KiCad,Pcbnew,7.0.7*%
%TF.CreationDate,2023-09-06T15:28:24+02:00*%
%TF.ProjectId,Power Scheduler_20x49x1_6_mm,506f7765-7220-4536-9368-6564756c6572,5.3*%
%TF.SameCoordinates,Original*%
%TF.FileFunction,Drillmap*%
%TF.FilePolarity,Positive*%
%FSLAX45Y45*%
G04 Gerber Fmt 4.5, Leading zero omitted, Abs format (unit mm)*
G04 Created by KiCad (PCBNEW 7.0.7) date 2023-09-06 15:28:24*
%MOMM*%
%LPD*%
G01*
G04 APERTURE LIST*
%ADD10C,0.200000*%
%ADD11C,0.030000*%
%ADD12C,0.040000*%
%ADD13C,0.092000*%
%ADD14C,0.100000*%
%ADD15C,0.105000*%
G04 APERTURE END LIST*
D10*
D11*
X11053000Y-11833000D02*
X11083000Y-11863000D01*
X11083000Y-11833000D02*
X11053000Y-11863000D01*
X11335000Y-11686000D02*
X11365000Y-11716000D01*
X11365000Y-11686000D02*
X11335000Y-11716000D01*
X11507000Y-11581000D02*
X11537000Y-11611000D01*
X11537000Y-11581000D02*
X11507000Y-11611000D01*
X11602000Y-11584000D02*
X11632000Y-11614000D01*
X11632000Y-11584000D02*
X11602000Y-11614000D01*
X11623000Y-11245000D02*
X11653000Y-11275000D01*
X11653000Y-11245000D02*
X11623000Y-11275000D01*
X11703000Y-11175000D02*
X11733000Y-11205000D01*
X11733000Y-11175000D02*
X11703000Y-11205000D01*
X11950550Y-11502000D02*
X11980550Y-11532000D01*
X11980550Y-11502000D02*
X11950550Y-11532000D01*
X11955000Y-11599000D02*
X11985000Y-11629000D01*
X11985000Y-11599000D02*
X11955000Y-11629000D01*
X12009000Y-12180000D02*
X12039000Y-12210000D01*
X12039000Y-12180000D02*
X12009000Y-12210000D01*
X12118000Y-11376000D02*
X12148000Y-11406000D01*
X12148000Y-11376000D02*
X12118000Y-11406000D01*
X12259000Y-10980000D02*
X12289000Y-11010000D01*
X12289000Y-10980000D02*
X12259000Y-11010000D01*
X12388000Y-10987000D02*
X12418000Y-11017000D01*
X12418000Y-10987000D02*
X12388000Y-11017000D01*
X12442000Y-12638000D02*
X12472000Y-12668000D01*
X12472000Y-12638000D02*
X12442000Y-12668000D01*
X13006000Y-11348000D02*
X13036000Y-11378000D01*
X13036000Y-11348000D02*
X13006000Y-11378000D01*
X13623000Y-11257000D02*
X13653000Y-11287000D01*
X13653000Y-11257000D02*
X13623000Y-11287000D01*
X13695000Y-11093000D02*
X13725000Y-11123000D01*
X13725000Y-11093000D02*
X13695000Y-11123000D01*
X13722000Y-11989000D02*
X13752000Y-12019000D01*
X13752000Y-11989000D02*
X13722000Y-12019000D01*
X13729000Y-11376000D02*
X13759000Y-11406000D01*
X13759000Y-11376000D02*
X13729000Y-11406000D01*
X13797000Y-11775000D02*
X13827000Y-11805000D01*
X13827000Y-11775000D02*
X13797000Y-11805000D01*
X14089000Y-12847000D02*
X14119000Y-12877000D01*
X14119000Y-12847000D02*
X14089000Y-12877000D01*
X14156000Y-12365000D02*
X14186000Y-12395000D01*
X14186000Y-12365000D02*
X14156000Y-12395000D01*
X14267000Y-12366000D02*
X14297000Y-12396000D01*
X14297000Y-12366000D02*
X14267000Y-12396000D01*
X14370000Y-12370000D02*
X14400000Y-12400000D01*
X14400000Y-12370000D02*
X14370000Y-12400000D01*
X14616993Y-11002102D02*
X14646993Y-11032102D01*
X14646993Y-11002102D02*
X14616993Y-11032102D01*
D12*
X12114000Y-12742000D02*
G75*
G03*
X12114000Y-12742000I-20000J0D01*
G01*
X12502571Y-11749571D02*
G75*
G03*
X12502571Y-11749571I-20000J0D01*
G01*
X12513571Y-12020571D02*
G75*
G03*
X12513571Y-12020571I-20000J0D01*
G01*
X12539096Y-11653046D02*
G75*
G03*
X12539096Y-11653046I-20000J0D01*
G01*
X12568180Y-12285419D02*
G75*
G03*
X12568180Y-12285419I-20000J0D01*
G01*
X12656586Y-12323576D02*
G75*
G03*
X12656586Y-12323576I-20000J0D01*
G01*
X12737571Y-12490571D02*
G75*
G03*
X12737571Y-12490571I-20000J0D01*
G01*
X12819000Y-12558000D02*
G75*
G03*
X12819000Y-12558000I-20000J0D01*
G01*
X12933586Y-12576576D02*
G75*
G03*
X12933586Y-12576576I-20000J0D01*
G01*
X12970571Y-11946571D02*
G75*
G03*
X12970571Y-11946571I-20000J0D01*
G01*
X13110571Y-12090571D02*
G75*
G03*
X13110571Y-12090571I-20000J0D01*
G01*
X13310400Y-11550200D02*
G75*
G03*
X13310400Y-11550200I-20000J0D01*
G01*
X13338000Y-12728126D02*
G75*
G03*
X13338000Y-12728126I-20000J0D01*
G01*
X13405000Y-12506000D02*
G75*
G03*
X13405000Y-12506000I-20000J0D01*
G01*
X13652000Y-12730000D02*
G75*
G03*
X13652000Y-12730000I-20000J0D01*
G01*
D13*
X10689000Y-11548000D02*
X10689000Y-11640000D01*
X10643000Y-11594000D02*
X10735000Y-11594000D01*
X10689000Y-11798000D02*
X10689000Y-11890000D01*
X10643000Y-11844000D02*
X10735000Y-11844000D01*
X10689000Y-11998000D02*
X10689000Y-12090000D01*
X10643000Y-12044000D02*
X10735000Y-12044000D01*
X10689000Y-12248000D02*
X10689000Y-12340000D01*
X10643000Y-12294000D02*
X10735000Y-12294000D01*
D14*
X14602356Y-11631356D02*
X14602356Y-11560644D01*
X14531644Y-11560644D01*
X14531644Y-11631356D01*
X14602356Y-11631356D01*
X14602356Y-11881356D02*
X14602356Y-11810644D01*
X14531644Y-11810644D01*
X14531644Y-11881356D01*
X14602356Y-11881356D01*
X14602356Y-12081356D02*
X14602356Y-12010644D01*
X14531644Y-12010644D01*
X14531644Y-12081356D01*
X14602356Y-12081356D01*
X14602356Y-12331356D02*
X14602356Y-12260644D01*
X14531644Y-12260644D01*
X14531644Y-12331356D01*
X14602356Y-12331356D01*
D15*
X14777000Y-11428500D02*
X14829500Y-11376000D01*
X14777000Y-11323500D01*
X14724500Y-11376000D01*
X14777000Y-11428500D01*
D10*
X14699500Y-11428500D02*
X14854500Y-11428500D01*
X14854500Y-11428500D02*
G75*
G03*
X14854500Y-11323500I0J52500D01*
G01*
X14854500Y-11323500D02*
X14699500Y-11323500D01*
X14699500Y-11323500D02*
G75*
G03*
X14699500Y-11428500I0J-52500D01*
G01*
D15*
X14777000Y-12568500D02*
X14829500Y-12516000D01*
X14777000Y-12463500D01*
X14724500Y-12516000D01*
X14777000Y-12568500D01*
D10*
X14699500Y-12568500D02*
X14854500Y-12568500D01*
X14854500Y-12568500D02*
G75*
G03*
X14854500Y-12463500I0J52500D01*
G01*
X14854500Y-12463500D02*
X14699500Y-12463500D01*
X14699500Y-12463500D02*
G75*
G03*
X14699500Y-12568500I0J-52500D01*
G01*
X10447284Y-13261258D02*
X10447284Y-13061258D01*
X10447284Y-13061258D02*
X10494903Y-13061258D01*
X10494903Y-13061258D02*
X10523474Y-13070781D01*
X10523474Y-13070781D02*
X10542522Y-13089829D01*
X10542522Y-13089829D02*
X10552046Y-13108877D01*
X10552046Y-13108877D02*
X10561569Y-13146972D01*
X10561569Y-13146972D02*
X10561569Y-13175543D01*
X10561569Y-13175543D02*
X10552046Y-13213639D01*
X10552046Y-13213639D02*
X10542522Y-13232686D01*
X10542522Y-13232686D02*
X10523474Y-13251734D01*
X10523474Y-13251734D02*
X10494903Y-13261258D01*
X10494903Y-13261258D02*
X10447284Y-13261258D01*
X10647284Y-13261258D02*
X10647284Y-13127924D01*
X10647284Y-13166020D02*
X10656808Y-13146972D01*
X10656808Y-13146972D02*
X10666331Y-13137448D01*
X10666331Y-13137448D02*
X10685379Y-13127924D01*
X10685379Y-13127924D02*
X10704427Y-13127924D01*
X10771093Y-13261258D02*
X10771093Y-13127924D01*
X10771093Y-13061258D02*
X10761569Y-13070781D01*
X10761569Y-13070781D02*
X10771093Y-13080305D01*
X10771093Y-13080305D02*
X10780617Y-13070781D01*
X10780617Y-13070781D02*
X10771093Y-13061258D01*
X10771093Y-13061258D02*
X10771093Y-13080305D01*
X10894903Y-13261258D02*
X10875855Y-13251734D01*
X10875855Y-13251734D02*
X10866331Y-13232686D01*
X10866331Y-13232686D02*
X10866331Y-13061258D01*
X10999665Y-13261258D02*
X10980617Y-13251734D01*
X10980617Y-13251734D02*
X10971093Y-13232686D01*
X10971093Y-13232686D02*
X10971093Y-13061258D01*
X11228236Y-13261258D02*
X11228236Y-13061258D01*
X11228236Y-13061258D02*
X11294903Y-13204115D01*
X11294903Y-13204115D02*
X11361569Y-13061258D01*
X11361569Y-13061258D02*
X11361569Y-13261258D01*
X11542522Y-13261258D02*
X11542522Y-13156496D01*
X11542522Y-13156496D02*
X11532998Y-13137448D01*
X11532998Y-13137448D02*
X11513950Y-13127924D01*
X11513950Y-13127924D02*
X11475855Y-13127924D01*
X11475855Y-13127924D02*
X11456807Y-13137448D01*
X11542522Y-13251734D02*
X11523474Y-13261258D01*
X11523474Y-13261258D02*
X11475855Y-13261258D01*
X11475855Y-13261258D02*
X11456807Y-13251734D01*
X11456807Y-13251734D02*
X11447284Y-13232686D01*
X11447284Y-13232686D02*
X11447284Y-13213639D01*
X11447284Y-13213639D02*
X11456807Y-13194591D01*
X11456807Y-13194591D02*
X11475855Y-13185067D01*
X11475855Y-13185067D02*
X11523474Y-13185067D01*
X11523474Y-13185067D02*
X11542522Y-13175543D01*
X11637760Y-13127924D02*
X11637760Y-13327924D01*
X11637760Y-13137448D02*
X11656807Y-13127924D01*
X11656807Y-13127924D02*
X11694903Y-13127924D01*
X11694903Y-13127924D02*
X11713950Y-13137448D01*
X11713950Y-13137448D02*
X11723474Y-13146972D01*
X11723474Y-13146972D02*
X11732998Y-13166020D01*
X11732998Y-13166020D02*
X11732998Y-13223162D01*
X11732998Y-13223162D02*
X11723474Y-13242210D01*
X11723474Y-13242210D02*
X11713950Y-13251734D01*
X11713950Y-13251734D02*
X11694903Y-13261258D01*
X11694903Y-13261258D02*
X11656807Y-13261258D01*
X11656807Y-13261258D02*
X11637760Y-13251734D01*
X11818712Y-13242210D02*
X11828236Y-13251734D01*
X11828236Y-13251734D02*
X11818712Y-13261258D01*
X11818712Y-13261258D02*
X11809188Y-13251734D01*
X11809188Y-13251734D02*
X11818712Y-13242210D01*
X11818712Y-13242210D02*
X11818712Y-13261258D01*
X11818712Y-13137448D02*
X11828236Y-13146972D01*
X11828236Y-13146972D02*
X11818712Y-13156496D01*
X11818712Y-13156496D02*
X11809188Y-13146972D01*
X11809188Y-13146972D02*
X11818712Y-13137448D01*
X11818712Y-13137448D02*
X11818712Y-13156496D01*
D11*
X10156507Y-13574774D02*
X10186507Y-13604774D01*
X10186507Y-13574774D02*
X10156507Y-13604774D01*
D10*
X10485379Y-13481258D02*
X10504427Y-13481258D01*
X10504427Y-13481258D02*
X10523474Y-13490781D01*
X10523474Y-13490781D02*
X10532998Y-13500305D01*
X10532998Y-13500305D02*
X10542522Y-13519353D01*
X10542522Y-13519353D02*
X10552046Y-13557448D01*
X10552046Y-13557448D02*
X10552046Y-13605067D01*
X10552046Y-13605067D02*
X10542522Y-13643162D01*
X10542522Y-13643162D02*
X10532998Y-13662210D01*
X10532998Y-13662210D02*
X10523474Y-13671734D01*
X10523474Y-13671734D02*
X10504427Y-13681258D01*
X10504427Y-13681258D02*
X10485379Y-13681258D01*
X10485379Y-13681258D02*
X10466331Y-13671734D01*
X10466331Y-13671734D02*
X10456808Y-13662210D01*
X10456808Y-13662210D02*
X10447284Y-13643162D01*
X10447284Y-13643162D02*
X10437760Y-13605067D01*
X10437760Y-13605067D02*
X10437760Y-13557448D01*
X10437760Y-13557448D02*
X10447284Y-13519353D01*
X10447284Y-13519353D02*
X10456808Y-13500305D01*
X10456808Y-13500305D02*
X10466331Y-13490781D01*
X10466331Y-13490781D02*
X10485379Y-13481258D01*
X10637760Y-13662210D02*
X10647284Y-13671734D01*
X10647284Y-13671734D02*
X10637760Y-13681258D01*
X10637760Y-13681258D02*
X10628236Y-13671734D01*
X10628236Y-13671734D02*
X10637760Y-13662210D01*
X10637760Y-13662210D02*
X10637760Y-13681258D01*
X10713950Y-13481258D02*
X10837760Y-13481258D01*
X10837760Y-13481258D02*
X10771093Y-13557448D01*
X10771093Y-13557448D02*
X10799665Y-13557448D01*
X10799665Y-13557448D02*
X10818712Y-13566972D01*
X10818712Y-13566972D02*
X10828236Y-13576496D01*
X10828236Y-13576496D02*
X10837760Y-13595543D01*
X10837760Y-13595543D02*
X10837760Y-13643162D01*
X10837760Y-13643162D02*
X10828236Y-13662210D01*
X10828236Y-13662210D02*
X10818712Y-13671734D01*
X10818712Y-13671734D02*
X10799665Y-13681258D01*
X10799665Y-13681258D02*
X10742522Y-13681258D01*
X10742522Y-13681258D02*
X10723474Y-13671734D01*
X10723474Y-13671734D02*
X10713950Y-13662210D01*
X10961569Y-13481258D02*
X10980617Y-13481258D01*
X10980617Y-13481258D02*
X10999665Y-13490781D01*
X10999665Y-13490781D02*
X11009189Y-13500305D01*
X11009189Y-13500305D02*
X11018712Y-13519353D01*
X11018712Y-13519353D02*
X11028236Y-13557448D01*
X11028236Y-13557448D02*
X11028236Y-13605067D01*
X11028236Y-13605067D02*
X11018712Y-13643162D01*
X11018712Y-13643162D02*
X11009189Y-13662210D01*
X11009189Y-13662210D02*
X10999665Y-13671734D01*
X10999665Y-13671734D02*
X10980617Y-13681258D01*
X10980617Y-13681258D02*
X10961569Y-13681258D01*
X10961569Y-13681258D02*
X10942522Y-13671734D01*
X10942522Y-13671734D02*
X10932998Y-13662210D01*
X10932998Y-13662210D02*
X10923474Y-13643162D01*
X10923474Y-13643162D02*
X10913950Y-13605067D01*
X10913950Y-13605067D02*
X10913950Y-13557448D01*
X10913950Y-13557448D02*
X10923474Y-13519353D01*
X10923474Y-13519353D02*
X10932998Y-13500305D01*
X10932998Y-13500305D02*
X10942522Y-13490781D01*
X10942522Y-13490781D02*
X10961569Y-13481258D01*
X11152046Y-13481258D02*
X11171093Y-13481258D01*
X11171093Y-13481258D02*
X11190141Y-13490781D01*
X11190141Y-13490781D02*
X11199665Y-13500305D01*
X11199665Y-13500305D02*
X11209188Y-13519353D01*
X11209188Y-13519353D02*
X11218712Y-13557448D01*
X11218712Y-13557448D02*
X11218712Y-13605067D01*
X11218712Y-13605067D02*
X11209188Y-13643162D01*
X11209188Y-13643162D02*
X11199665Y-13662210D01*
X11199665Y-13662210D02*
X11190141Y-13671734D01*
X11190141Y-13671734D02*
X11171093Y-13681258D01*
X11171093Y-13681258D02*
X11152046Y-13681258D01*
X11152046Y-13681258D02*
X11132998Y-13671734D01*
X11132998Y-13671734D02*
X11123474Y-13662210D01*
X11123474Y-13662210D02*
X11113950Y-13643162D01*
X11113950Y-13643162D02*
X11104427Y-13605067D01*
X11104427Y-13605067D02*
X11104427Y-13557448D01*
X11104427Y-13557448D02*
X11113950Y-13519353D01*
X11113950Y-13519353D02*
X11123474Y-13500305D01*
X11123474Y-13500305D02*
X11132998Y-13490781D01*
X11132998Y-13490781D02*
X11152046Y-13481258D01*
X11304427Y-13681258D02*
X11304427Y-13547924D01*
X11304427Y-13566972D02*
X11313950Y-13557448D01*
X11313950Y-13557448D02*
X11332998Y-13547924D01*
X11332998Y-13547924D02*
X11361569Y-13547924D01*
X11361569Y-13547924D02*
X11380617Y-13557448D01*
X11380617Y-13557448D02*
X11390141Y-13576496D01*
X11390141Y-13576496D02*
X11390141Y-13681258D01*
X11390141Y-13576496D02*
X11399665Y-13557448D01*
X11399665Y-13557448D02*
X11418712Y-13547924D01*
X11418712Y-13547924D02*
X11447284Y-13547924D01*
X11447284Y-13547924D02*
X11466331Y-13557448D01*
X11466331Y-13557448D02*
X11475855Y-13576496D01*
X11475855Y-13576496D02*
X11475855Y-13681258D01*
X11571093Y-13681258D02*
X11571093Y-13547924D01*
X11571093Y-13566972D02*
X11580617Y-13557448D01*
X11580617Y-13557448D02*
X11599665Y-13547924D01*
X11599665Y-13547924D02*
X11628236Y-13547924D01*
X11628236Y-13547924D02*
X11647284Y-13557448D01*
X11647284Y-13557448D02*
X11656808Y-13576496D01*
X11656808Y-13576496D02*
X11656808Y-13681258D01*
X11656808Y-13576496D02*
X11666331Y-13557448D01*
X11666331Y-13557448D02*
X11685379Y-13547924D01*
X11685379Y-13547924D02*
X11713950Y-13547924D01*
X11713950Y-13547924D02*
X11732998Y-13557448D01*
X11732998Y-13557448D02*
X11742522Y-13576496D01*
X11742522Y-13576496D02*
X11742522Y-13681258D01*
X12132998Y-13471734D02*
X11961570Y-13728877D01*
X12390141Y-13481258D02*
X12409189Y-13481258D01*
X12409189Y-13481258D02*
X12428236Y-13490781D01*
X12428236Y-13490781D02*
X12437760Y-13500305D01*
X12437760Y-13500305D02*
X12447284Y-13519353D01*
X12447284Y-13519353D02*
X12456808Y-13557448D01*
X12456808Y-13557448D02*
X12456808Y-13605067D01*
X12456808Y-13605067D02*
X12447284Y-13643162D01*
X12447284Y-13643162D02*
X12437760Y-13662210D01*
X12437760Y-13662210D02*
X12428236Y-13671734D01*
X12428236Y-13671734D02*
X12409189Y-13681258D01*
X12409189Y-13681258D02*
X12390141Y-13681258D01*
X12390141Y-13681258D02*
X12371093Y-13671734D01*
X12371093Y-13671734D02*
X12361570Y-13662210D01*
X12361570Y-13662210D02*
X12352046Y-13643162D01*
X12352046Y-13643162D02*
X12342522Y-13605067D01*
X12342522Y-13605067D02*
X12342522Y-13557448D01*
X12342522Y-13557448D02*
X12352046Y-13519353D01*
X12352046Y-13519353D02*
X12361570Y-13500305D01*
X12361570Y-13500305D02*
X12371093Y-13490781D01*
X12371093Y-13490781D02*
X12390141Y-13481258D01*
X12542522Y-13662210D02*
X12552046Y-13671734D01*
X12552046Y-13671734D02*
X12542522Y-13681258D01*
X12542522Y-13681258D02*
X12532998Y-13671734D01*
X12532998Y-13671734D02*
X12542522Y-13662210D01*
X12542522Y-13662210D02*
X12542522Y-13681258D01*
X12675855Y-13481258D02*
X12694903Y-13481258D01*
X12694903Y-13481258D02*
X12713951Y-13490781D01*
X12713951Y-13490781D02*
X12723474Y-13500305D01*
X12723474Y-13500305D02*
X12732998Y-13519353D01*
X12732998Y-13519353D02*
X12742522Y-13557448D01*
X12742522Y-13557448D02*
X12742522Y-13605067D01*
X12742522Y-13605067D02*
X12732998Y-13643162D01*
X12732998Y-13643162D02*
X12723474Y-13662210D01*
X12723474Y-13662210D02*
X12713951Y-13671734D01*
X12713951Y-13671734D02*
X12694903Y-13681258D01*
X12694903Y-13681258D02*
X12675855Y-13681258D01*
X12675855Y-13681258D02*
X12656808Y-13671734D01*
X12656808Y-13671734D02*
X12647284Y-13662210D01*
X12647284Y-13662210D02*
X12637760Y-13643162D01*
X12637760Y-13643162D02*
X12628236Y-13605067D01*
X12628236Y-13605067D02*
X12628236Y-13557448D01*
X12628236Y-13557448D02*
X12637760Y-13519353D01*
X12637760Y-13519353D02*
X12647284Y-13500305D01*
X12647284Y-13500305D02*
X12656808Y-13490781D01*
X12656808Y-13490781D02*
X12675855Y-13481258D01*
X12932998Y-13681258D02*
X12818712Y-13681258D01*
X12875855Y-13681258D02*
X12875855Y-13481258D01*
X12875855Y-13481258D02*
X12856808Y-13509829D01*
X12856808Y-13509829D02*
X12837760Y-13528877D01*
X12837760Y-13528877D02*
X12818712Y-13538400D01*
X13123474Y-13681258D02*
X13009189Y-13681258D01*
X13066331Y-13681258D02*
X13066331Y-13481258D01*
X13066331Y-13481258D02*
X13047284Y-13509829D01*
X13047284Y-13509829D02*
X13028236Y-13528877D01*
X13028236Y-13528877D02*
X13009189Y-13538400D01*
X13237760Y-13566972D02*
X13218712Y-13557448D01*
X13218712Y-13557448D02*
X13209189Y-13547924D01*
X13209189Y-13547924D02*
X13199665Y-13528877D01*
X13199665Y-13528877D02*
X13199665Y-13519353D01*
X13199665Y-13519353D02*
X13209189Y-13500305D01*
X13209189Y-13500305D02*
X13218712Y-13490781D01*
X13218712Y-13490781D02*
X13237760Y-13481258D01*
X13237760Y-13481258D02*
X13275855Y-13481258D01*
X13275855Y-13481258D02*
X13294903Y-13490781D01*
X13294903Y-13490781D02*
X13304427Y-13500305D01*
X13304427Y-13500305D02*
X13313951Y-13519353D01*
X13313951Y-13519353D02*
X13313951Y-13528877D01*
X13313951Y-13528877D02*
X13304427Y-13547924D01*
X13304427Y-13547924D02*
X13294903Y-13557448D01*
X13294903Y-13557448D02*
X13275855Y-13566972D01*
X13275855Y-13566972D02*
X13237760Y-13566972D01*
X13237760Y-13566972D02*
X13218712Y-13576496D01*
X13218712Y-13576496D02*
X13209189Y-13586020D01*
X13209189Y-13586020D02*
X13199665Y-13605067D01*
X13199665Y-13605067D02*
X13199665Y-13643162D01*
X13199665Y-13643162D02*
X13209189Y-13662210D01*
X13209189Y-13662210D02*
X13218712Y-13671734D01*
X13218712Y-13671734D02*
X13237760Y-13681258D01*
X13237760Y-13681258D02*
X13275855Y-13681258D01*
X13275855Y-13681258D02*
X13294903Y-13671734D01*
X13294903Y-13671734D02*
X13304427Y-13662210D01*
X13304427Y-13662210D02*
X13313951Y-13643162D01*
X13313951Y-13643162D02*
X13313951Y-13605067D01*
X13313951Y-13605067D02*
X13304427Y-13586020D01*
X13304427Y-13586020D02*
X13294903Y-13576496D01*
X13294903Y-13576496D02*
X13275855Y-13566972D01*
X13390141Y-13481258D02*
X13390141Y-13519353D01*
X13466332Y-13481258D02*
X13466332Y-13519353D01*
X13761570Y-13757448D02*
X13752046Y-13747924D01*
X13752046Y-13747924D02*
X13732998Y-13719353D01*
X13732998Y-13719353D02*
X13723474Y-13700305D01*
X13723474Y-13700305D02*
X13713951Y-13671734D01*
X13713951Y-13671734D02*
X13704427Y-13624115D01*
X13704427Y-13624115D02*
X13704427Y-13586020D01*
X13704427Y-13586020D02*
X13713951Y-13538400D01*
X13713951Y-13538400D02*
X13723474Y-13509829D01*
X13723474Y-13509829D02*
X13732998Y-13490781D01*
X13732998Y-13490781D02*
X13752046Y-13462210D01*
X13752046Y-13462210D02*
X13761570Y-13452686D01*
X13828236Y-13500305D02*
X13837760Y-13490781D01*
X13837760Y-13490781D02*
X13856808Y-13481258D01*
X13856808Y-13481258D02*
X13904427Y-13481258D01*
X13904427Y-13481258D02*
X13923474Y-13490781D01*
X13923474Y-13490781D02*
X13932998Y-13500305D01*
X13932998Y-13500305D02*
X13942522Y-13519353D01*
X13942522Y-13519353D02*
X13942522Y-13538400D01*
X13942522Y-13538400D02*
X13932998Y-13566972D01*
X13932998Y-13566972D02*
X13818713Y-13681258D01*
X13818713Y-13681258D02*
X13942522Y-13681258D01*
X14113951Y-13547924D02*
X14113951Y-13681258D01*
X14066332Y-13471734D02*
X14018713Y-13614591D01*
X14018713Y-13614591D02*
X14142522Y-13614591D01*
X14371094Y-13681258D02*
X14371094Y-13481258D01*
X14456808Y-13681258D02*
X14456808Y-13576496D01*
X14456808Y-13576496D02*
X14447284Y-13557448D01*
X14447284Y-13557448D02*
X14428236Y-13547924D01*
X14428236Y-13547924D02*
X14399665Y-13547924D01*
X14399665Y-13547924D02*
X14380617Y-13557448D01*
X14380617Y-13557448D02*
X14371094Y-13566972D01*
X14580617Y-13681258D02*
X14561570Y-13671734D01*
X14561570Y-13671734D02*
X14552046Y-13662210D01*
X14552046Y-13662210D02*
X14542522Y-13643162D01*
X14542522Y-13643162D02*
X14542522Y-13586020D01*
X14542522Y-13586020D02*
X14552046Y-13566972D01*
X14552046Y-13566972D02*
X14561570Y-13557448D01*
X14561570Y-13557448D02*
X14580617Y-13547924D01*
X14580617Y-13547924D02*
X14609189Y-13547924D01*
X14609189Y-13547924D02*
X14628236Y-13557448D01*
X14628236Y-13557448D02*
X14637760Y-13566972D01*
X14637760Y-13566972D02*
X14647284Y-13586020D01*
X14647284Y-13586020D02*
X14647284Y-13643162D01*
X14647284Y-13643162D02*
X14637760Y-13662210D01*
X14637760Y-13662210D02*
X14628236Y-13671734D01*
X14628236Y-13671734D02*
X14609189Y-13681258D01*
X14609189Y-13681258D02*
X14580617Y-13681258D01*
X14761570Y-13681258D02*
X14742522Y-13671734D01*
X14742522Y-13671734D02*
X14732998Y-13652686D01*
X14732998Y-13652686D02*
X14732998Y-13481258D01*
X14913951Y-13671734D02*
X14894903Y-13681258D01*
X14894903Y-13681258D02*
X14856808Y-13681258D01*
X14856808Y-13681258D02*
X14837760Y-13671734D01*
X14837760Y-13671734D02*
X14828236Y-13652686D01*
X14828236Y-13652686D02*
X14828236Y-13576496D01*
X14828236Y-13576496D02*
X14837760Y-13557448D01*
X14837760Y-13557448D02*
X14856808Y-13547924D01*
X14856808Y-13547924D02*
X14894903Y-13547924D01*
X14894903Y-13547924D02*
X14913951Y-13557448D01*
X14913951Y-13557448D02*
X14923475Y-13576496D01*
X14923475Y-13576496D02*
X14923475Y-13595543D01*
X14923475Y-13595543D02*
X14828236Y-13614591D01*
X14999665Y-13671734D02*
X15018713Y-13681258D01*
X15018713Y-13681258D02*
X15056808Y-13681258D01*
X15056808Y-13681258D02*
X15075856Y-13671734D01*
X15075856Y-13671734D02*
X15085379Y-13652686D01*
X15085379Y-13652686D02*
X15085379Y-13643162D01*
X15085379Y-13643162D02*
X15075856Y-13624115D01*
X15075856Y-13624115D02*
X15056808Y-13614591D01*
X15056808Y-13614591D02*
X15028236Y-13614591D01*
X15028236Y-13614591D02*
X15009189Y-13605067D01*
X15009189Y-13605067D02*
X14999665Y-13586020D01*
X14999665Y-13586020D02*
X14999665Y-13576496D01*
X14999665Y-13576496D02*
X15009189Y-13557448D01*
X15009189Y-13557448D02*
X15028236Y-13547924D01*
X15028236Y-13547924D02*
X15056808Y-13547924D01*
X15056808Y-13547924D02*
X15075856Y-13557448D01*
X15152046Y-13757448D02*
X15161570Y-13747924D01*
X15161570Y-13747924D02*
X15180617Y-13719353D01*
X15180617Y-13719353D02*
X15190141Y-13700305D01*
X15190141Y-13700305D02*
X15199665Y-13671734D01*
X15199665Y-13671734D02*
X15209189Y-13624115D01*
X15209189Y-13624115D02*
X15209189Y-13586020D01*
X15209189Y-13586020D02*
X15199665Y-13538400D01*
X15199665Y-13538400D02*
X15190141Y-13509829D01*
X15190141Y-13509829D02*
X15180617Y-13490781D01*
X15180617Y-13490781D02*
X15161570Y-13462210D01*
X15161570Y-13462210D02*
X15152046Y-13452686D01*
D12*
X10186507Y-13853774D02*
G75*
G03*
X10186507Y-13853774I-20000J0D01*
G01*
D10*
X10485379Y-13745258D02*
X10504427Y-13745258D01*
X10504427Y-13745258D02*
X10523474Y-13754781D01*
X10523474Y-13754781D02*
X10532998Y-13764305D01*
X10532998Y-13764305D02*
X10542522Y-13783353D01*
X10542522Y-13783353D02*
X10552046Y-13821448D01*
X10552046Y-13821448D02*
X10552046Y-13869067D01*
X10552046Y-13869067D02*
X10542522Y-13907162D01*
X10542522Y-13907162D02*
X10532998Y-13926210D01*
X10532998Y-13926210D02*
X10523474Y-13935734D01*
X10523474Y-13935734D02*
X10504427Y-13945258D01*
X10504427Y-13945258D02*
X10485379Y-13945258D01*
X10485379Y-13945258D02*
X10466331Y-13935734D01*
X10466331Y-13935734D02*
X10456808Y-13926210D01*
X10456808Y-13926210D02*
X10447284Y-13907162D01*
X10447284Y-13907162D02*
X10437760Y-13869067D01*
X10437760Y-13869067D02*
X10437760Y-13821448D01*
X10437760Y-13821448D02*
X10447284Y-13783353D01*
X10447284Y-13783353D02*
X10456808Y-13764305D01*
X10456808Y-13764305D02*
X10466331Y-13754781D01*
X10466331Y-13754781D02*
X10485379Y-13745258D01*
X10637760Y-13926210D02*
X10647284Y-13935734D01*
X10647284Y-13935734D02*
X10637760Y-13945258D01*
X10637760Y-13945258D02*
X10628236Y-13935734D01*
X10628236Y-13935734D02*
X10637760Y-13926210D01*
X10637760Y-13926210D02*
X10637760Y-13945258D01*
X10818712Y-13811924D02*
X10818712Y-13945258D01*
X10771093Y-13735734D02*
X10723474Y-13878591D01*
X10723474Y-13878591D02*
X10847284Y-13878591D01*
X10961569Y-13745258D02*
X10980617Y-13745258D01*
X10980617Y-13745258D02*
X10999665Y-13754781D01*
X10999665Y-13754781D02*
X11009189Y-13764305D01*
X11009189Y-13764305D02*
X11018712Y-13783353D01*
X11018712Y-13783353D02*
X11028236Y-13821448D01*
X11028236Y-13821448D02*
X11028236Y-13869067D01*
X11028236Y-13869067D02*
X11018712Y-13907162D01*
X11018712Y-13907162D02*
X11009189Y-13926210D01*
X11009189Y-13926210D02*
X10999665Y-13935734D01*
X10999665Y-13935734D02*
X10980617Y-13945258D01*
X10980617Y-13945258D02*
X10961569Y-13945258D01*
X10961569Y-13945258D02*
X10942522Y-13935734D01*
X10942522Y-13935734D02*
X10932998Y-13926210D01*
X10932998Y-13926210D02*
X10923474Y-13907162D01*
X10923474Y-13907162D02*
X10913950Y-13869067D01*
X10913950Y-13869067D02*
X10913950Y-13821448D01*
X10913950Y-13821448D02*
X10923474Y-13783353D01*
X10923474Y-13783353D02*
X10932998Y-13764305D01*
X10932998Y-13764305D02*
X10942522Y-13754781D01*
X10942522Y-13754781D02*
X10961569Y-13745258D01*
X11152046Y-13745258D02*
X11171093Y-13745258D01*
X11171093Y-13745258D02*
X11190141Y-13754781D01*
X11190141Y-13754781D02*
X11199665Y-13764305D01*
X11199665Y-13764305D02*
X11209188Y-13783353D01*
X11209188Y-13783353D02*
X11218712Y-13821448D01*
X11218712Y-13821448D02*
X11218712Y-13869067D01*
X11218712Y-13869067D02*
X11209188Y-13907162D01*
X11209188Y-13907162D02*
X11199665Y-13926210D01*
X11199665Y-13926210D02*
X11190141Y-13935734D01*
X11190141Y-13935734D02*
X11171093Y-13945258D01*
X11171093Y-13945258D02*
X11152046Y-13945258D01*
X11152046Y-13945258D02*
X11132998Y-13935734D01*
X11132998Y-13935734D02*
X11123474Y-13926210D01*
X11123474Y-13926210D02*
X11113950Y-13907162D01*
X11113950Y-13907162D02*
X11104427Y-13869067D01*
X11104427Y-13869067D02*
X11104427Y-13821448D01*
X11104427Y-13821448D02*
X11113950Y-13783353D01*
X11113950Y-13783353D02*
X11123474Y-13764305D01*
X11123474Y-13764305D02*
X11132998Y-13754781D01*
X11132998Y-13754781D02*
X11152046Y-13745258D01*
X11304427Y-13945258D02*
X11304427Y-13811924D01*
X11304427Y-13830972D02*
X11313950Y-13821448D01*
X11313950Y-13821448D02*
X11332998Y-13811924D01*
X11332998Y-13811924D02*
X11361569Y-13811924D01*
X11361569Y-13811924D02*
X11380617Y-13821448D01*
X11380617Y-13821448D02*
X11390141Y-13840496D01*
X11390141Y-13840496D02*
X11390141Y-13945258D01*
X11390141Y-13840496D02*
X11399665Y-13821448D01*
X11399665Y-13821448D02*
X11418712Y-13811924D01*
X11418712Y-13811924D02*
X11447284Y-13811924D01*
X11447284Y-13811924D02*
X11466331Y-13821448D01*
X11466331Y-13821448D02*
X11475855Y-13840496D01*
X11475855Y-13840496D02*
X11475855Y-13945258D01*
X11571093Y-13945258D02*
X11571093Y-13811924D01*
X11571093Y-13830972D02*
X11580617Y-13821448D01*
X11580617Y-13821448D02*
X11599665Y-13811924D01*
X11599665Y-13811924D02*
X11628236Y-13811924D01*
X11628236Y-13811924D02*
X11647284Y-13821448D01*
X11647284Y-13821448D02*
X11656808Y-13840496D01*
X11656808Y-13840496D02*
X11656808Y-13945258D01*
X11656808Y-13840496D02*
X11666331Y-13821448D01*
X11666331Y-13821448D02*
X11685379Y-13811924D01*
X11685379Y-13811924D02*
X11713950Y-13811924D01*
X11713950Y-13811924D02*
X11732998Y-13821448D01*
X11732998Y-13821448D02*
X11742522Y-13840496D01*
X11742522Y-13840496D02*
X11742522Y-13945258D01*
X12132998Y-13735734D02*
X11961570Y-13992877D01*
X12390141Y-13745258D02*
X12409189Y-13745258D01*
X12409189Y-13745258D02*
X12428236Y-13754781D01*
X12428236Y-13754781D02*
X12437760Y-13764305D01*
X12437760Y-13764305D02*
X12447284Y-13783353D01*
X12447284Y-13783353D02*
X12456808Y-13821448D01*
X12456808Y-13821448D02*
X12456808Y-13869067D01*
X12456808Y-13869067D02*
X12447284Y-13907162D01*
X12447284Y-13907162D02*
X12437760Y-13926210D01*
X12437760Y-13926210D02*
X12428236Y-13935734D01*
X12428236Y-13935734D02*
X12409189Y-13945258D01*
X12409189Y-13945258D02*
X12390141Y-13945258D01*
X12390141Y-13945258D02*
X12371093Y-13935734D01*
X12371093Y-13935734D02*
X12361570Y-13926210D01*
X12361570Y-13926210D02*
X12352046Y-13907162D01*
X12352046Y-13907162D02*
X12342522Y-13869067D01*
X12342522Y-13869067D02*
X12342522Y-13821448D01*
X12342522Y-13821448D02*
X12352046Y-13783353D01*
X12352046Y-13783353D02*
X12361570Y-13764305D01*
X12361570Y-13764305D02*
X12371093Y-13754781D01*
X12371093Y-13754781D02*
X12390141Y-13745258D01*
X12542522Y-13926210D02*
X12552046Y-13935734D01*
X12552046Y-13935734D02*
X12542522Y-13945258D01*
X12542522Y-13945258D02*
X12532998Y-13935734D01*
X12532998Y-13935734D02*
X12542522Y-13926210D01*
X12542522Y-13926210D02*
X12542522Y-13945258D01*
X12675855Y-13745258D02*
X12694903Y-13745258D01*
X12694903Y-13745258D02*
X12713951Y-13754781D01*
X12713951Y-13754781D02*
X12723474Y-13764305D01*
X12723474Y-13764305D02*
X12732998Y-13783353D01*
X12732998Y-13783353D02*
X12742522Y-13821448D01*
X12742522Y-13821448D02*
X12742522Y-13869067D01*
X12742522Y-13869067D02*
X12732998Y-13907162D01*
X12732998Y-13907162D02*
X12723474Y-13926210D01*
X12723474Y-13926210D02*
X12713951Y-13935734D01*
X12713951Y-13935734D02*
X12694903Y-13945258D01*
X12694903Y-13945258D02*
X12675855Y-13945258D01*
X12675855Y-13945258D02*
X12656808Y-13935734D01*
X12656808Y-13935734D02*
X12647284Y-13926210D01*
X12647284Y-13926210D02*
X12637760Y-13907162D01*
X12637760Y-13907162D02*
X12628236Y-13869067D01*
X12628236Y-13869067D02*
X12628236Y-13821448D01*
X12628236Y-13821448D02*
X12637760Y-13783353D01*
X12637760Y-13783353D02*
X12647284Y-13764305D01*
X12647284Y-13764305D02*
X12656808Y-13754781D01*
X12656808Y-13754781D02*
X12675855Y-13745258D01*
X12932998Y-13945258D02*
X12818712Y-13945258D01*
X12875855Y-13945258D02*
X12875855Y-13745258D01*
X12875855Y-13745258D02*
X12856808Y-13773829D01*
X12856808Y-13773829D02*
X12837760Y-13792877D01*
X12837760Y-13792877D02*
X12818712Y-13802400D01*
X13113951Y-13745258D02*
X13018712Y-13745258D01*
X13018712Y-13745258D02*
X13009189Y-13840496D01*
X13009189Y-13840496D02*
X13018712Y-13830972D01*
X13018712Y-13830972D02*
X13037760Y-13821448D01*
X13037760Y-13821448D02*
X13085379Y-13821448D01*
X13085379Y-13821448D02*
X13104427Y-13830972D01*
X13104427Y-13830972D02*
X13113951Y-13840496D01*
X13113951Y-13840496D02*
X13123474Y-13859543D01*
X13123474Y-13859543D02*
X13123474Y-13907162D01*
X13123474Y-13907162D02*
X13113951Y-13926210D01*
X13113951Y-13926210D02*
X13104427Y-13935734D01*
X13104427Y-13935734D02*
X13085379Y-13945258D01*
X13085379Y-13945258D02*
X13037760Y-13945258D01*
X13037760Y-13945258D02*
X13018712Y-13935734D01*
X13018712Y-13935734D02*
X13009189Y-13926210D01*
X13190141Y-13745258D02*
X13323474Y-13745258D01*
X13323474Y-13745258D02*
X13237760Y-13945258D01*
X13390141Y-13745258D02*
X13390141Y-13783353D01*
X13466332Y-13745258D02*
X13466332Y-13783353D01*
X13761570Y-14021448D02*
X13752046Y-14011924D01*
X13752046Y-14011924D02*
X13732998Y-13983353D01*
X13732998Y-13983353D02*
X13723474Y-13964305D01*
X13723474Y-13964305D02*
X13713951Y-13935734D01*
X13713951Y-13935734D02*
X13704427Y-13888115D01*
X13704427Y-13888115D02*
X13704427Y-13850020D01*
X13704427Y-13850020D02*
X13713951Y-13802400D01*
X13713951Y-13802400D02*
X13723474Y-13773829D01*
X13723474Y-13773829D02*
X13732998Y-13754781D01*
X13732998Y-13754781D02*
X13752046Y-13726210D01*
X13752046Y-13726210D02*
X13761570Y-13716686D01*
X13942522Y-13945258D02*
X13828236Y-13945258D01*
X13885379Y-13945258D02*
X13885379Y-13745258D01*
X13885379Y-13745258D02*
X13866332Y-13773829D01*
X13866332Y-13773829D02*
X13847284Y-13792877D01*
X13847284Y-13792877D02*
X13828236Y-13802400D01*
X14123474Y-13745258D02*
X14028236Y-13745258D01*
X14028236Y-13745258D02*
X14018713Y-13840496D01*
X14018713Y-13840496D02*
X14028236Y-13830972D01*
X14028236Y-13830972D02*
X14047284Y-13821448D01*
X14047284Y-13821448D02*
X14094903Y-13821448D01*
X14094903Y-13821448D02*
X14113951Y-13830972D01*
X14113951Y-13830972D02*
X14123474Y-13840496D01*
X14123474Y-13840496D02*
X14132998Y-13859543D01*
X14132998Y-13859543D02*
X14132998Y-13907162D01*
X14132998Y-13907162D02*
X14123474Y-13926210D01*
X14123474Y-13926210D02*
X14113951Y-13935734D01*
X14113951Y-13935734D02*
X14094903Y-13945258D01*
X14094903Y-13945258D02*
X14047284Y-13945258D01*
X14047284Y-13945258D02*
X14028236Y-13935734D01*
X14028236Y-13935734D02*
X14018713Y-13926210D01*
X14371094Y-13945258D02*
X14371094Y-13745258D01*
X14456808Y-13945258D02*
X14456808Y-13840496D01*
X14456808Y-13840496D02*
X14447284Y-13821448D01*
X14447284Y-13821448D02*
X14428236Y-13811924D01*
X14428236Y-13811924D02*
X14399665Y-13811924D01*
X14399665Y-13811924D02*
X14380617Y-13821448D01*
X14380617Y-13821448D02*
X14371094Y-13830972D01*
X14580617Y-13945258D02*
X14561570Y-13935734D01*
X14561570Y-13935734D02*
X14552046Y-13926210D01*
X14552046Y-13926210D02*
X14542522Y-13907162D01*
X14542522Y-13907162D02*
X14542522Y-13850020D01*
X14542522Y-13850020D02*
X14552046Y-13830972D01*
X14552046Y-13830972D02*
X14561570Y-13821448D01*
X14561570Y-13821448D02*
X14580617Y-13811924D01*
X14580617Y-13811924D02*
X14609189Y-13811924D01*
X14609189Y-13811924D02*
X14628236Y-13821448D01*
X14628236Y-13821448D02*
X14637760Y-13830972D01*
X14637760Y-13830972D02*
X14647284Y-13850020D01*
X14647284Y-13850020D02*
X14647284Y-13907162D01*
X14647284Y-13907162D02*
X14637760Y-13926210D01*
X14637760Y-13926210D02*
X14628236Y-13935734D01*
X14628236Y-13935734D02*
X14609189Y-13945258D01*
X14609189Y-13945258D02*
X14580617Y-13945258D01*
X14761570Y-13945258D02*
X14742522Y-13935734D01*
X14742522Y-13935734D02*
X14732998Y-13916686D01*
X14732998Y-13916686D02*
X14732998Y-13745258D01*
X14913951Y-13935734D02*
X14894903Y-13945258D01*
X14894903Y-13945258D02*
X14856808Y-13945258D01*
X14856808Y-13945258D02*
X14837760Y-13935734D01*
X14837760Y-13935734D02*
X14828236Y-13916686D01*
X14828236Y-13916686D02*
X14828236Y-13840496D01*
X14828236Y-13840496D02*
X14837760Y-13821448D01*
X14837760Y-13821448D02*
X14856808Y-13811924D01*
X14856808Y-13811924D02*
X14894903Y-13811924D01*
X14894903Y-13811924D02*
X14913951Y-13821448D01*
X14913951Y-13821448D02*
X14923475Y-13840496D01*
X14923475Y-13840496D02*
X14923475Y-13859543D01*
X14923475Y-13859543D02*
X14828236Y-13878591D01*
X14999665Y-13935734D02*
X15018713Y-13945258D01*
X15018713Y-13945258D02*
X15056808Y-13945258D01*
X15056808Y-13945258D02*
X15075856Y-13935734D01*
X15075856Y-13935734D02*
X15085379Y-13916686D01*
X15085379Y-13916686D02*
X15085379Y-13907162D01*
X15085379Y-13907162D02*
X15075856Y-13888115D01*
X15075856Y-13888115D02*
X15056808Y-13878591D01*
X15056808Y-13878591D02*
X15028236Y-13878591D01*
X15028236Y-13878591D02*
X15009189Y-13869067D01*
X15009189Y-13869067D02*
X14999665Y-13850020D01*
X14999665Y-13850020D02*
X14999665Y-13840496D01*
X14999665Y-13840496D02*
X15009189Y-13821448D01*
X15009189Y-13821448D02*
X15028236Y-13811924D01*
X15028236Y-13811924D02*
X15056808Y-13811924D01*
X15056808Y-13811924D02*
X15075856Y-13821448D01*
X15152046Y-14021448D02*
X15161570Y-14011924D01*
X15161570Y-14011924D02*
X15180617Y-13983353D01*
X15180617Y-13983353D02*
X15190141Y-13964305D01*
X15190141Y-13964305D02*
X15199665Y-13935734D01*
X15199665Y-13935734D02*
X15209189Y-13888115D01*
X15209189Y-13888115D02*
X15209189Y-13850020D01*
X15209189Y-13850020D02*
X15199665Y-13802400D01*
X15199665Y-13802400D02*
X15190141Y-13773829D01*
X15190141Y-13773829D02*
X15180617Y-13754781D01*
X15180617Y-13754781D02*
X15161570Y-13726210D01*
X15161570Y-13726210D02*
X15152046Y-13716686D01*
D13*
X10140507Y-14071774D02*
X10140507Y-14163774D01*
X10094507Y-14117774D02*
X10186507Y-14117774D01*
D10*
X10485379Y-14009258D02*
X10504427Y-14009258D01*
X10504427Y-14009258D02*
X10523474Y-14018781D01*
X10523474Y-14018781D02*
X10532998Y-14028305D01*
X10532998Y-14028305D02*
X10542522Y-14047353D01*
X10542522Y-14047353D02*
X10552046Y-14085448D01*
X10552046Y-14085448D02*
X10552046Y-14133067D01*
X10552046Y-14133067D02*
X10542522Y-14171162D01*
X10542522Y-14171162D02*
X10532998Y-14190210D01*
X10532998Y-14190210D02*
X10523474Y-14199734D01*
X10523474Y-14199734D02*
X10504427Y-14209258D01*
X10504427Y-14209258D02*
X10485379Y-14209258D01*
X10485379Y-14209258D02*
X10466331Y-14199734D01*
X10466331Y-14199734D02*
X10456808Y-14190210D01*
X10456808Y-14190210D02*
X10447284Y-14171162D01*
X10447284Y-14171162D02*
X10437760Y-14133067D01*
X10437760Y-14133067D02*
X10437760Y-14085448D01*
X10437760Y-14085448D02*
X10447284Y-14047353D01*
X10447284Y-14047353D02*
X10456808Y-14028305D01*
X10456808Y-14028305D02*
X10466331Y-14018781D01*
X10466331Y-14018781D02*
X10485379Y-14009258D01*
X10637760Y-14190210D02*
X10647284Y-14199734D01*
X10647284Y-14199734D02*
X10637760Y-14209258D01*
X10637760Y-14209258D02*
X10628236Y-14199734D01*
X10628236Y-14199734D02*
X10637760Y-14190210D01*
X10637760Y-14190210D02*
X10637760Y-14209258D01*
X10742522Y-14209258D02*
X10780617Y-14209258D01*
X10780617Y-14209258D02*
X10799665Y-14199734D01*
X10799665Y-14199734D02*
X10809189Y-14190210D01*
X10809189Y-14190210D02*
X10828236Y-14161639D01*
X10828236Y-14161639D02*
X10837760Y-14123543D01*
X10837760Y-14123543D02*
X10837760Y-14047353D01*
X10837760Y-14047353D02*
X10828236Y-14028305D01*
X10828236Y-14028305D02*
X10818712Y-14018781D01*
X10818712Y-14018781D02*
X10799665Y-14009258D01*
X10799665Y-14009258D02*
X10761569Y-14009258D01*
X10761569Y-14009258D02*
X10742522Y-14018781D01*
X10742522Y-14018781D02*
X10732998Y-14028305D01*
X10732998Y-14028305D02*
X10723474Y-14047353D01*
X10723474Y-14047353D02*
X10723474Y-14094972D01*
X10723474Y-14094972D02*
X10732998Y-14114020D01*
X10732998Y-14114020D02*
X10742522Y-14123543D01*
X10742522Y-14123543D02*
X10761569Y-14133067D01*
X10761569Y-14133067D02*
X10799665Y-14133067D01*
X10799665Y-14133067D02*
X10818712Y-14123543D01*
X10818712Y-14123543D02*
X10828236Y-14114020D01*
X10828236Y-14114020D02*
X10837760Y-14094972D01*
X10913950Y-14028305D02*
X10923474Y-14018781D01*
X10923474Y-14018781D02*
X10942522Y-14009258D01*
X10942522Y-14009258D02*
X10990141Y-14009258D01*
X10990141Y-14009258D02*
X11009189Y-14018781D01*
X11009189Y-14018781D02*
X11018712Y-14028305D01*
X11018712Y-14028305D02*
X11028236Y-14047353D01*
X11028236Y-14047353D02*
X11028236Y-14066400D01*
X11028236Y-14066400D02*
X11018712Y-14094972D01*
X11018712Y-14094972D02*
X10904427Y-14209258D01*
X10904427Y-14209258D02*
X11028236Y-14209258D01*
X11152046Y-14009258D02*
X11171093Y-14009258D01*
X11171093Y-14009258D02*
X11190141Y-14018781D01*
X11190141Y-14018781D02*
X11199665Y-14028305D01*
X11199665Y-14028305D02*
X11209188Y-14047353D01*
X11209188Y-14047353D02*
X11218712Y-14085448D01*
X11218712Y-14085448D02*
X11218712Y-14133067D01*
X11218712Y-14133067D02*
X11209188Y-14171162D01*
X11209188Y-14171162D02*
X11199665Y-14190210D01*
X11199665Y-14190210D02*
X11190141Y-14199734D01*
X11190141Y-14199734D02*
X11171093Y-14209258D01*
X11171093Y-14209258D02*
X11152046Y-14209258D01*
X11152046Y-14209258D02*
X11132998Y-14199734D01*
X11132998Y-14199734D02*
X11123474Y-14190210D01*
X11123474Y-14190210D02*
X11113950Y-14171162D01*
X11113950Y-14171162D02*
X11104427Y-14133067D01*
X11104427Y-14133067D02*
X11104427Y-14085448D01*
X11104427Y-14085448D02*
X11113950Y-14047353D01*
X11113950Y-14047353D02*
X11123474Y-14028305D01*
X11123474Y-14028305D02*
X11132998Y-14018781D01*
X11132998Y-14018781D02*
X11152046Y-14009258D01*
X11304427Y-14209258D02*
X11304427Y-14075924D01*
X11304427Y-14094972D02*
X11313950Y-14085448D01*
X11313950Y-14085448D02*
X11332998Y-14075924D01*
X11332998Y-14075924D02*
X11361569Y-14075924D01*
X11361569Y-14075924D02*
X11380617Y-14085448D01*
X11380617Y-14085448D02*
X11390141Y-14104496D01*
X11390141Y-14104496D02*
X11390141Y-14209258D01*
X11390141Y-14104496D02*
X11399665Y-14085448D01*
X11399665Y-14085448D02*
X11418712Y-14075924D01*
X11418712Y-14075924D02*
X11447284Y-14075924D01*
X11447284Y-14075924D02*
X11466331Y-14085448D01*
X11466331Y-14085448D02*
X11475855Y-14104496D01*
X11475855Y-14104496D02*
X11475855Y-14209258D01*
X11571093Y-14209258D02*
X11571093Y-14075924D01*
X11571093Y-14094972D02*
X11580617Y-14085448D01*
X11580617Y-14085448D02*
X11599665Y-14075924D01*
X11599665Y-14075924D02*
X11628236Y-14075924D01*
X11628236Y-14075924D02*
X11647284Y-14085448D01*
X11647284Y-14085448D02*
X11656808Y-14104496D01*
X11656808Y-14104496D02*
X11656808Y-14209258D01*
X11656808Y-14104496D02*
X11666331Y-14085448D01*
X11666331Y-14085448D02*
X11685379Y-14075924D01*
X11685379Y-14075924D02*
X11713950Y-14075924D01*
X11713950Y-14075924D02*
X11732998Y-14085448D01*
X11732998Y-14085448D02*
X11742522Y-14104496D01*
X11742522Y-14104496D02*
X11742522Y-14209258D01*
X12132998Y-13999734D02*
X11961570Y-14256877D01*
X12390141Y-14009258D02*
X12409189Y-14009258D01*
X12409189Y-14009258D02*
X12428236Y-14018781D01*
X12428236Y-14018781D02*
X12437760Y-14028305D01*
X12437760Y-14028305D02*
X12447284Y-14047353D01*
X12447284Y-14047353D02*
X12456808Y-14085448D01*
X12456808Y-14085448D02*
X12456808Y-14133067D01*
X12456808Y-14133067D02*
X12447284Y-14171162D01*
X12447284Y-14171162D02*
X12437760Y-14190210D01*
X12437760Y-14190210D02*
X12428236Y-14199734D01*
X12428236Y-14199734D02*
X12409189Y-14209258D01*
X12409189Y-14209258D02*
X12390141Y-14209258D01*
X12390141Y-14209258D02*
X12371093Y-14199734D01*
X12371093Y-14199734D02*
X12361570Y-14190210D01*
X12361570Y-14190210D02*
X12352046Y-14171162D01*
X12352046Y-14171162D02*
X12342522Y-14133067D01*
X12342522Y-14133067D02*
X12342522Y-14085448D01*
X12342522Y-14085448D02*
X12352046Y-14047353D01*
X12352046Y-14047353D02*
X12361570Y-14028305D01*
X12361570Y-14028305D02*
X12371093Y-14018781D01*
X12371093Y-14018781D02*
X12390141Y-14009258D01*
X12542522Y-14190210D02*
X12552046Y-14199734D01*
X12552046Y-14199734D02*
X12542522Y-14209258D01*
X12542522Y-14209258D02*
X12532998Y-14199734D01*
X12532998Y-14199734D02*
X12542522Y-14190210D01*
X12542522Y-14190210D02*
X12542522Y-14209258D01*
X12675855Y-14009258D02*
X12694903Y-14009258D01*
X12694903Y-14009258D02*
X12713951Y-14018781D01*
X12713951Y-14018781D02*
X12723474Y-14028305D01*
X12723474Y-14028305D02*
X12732998Y-14047353D01*
X12732998Y-14047353D02*
X12742522Y-14085448D01*
X12742522Y-14085448D02*
X12742522Y-14133067D01*
X12742522Y-14133067D02*
X12732998Y-14171162D01*
X12732998Y-14171162D02*
X12723474Y-14190210D01*
X12723474Y-14190210D02*
X12713951Y-14199734D01*
X12713951Y-14199734D02*
X12694903Y-14209258D01*
X12694903Y-14209258D02*
X12675855Y-14209258D01*
X12675855Y-14209258D02*
X12656808Y-14199734D01*
X12656808Y-14199734D02*
X12647284Y-14190210D01*
X12647284Y-14190210D02*
X12637760Y-14171162D01*
X12637760Y-14171162D02*
X12628236Y-14133067D01*
X12628236Y-14133067D02*
X12628236Y-14085448D01*
X12628236Y-14085448D02*
X12637760Y-14047353D01*
X12637760Y-14047353D02*
X12647284Y-14028305D01*
X12647284Y-14028305D02*
X12656808Y-14018781D01*
X12656808Y-14018781D02*
X12675855Y-14009258D01*
X12809189Y-14009258D02*
X12932998Y-14009258D01*
X12932998Y-14009258D02*
X12866331Y-14085448D01*
X12866331Y-14085448D02*
X12894903Y-14085448D01*
X12894903Y-14085448D02*
X12913951Y-14094972D01*
X12913951Y-14094972D02*
X12923474Y-14104496D01*
X12923474Y-14104496D02*
X12932998Y-14123543D01*
X12932998Y-14123543D02*
X12932998Y-14171162D01*
X12932998Y-14171162D02*
X12923474Y-14190210D01*
X12923474Y-14190210D02*
X12913951Y-14199734D01*
X12913951Y-14199734D02*
X12894903Y-14209258D01*
X12894903Y-14209258D02*
X12837760Y-14209258D01*
X12837760Y-14209258D02*
X12818712Y-14199734D01*
X12818712Y-14199734D02*
X12809189Y-14190210D01*
X13104427Y-14009258D02*
X13066331Y-14009258D01*
X13066331Y-14009258D02*
X13047284Y-14018781D01*
X13047284Y-14018781D02*
X13037760Y-14028305D01*
X13037760Y-14028305D02*
X13018712Y-14056877D01*
X13018712Y-14056877D02*
X13009189Y-14094972D01*
X13009189Y-14094972D02*
X13009189Y-14171162D01*
X13009189Y-14171162D02*
X13018712Y-14190210D01*
X13018712Y-14190210D02*
X13028236Y-14199734D01*
X13028236Y-14199734D02*
X13047284Y-14209258D01*
X13047284Y-14209258D02*
X13085379Y-14209258D01*
X13085379Y-14209258D02*
X13104427Y-14199734D01*
X13104427Y-14199734D02*
X13113951Y-14190210D01*
X13113951Y-14190210D02*
X13123474Y-14171162D01*
X13123474Y-14171162D02*
X13123474Y-14123543D01*
X13123474Y-14123543D02*
X13113951Y-14104496D01*
X13113951Y-14104496D02*
X13104427Y-14094972D01*
X13104427Y-14094972D02*
X13085379Y-14085448D01*
X13085379Y-14085448D02*
X13047284Y-14085448D01*
X13047284Y-14085448D02*
X13028236Y-14094972D01*
X13028236Y-14094972D02*
X13018712Y-14104496D01*
X13018712Y-14104496D02*
X13009189Y-14123543D01*
X13199665Y-14028305D02*
X13209189Y-14018781D01*
X13209189Y-14018781D02*
X13228236Y-14009258D01*
X13228236Y-14009258D02*
X13275855Y-14009258D01*
X13275855Y-14009258D02*
X13294903Y-14018781D01*
X13294903Y-14018781D02*
X13304427Y-14028305D01*
X13304427Y-14028305D02*
X13313951Y-14047353D01*
X13313951Y-14047353D02*
X13313951Y-14066400D01*
X13313951Y-14066400D02*
X13304427Y-14094972D01*
X13304427Y-14094972D02*
X13190141Y-14209258D01*
X13190141Y-14209258D02*
X13313951Y-14209258D01*
X13390141Y-14009258D02*
X13390141Y-14047353D01*
X13466332Y-14009258D02*
X13466332Y-14047353D01*
X13761570Y-14285448D02*
X13752046Y-14275924D01*
X13752046Y-14275924D02*
X13732998Y-14247353D01*
X13732998Y-14247353D02*
X13723474Y-14228305D01*
X13723474Y-14228305D02*
X13713951Y-14199734D01*
X13713951Y-14199734D02*
X13704427Y-14152115D01*
X13704427Y-14152115D02*
X13704427Y-14114020D01*
X13704427Y-14114020D02*
X13713951Y-14066400D01*
X13713951Y-14066400D02*
X13723474Y-14037829D01*
X13723474Y-14037829D02*
X13732998Y-14018781D01*
X13732998Y-14018781D02*
X13752046Y-13990210D01*
X13752046Y-13990210D02*
X13761570Y-13980686D01*
X13923474Y-14075924D02*
X13923474Y-14209258D01*
X13875855Y-13999734D02*
X13828236Y-14142591D01*
X13828236Y-14142591D02*
X13952046Y-14142591D01*
X14180617Y-14209258D02*
X14180617Y-14009258D01*
X14266332Y-14209258D02*
X14266332Y-14104496D01*
X14266332Y-14104496D02*
X14256808Y-14085448D01*
X14256808Y-14085448D02*
X14237760Y-14075924D01*
X14237760Y-14075924D02*
X14209189Y-14075924D01*
X14209189Y-14075924D02*
X14190141Y-14085448D01*
X14190141Y-14085448D02*
X14180617Y-14094972D01*
X14390141Y-14209258D02*
X14371094Y-14199734D01*
X14371094Y-14199734D02*
X14361570Y-14190210D01*
X14361570Y-14190210D02*
X14352046Y-14171162D01*
X14352046Y-14171162D02*
X14352046Y-14114020D01*
X14352046Y-14114020D02*
X14361570Y-14094972D01*
X14361570Y-14094972D02*
X14371094Y-14085448D01*
X14371094Y-14085448D02*
X14390141Y-14075924D01*
X14390141Y-14075924D02*
X14418713Y-14075924D01*
X14418713Y-14075924D02*
X14437760Y-14085448D01*
X14437760Y-14085448D02*
X14447284Y-14094972D01*
X14447284Y-14094972D02*
X14456808Y-14114020D01*
X14456808Y-14114020D02*
X14456808Y-14171162D01*
X14456808Y-14171162D02*
X14447284Y-14190210D01*
X14447284Y-14190210D02*
X14437760Y-14199734D01*
X14437760Y-14199734D02*
X14418713Y-14209258D01*
X14418713Y-14209258D02*
X14390141Y-14209258D01*
X14571094Y-14209258D02*
X14552046Y-14199734D01*
X14552046Y-14199734D02*
X14542522Y-14180686D01*
X14542522Y-14180686D02*
X14542522Y-14009258D01*
X14723475Y-14199734D02*
X14704427Y-14209258D01*
X14704427Y-14209258D02*
X14666332Y-14209258D01*
X14666332Y-14209258D02*
X14647284Y-14199734D01*
X14647284Y-14199734D02*
X14637760Y-14180686D01*
X14637760Y-14180686D02*
X14637760Y-14104496D01*
X14637760Y-14104496D02*
X14647284Y-14085448D01*
X14647284Y-14085448D02*
X14666332Y-14075924D01*
X14666332Y-14075924D02*
X14704427Y-14075924D01*
X14704427Y-14075924D02*
X14723475Y-14085448D01*
X14723475Y-14085448D02*
X14732998Y-14104496D01*
X14732998Y-14104496D02*
X14732998Y-14123543D01*
X14732998Y-14123543D02*
X14637760Y-14142591D01*
X14809189Y-14199734D02*
X14828236Y-14209258D01*
X14828236Y-14209258D02*
X14866332Y-14209258D01*
X14866332Y-14209258D02*
X14885379Y-14199734D01*
X14885379Y-14199734D02*
X14894903Y-14180686D01*
X14894903Y-14180686D02*
X14894903Y-14171162D01*
X14894903Y-14171162D02*
X14885379Y-14152115D01*
X14885379Y-14152115D02*
X14866332Y-14142591D01*
X14866332Y-14142591D02*
X14837760Y-14142591D01*
X14837760Y-14142591D02*
X14818713Y-14133067D01*
X14818713Y-14133067D02*
X14809189Y-14114020D01*
X14809189Y-14114020D02*
X14809189Y-14104496D01*
X14809189Y-14104496D02*
X14818713Y-14085448D01*
X14818713Y-14085448D02*
X14837760Y-14075924D01*
X14837760Y-14075924D02*
X14866332Y-14075924D01*
X14866332Y-14075924D02*
X14885379Y-14085448D01*
X14961570Y-14285448D02*
X14971094Y-14275924D01*
X14971094Y-14275924D02*
X14990141Y-14247353D01*
X14990141Y-14247353D02*
X14999665Y-14228305D01*
X14999665Y-14228305D02*
X15009189Y-14199734D01*
X15009189Y-14199734D02*
X15018713Y-14152115D01*
X15018713Y-14152115D02*
X15018713Y-14114020D01*
X15018713Y-14114020D02*
X15009189Y-14066400D01*
X15009189Y-14066400D02*
X14999665Y-14037829D01*
X14999665Y-14037829D02*
X14990141Y-14018781D01*
X14990141Y-14018781D02*
X14971094Y-13990210D01*
X14971094Y-13990210D02*
X14961570Y-13980686D01*
D14*
X10171863Y-14417130D02*
X10171863Y-14346418D01*
X10101151Y-14346418D01*
X10101151Y-14417130D01*
X10171863Y-14417130D01*
D10*
X10552046Y-14473258D02*
X10437760Y-14473258D01*
X10494903Y-14473258D02*
X10494903Y-14273258D01*
X10494903Y-14273258D02*
X10475855Y-14301829D01*
X10475855Y-14301829D02*
X10456808Y-14320877D01*
X10456808Y-14320877D02*
X10437760Y-14330400D01*
X10637760Y-14454210D02*
X10647284Y-14463734D01*
X10647284Y-14463734D02*
X10637760Y-14473258D01*
X10637760Y-14473258D02*
X10628236Y-14463734D01*
X10628236Y-14463734D02*
X10637760Y-14454210D01*
X10637760Y-14454210D02*
X10637760Y-14473258D01*
X10771093Y-14273258D02*
X10790141Y-14273258D01*
X10790141Y-14273258D02*
X10809189Y-14282781D01*
X10809189Y-14282781D02*
X10818712Y-14292305D01*
X10818712Y-14292305D02*
X10828236Y-14311353D01*
X10828236Y-14311353D02*
X10837760Y-14349448D01*
X10837760Y-14349448D02*
X10837760Y-14397067D01*
X10837760Y-14397067D02*
X10828236Y-14435162D01*
X10828236Y-14435162D02*
X10818712Y-14454210D01*
X10818712Y-14454210D02*
X10809189Y-14463734D01*
X10809189Y-14463734D02*
X10790141Y-14473258D01*
X10790141Y-14473258D02*
X10771093Y-14473258D01*
X10771093Y-14473258D02*
X10752046Y-14463734D01*
X10752046Y-14463734D02*
X10742522Y-14454210D01*
X10742522Y-14454210D02*
X10732998Y-14435162D01*
X10732998Y-14435162D02*
X10723474Y-14397067D01*
X10723474Y-14397067D02*
X10723474Y-14349448D01*
X10723474Y-14349448D02*
X10732998Y-14311353D01*
X10732998Y-14311353D02*
X10742522Y-14292305D01*
X10742522Y-14292305D02*
X10752046Y-14282781D01*
X10752046Y-14282781D02*
X10771093Y-14273258D01*
X10961569Y-14273258D02*
X10980617Y-14273258D01*
X10980617Y-14273258D02*
X10999665Y-14282781D01*
X10999665Y-14282781D02*
X11009189Y-14292305D01*
X11009189Y-14292305D02*
X11018712Y-14311353D01*
X11018712Y-14311353D02*
X11028236Y-14349448D01*
X11028236Y-14349448D02*
X11028236Y-14397067D01*
X11028236Y-14397067D02*
X11018712Y-14435162D01*
X11018712Y-14435162D02*
X11009189Y-14454210D01*
X11009189Y-14454210D02*
X10999665Y-14463734D01*
X10999665Y-14463734D02*
X10980617Y-14473258D01*
X10980617Y-14473258D02*
X10961569Y-14473258D01*
X10961569Y-14473258D02*
X10942522Y-14463734D01*
X10942522Y-14463734D02*
X10932998Y-14454210D01*
X10932998Y-14454210D02*
X10923474Y-14435162D01*
X10923474Y-14435162D02*
X10913950Y-14397067D01*
X10913950Y-14397067D02*
X10913950Y-14349448D01*
X10913950Y-14349448D02*
X10923474Y-14311353D01*
X10923474Y-14311353D02*
X10932998Y-14292305D01*
X10932998Y-14292305D02*
X10942522Y-14282781D01*
X10942522Y-14282781D02*
X10961569Y-14273258D01*
X11152046Y-14273258D02*
X11171093Y-14273258D01*
X11171093Y-14273258D02*
X11190141Y-14282781D01*
X11190141Y-14282781D02*
X11199665Y-14292305D01*
X11199665Y-14292305D02*
X11209188Y-14311353D01*
X11209188Y-14311353D02*
X11218712Y-14349448D01*
X11218712Y-14349448D02*
X11218712Y-14397067D01*
X11218712Y-14397067D02*
X11209188Y-14435162D01*
X11209188Y-14435162D02*
X11199665Y-14454210D01*
X11199665Y-14454210D02*
X11190141Y-14463734D01*
X11190141Y-14463734D02*
X11171093Y-14473258D01*
X11171093Y-14473258D02*
X11152046Y-14473258D01*
X11152046Y-14473258D02*
X11132998Y-14463734D01*
X11132998Y-14463734D02*
X11123474Y-14454210D01*
X11123474Y-14454210D02*
X11113950Y-14435162D01*
X11113950Y-14435162D02*
X11104427Y-14397067D01*
X11104427Y-14397067D02*
X11104427Y-14349448D01*
X11104427Y-14349448D02*
X11113950Y-14311353D01*
X11113950Y-14311353D02*
X11123474Y-14292305D01*
X11123474Y-14292305D02*
X11132998Y-14282781D01*
X11132998Y-14282781D02*
X11152046Y-14273258D01*
X11304427Y-14473258D02*
X11304427Y-14339924D01*
X11304427Y-14358972D02*
X11313950Y-14349448D01*
X11313950Y-14349448D02*
X11332998Y-14339924D01*
X11332998Y-14339924D02*
X11361569Y-14339924D01*
X11361569Y-14339924D02*
X11380617Y-14349448D01*
X11380617Y-14349448D02*
X11390141Y-14368496D01*
X11390141Y-14368496D02*
X11390141Y-14473258D01*
X11390141Y-14368496D02*
X11399665Y-14349448D01*
X11399665Y-14349448D02*
X11418712Y-14339924D01*
X11418712Y-14339924D02*
X11447284Y-14339924D01*
X11447284Y-14339924D02*
X11466331Y-14349448D01*
X11466331Y-14349448D02*
X11475855Y-14368496D01*
X11475855Y-14368496D02*
X11475855Y-14473258D01*
X11571093Y-14473258D02*
X11571093Y-14339924D01*
X11571093Y-14358972D02*
X11580617Y-14349448D01*
X11580617Y-14349448D02*
X11599665Y-14339924D01*
X11599665Y-14339924D02*
X11628236Y-14339924D01*
X11628236Y-14339924D02*
X11647284Y-14349448D01*
X11647284Y-14349448D02*
X11656808Y-14368496D01*
X11656808Y-14368496D02*
X11656808Y-14473258D01*
X11656808Y-14368496D02*
X11666331Y-14349448D01*
X11666331Y-14349448D02*
X11685379Y-14339924D01*
X11685379Y-14339924D02*
X11713950Y-14339924D01*
X11713950Y-14339924D02*
X11732998Y-14349448D01*
X11732998Y-14349448D02*
X11742522Y-14368496D01*
X11742522Y-14368496D02*
X11742522Y-14473258D01*
X12132998Y-14263734D02*
X11961570Y-14520877D01*
X12390141Y-14273258D02*
X12409189Y-14273258D01*
X12409189Y-14273258D02*
X12428236Y-14282781D01*
X12428236Y-14282781D02*
X12437760Y-14292305D01*
X12437760Y-14292305D02*
X12447284Y-14311353D01*
X12447284Y-14311353D02*
X12456808Y-14349448D01*
X12456808Y-14349448D02*
X12456808Y-14397067D01*
X12456808Y-14397067D02*
X12447284Y-14435162D01*
X12447284Y-14435162D02*
X12437760Y-14454210D01*
X12437760Y-14454210D02*
X12428236Y-14463734D01*
X12428236Y-14463734D02*
X12409189Y-14473258D01*
X12409189Y-14473258D02*
X12390141Y-14473258D01*
X12390141Y-14473258D02*
X12371093Y-14463734D01*
X12371093Y-14463734D02*
X12361570Y-14454210D01*
X12361570Y-14454210D02*
X12352046Y-14435162D01*
X12352046Y-14435162D02*
X12342522Y-14397067D01*
X12342522Y-14397067D02*
X12342522Y-14349448D01*
X12342522Y-14349448D02*
X12352046Y-14311353D01*
X12352046Y-14311353D02*
X12361570Y-14292305D01*
X12361570Y-14292305D02*
X12371093Y-14282781D01*
X12371093Y-14282781D02*
X12390141Y-14273258D01*
X12542522Y-14454210D02*
X12552046Y-14463734D01*
X12552046Y-14463734D02*
X12542522Y-14473258D01*
X12542522Y-14473258D02*
X12532998Y-14463734D01*
X12532998Y-14463734D02*
X12542522Y-14454210D01*
X12542522Y-14454210D02*
X12542522Y-14473258D01*
X12675855Y-14273258D02*
X12694903Y-14273258D01*
X12694903Y-14273258D02*
X12713951Y-14282781D01*
X12713951Y-14282781D02*
X12723474Y-14292305D01*
X12723474Y-14292305D02*
X12732998Y-14311353D01*
X12732998Y-14311353D02*
X12742522Y-14349448D01*
X12742522Y-14349448D02*
X12742522Y-14397067D01*
X12742522Y-14397067D02*
X12732998Y-14435162D01*
X12732998Y-14435162D02*
X12723474Y-14454210D01*
X12723474Y-14454210D02*
X12713951Y-14463734D01*
X12713951Y-14463734D02*
X12694903Y-14473258D01*
X12694903Y-14473258D02*
X12675855Y-14473258D01*
X12675855Y-14473258D02*
X12656808Y-14463734D01*
X12656808Y-14463734D02*
X12647284Y-14454210D01*
X12647284Y-14454210D02*
X12637760Y-14435162D01*
X12637760Y-14435162D02*
X12628236Y-14397067D01*
X12628236Y-14397067D02*
X12628236Y-14349448D01*
X12628236Y-14349448D02*
X12637760Y-14311353D01*
X12637760Y-14311353D02*
X12647284Y-14292305D01*
X12647284Y-14292305D02*
X12656808Y-14282781D01*
X12656808Y-14282781D02*
X12675855Y-14273258D01*
X12809189Y-14273258D02*
X12932998Y-14273258D01*
X12932998Y-14273258D02*
X12866331Y-14349448D01*
X12866331Y-14349448D02*
X12894903Y-14349448D01*
X12894903Y-14349448D02*
X12913951Y-14358972D01*
X12913951Y-14358972D02*
X12923474Y-14368496D01*
X12923474Y-14368496D02*
X12932998Y-14387543D01*
X12932998Y-14387543D02*
X12932998Y-14435162D01*
X12932998Y-14435162D02*
X12923474Y-14454210D01*
X12923474Y-14454210D02*
X12913951Y-14463734D01*
X12913951Y-14463734D02*
X12894903Y-14473258D01*
X12894903Y-14473258D02*
X12837760Y-14473258D01*
X12837760Y-14473258D02*
X12818712Y-14463734D01*
X12818712Y-14463734D02*
X12809189Y-14454210D01*
X13028236Y-14473258D02*
X13066331Y-14473258D01*
X13066331Y-14473258D02*
X13085379Y-14463734D01*
X13085379Y-14463734D02*
X13094903Y-14454210D01*
X13094903Y-14454210D02*
X13113951Y-14425639D01*
X13113951Y-14425639D02*
X13123474Y-14387543D01*
X13123474Y-14387543D02*
X13123474Y-14311353D01*
X13123474Y-14311353D02*
X13113951Y-14292305D01*
X13113951Y-14292305D02*
X13104427Y-14282781D01*
X13104427Y-14282781D02*
X13085379Y-14273258D01*
X13085379Y-14273258D02*
X13047284Y-14273258D01*
X13047284Y-14273258D02*
X13028236Y-14282781D01*
X13028236Y-14282781D02*
X13018712Y-14292305D01*
X13018712Y-14292305D02*
X13009189Y-14311353D01*
X13009189Y-14311353D02*
X13009189Y-14358972D01*
X13009189Y-14358972D02*
X13018712Y-14378020D01*
X13018712Y-14378020D02*
X13028236Y-14387543D01*
X13028236Y-14387543D02*
X13047284Y-14397067D01*
X13047284Y-14397067D02*
X13085379Y-14397067D01*
X13085379Y-14397067D02*
X13104427Y-14387543D01*
X13104427Y-14387543D02*
X13113951Y-14378020D01*
X13113951Y-14378020D02*
X13123474Y-14358972D01*
X13294903Y-14339924D02*
X13294903Y-14473258D01*
X13247284Y-14263734D02*
X13199665Y-14406591D01*
X13199665Y-14406591D02*
X13323474Y-14406591D01*
X13390141Y-14273258D02*
X13390141Y-14311353D01*
X13466332Y-14273258D02*
X13466332Y-14311353D01*
X13761570Y-14549448D02*
X13752046Y-14539924D01*
X13752046Y-14539924D02*
X13732998Y-14511353D01*
X13732998Y-14511353D02*
X13723474Y-14492305D01*
X13723474Y-14492305D02*
X13713951Y-14463734D01*
X13713951Y-14463734D02*
X13704427Y-14416115D01*
X13704427Y-14416115D02*
X13704427Y-14378020D01*
X13704427Y-14378020D02*
X13713951Y-14330400D01*
X13713951Y-14330400D02*
X13723474Y-14301829D01*
X13723474Y-14301829D02*
X13732998Y-14282781D01*
X13732998Y-14282781D02*
X13752046Y-14254210D01*
X13752046Y-14254210D02*
X13761570Y-14244686D01*
X13923474Y-14339924D02*
X13923474Y-14473258D01*
X13875855Y-14263734D02*
X13828236Y-14406591D01*
X13828236Y-14406591D02*
X13952046Y-14406591D01*
X14180617Y-14473258D02*
X14180617Y-14273258D01*
X14266332Y-14473258D02*
X14266332Y-14368496D01*
X14266332Y-14368496D02*
X14256808Y-14349448D01*
X14256808Y-14349448D02*
X14237760Y-14339924D01*
X14237760Y-14339924D02*
X14209189Y-14339924D01*
X14209189Y-14339924D02*
X14190141Y-14349448D01*
X14190141Y-14349448D02*
X14180617Y-14358972D01*
X14390141Y-14473258D02*
X14371094Y-14463734D01*
X14371094Y-14463734D02*
X14361570Y-14454210D01*
X14361570Y-14454210D02*
X14352046Y-14435162D01*
X14352046Y-14435162D02*
X14352046Y-14378020D01*
X14352046Y-14378020D02*
X14361570Y-14358972D01*
X14361570Y-14358972D02*
X14371094Y-14349448D01*
X14371094Y-14349448D02*
X14390141Y-14339924D01*
X14390141Y-14339924D02*
X14418713Y-14339924D01*
X14418713Y-14339924D02*
X14437760Y-14349448D01*
X14437760Y-14349448D02*
X14447284Y-14358972D01*
X14447284Y-14358972D02*
X14456808Y-14378020D01*
X14456808Y-14378020D02*
X14456808Y-14435162D01*
X14456808Y-14435162D02*
X14447284Y-14454210D01*
X14447284Y-14454210D02*
X14437760Y-14463734D01*
X14437760Y-14463734D02*
X14418713Y-14473258D01*
X14418713Y-14473258D02*
X14390141Y-14473258D01*
X14571094Y-14473258D02*
X14552046Y-14463734D01*
X14552046Y-14463734D02*
X14542522Y-14444686D01*
X14542522Y-14444686D02*
X14542522Y-14273258D01*
X14723475Y-14463734D02*
X14704427Y-14473258D01*
X14704427Y-14473258D02*
X14666332Y-14473258D01*
X14666332Y-14473258D02*
X14647284Y-14463734D01*
X14647284Y-14463734D02*
X14637760Y-14444686D01*
X14637760Y-14444686D02*
X14637760Y-14368496D01*
X14637760Y-14368496D02*
X14647284Y-14349448D01*
X14647284Y-14349448D02*
X14666332Y-14339924D01*
X14666332Y-14339924D02*
X14704427Y-14339924D01*
X14704427Y-14339924D02*
X14723475Y-14349448D01*
X14723475Y-14349448D02*
X14732998Y-14368496D01*
X14732998Y-14368496D02*
X14732998Y-14387543D01*
X14732998Y-14387543D02*
X14637760Y-14406591D01*
X14809189Y-14463734D02*
X14828236Y-14473258D01*
X14828236Y-14473258D02*
X14866332Y-14473258D01*
X14866332Y-14473258D02*
X14885379Y-14463734D01*
X14885379Y-14463734D02*
X14894903Y-14444686D01*
X14894903Y-14444686D02*
X14894903Y-14435162D01*
X14894903Y-14435162D02*
X14885379Y-14416115D01*
X14885379Y-14416115D02*
X14866332Y-14406591D01*
X14866332Y-14406591D02*
X14837760Y-14406591D01*
X14837760Y-14406591D02*
X14818713Y-14397067D01*
X14818713Y-14397067D02*
X14809189Y-14378020D01*
X14809189Y-14378020D02*
X14809189Y-14368496D01*
X14809189Y-14368496D02*
X14818713Y-14349448D01*
X14818713Y-14349448D02*
X14837760Y-14339924D01*
X14837760Y-14339924D02*
X14866332Y-14339924D01*
X14866332Y-14339924D02*
X14885379Y-14349448D01*
X14961570Y-14549448D02*
X14971094Y-14539924D01*
X14971094Y-14539924D02*
X14990141Y-14511353D01*
X14990141Y-14511353D02*
X14999665Y-14492305D01*
X14999665Y-14492305D02*
X15009189Y-14463734D01*
X15009189Y-14463734D02*
X15018713Y-14416115D01*
X15018713Y-14416115D02*
X15018713Y-14378020D01*
X15018713Y-14378020D02*
X15009189Y-14330400D01*
X15009189Y-14330400D02*
X14999665Y-14301829D01*
X14999665Y-14301829D02*
X14990141Y-14282781D01*
X14990141Y-14282781D02*
X14971094Y-14254210D01*
X14971094Y-14254210D02*
X14961570Y-14244686D01*
D15*
X10134007Y-14698274D02*
X10186507Y-14645774D01*
X10134007Y-14593274D01*
X10081507Y-14645774D01*
X10134007Y-14698274D01*
D10*
X10552046Y-14737258D02*
X10437760Y-14737258D01*
X10494903Y-14737258D02*
X10494903Y-14537258D01*
X10494903Y-14537258D02*
X10475855Y-14565829D01*
X10475855Y-14565829D02*
X10456808Y-14584877D01*
X10456808Y-14584877D02*
X10437760Y-14594400D01*
X10637760Y-14718210D02*
X10647284Y-14727734D01*
X10647284Y-14727734D02*
X10637760Y-14737258D01*
X10637760Y-14737258D02*
X10628236Y-14727734D01*
X10628236Y-14727734D02*
X10637760Y-14718210D01*
X10637760Y-14718210D02*
X10637760Y-14737258D01*
X10771093Y-14537258D02*
X10790141Y-14537258D01*
X10790141Y-14537258D02*
X10809189Y-14546781D01*
X10809189Y-14546781D02*
X10818712Y-14556305D01*
X10818712Y-14556305D02*
X10828236Y-14575353D01*
X10828236Y-14575353D02*
X10837760Y-14613448D01*
X10837760Y-14613448D02*
X10837760Y-14661067D01*
X10837760Y-14661067D02*
X10828236Y-14699162D01*
X10828236Y-14699162D02*
X10818712Y-14718210D01*
X10818712Y-14718210D02*
X10809189Y-14727734D01*
X10809189Y-14727734D02*
X10790141Y-14737258D01*
X10790141Y-14737258D02*
X10771093Y-14737258D01*
X10771093Y-14737258D02*
X10752046Y-14727734D01*
X10752046Y-14727734D02*
X10742522Y-14718210D01*
X10742522Y-14718210D02*
X10732998Y-14699162D01*
X10732998Y-14699162D02*
X10723474Y-14661067D01*
X10723474Y-14661067D02*
X10723474Y-14613448D01*
X10723474Y-14613448D02*
X10732998Y-14575353D01*
X10732998Y-14575353D02*
X10742522Y-14556305D01*
X10742522Y-14556305D02*
X10752046Y-14546781D01*
X10752046Y-14546781D02*
X10771093Y-14537258D01*
X11018712Y-14537258D02*
X10923474Y-14537258D01*
X10923474Y-14537258D02*
X10913950Y-14632496D01*
X10913950Y-14632496D02*
X10923474Y-14622972D01*
X10923474Y-14622972D02*
X10942522Y-14613448D01*
X10942522Y-14613448D02*
X10990141Y-14613448D01*
X10990141Y-14613448D02*
X11009189Y-14622972D01*
X11009189Y-14622972D02*
X11018712Y-14632496D01*
X11018712Y-14632496D02*
X11028236Y-14651543D01*
X11028236Y-14651543D02*
X11028236Y-14699162D01*
X11028236Y-14699162D02*
X11018712Y-14718210D01*
X11018712Y-14718210D02*
X11009189Y-14727734D01*
X11009189Y-14727734D02*
X10990141Y-14737258D01*
X10990141Y-14737258D02*
X10942522Y-14737258D01*
X10942522Y-14737258D02*
X10923474Y-14727734D01*
X10923474Y-14727734D02*
X10913950Y-14718210D01*
X11152046Y-14537258D02*
X11171093Y-14537258D01*
X11171093Y-14537258D02*
X11190141Y-14546781D01*
X11190141Y-14546781D02*
X11199665Y-14556305D01*
X11199665Y-14556305D02*
X11209188Y-14575353D01*
X11209188Y-14575353D02*
X11218712Y-14613448D01*
X11218712Y-14613448D02*
X11218712Y-14661067D01*
X11218712Y-14661067D02*
X11209188Y-14699162D01*
X11209188Y-14699162D02*
X11199665Y-14718210D01*
X11199665Y-14718210D02*
X11190141Y-14727734D01*
X11190141Y-14727734D02*
X11171093Y-14737258D01*
X11171093Y-14737258D02*
X11152046Y-14737258D01*
X11152046Y-14737258D02*
X11132998Y-14727734D01*
X11132998Y-14727734D02*
X11123474Y-14718210D01*
X11123474Y-14718210D02*
X11113950Y-14699162D01*
X11113950Y-14699162D02*
X11104427Y-14661067D01*
X11104427Y-14661067D02*
X11104427Y-14613448D01*
X11104427Y-14613448D02*
X11113950Y-14575353D01*
X11113950Y-14575353D02*
X11123474Y-14556305D01*
X11123474Y-14556305D02*
X11132998Y-14546781D01*
X11132998Y-14546781D02*
X11152046Y-14537258D01*
X11304427Y-14737258D02*
X11304427Y-14603924D01*
X11304427Y-14622972D02*
X11313950Y-14613448D01*
X11313950Y-14613448D02*
X11332998Y-14603924D01*
X11332998Y-14603924D02*
X11361569Y-14603924D01*
X11361569Y-14603924D02*
X11380617Y-14613448D01*
X11380617Y-14613448D02*
X11390141Y-14632496D01*
X11390141Y-14632496D02*
X11390141Y-14737258D01*
X11390141Y-14632496D02*
X11399665Y-14613448D01*
X11399665Y-14613448D02*
X11418712Y-14603924D01*
X11418712Y-14603924D02*
X11447284Y-14603924D01*
X11447284Y-14603924D02*
X11466331Y-14613448D01*
X11466331Y-14613448D02*
X11475855Y-14632496D01*
X11475855Y-14632496D02*
X11475855Y-14737258D01*
X11571093Y-14737258D02*
X11571093Y-14603924D01*
X11571093Y-14622972D02*
X11580617Y-14613448D01*
X11580617Y-14613448D02*
X11599665Y-14603924D01*
X11599665Y-14603924D02*
X11628236Y-14603924D01*
X11628236Y-14603924D02*
X11647284Y-14613448D01*
X11647284Y-14613448D02*
X11656808Y-14632496D01*
X11656808Y-14632496D02*
X11656808Y-14737258D01*
X11656808Y-14632496D02*
X11666331Y-14613448D01*
X11666331Y-14613448D02*
X11685379Y-14603924D01*
X11685379Y-14603924D02*
X11713950Y-14603924D01*
X11713950Y-14603924D02*
X11732998Y-14613448D01*
X11732998Y-14613448D02*
X11742522Y-14632496D01*
X11742522Y-14632496D02*
X11742522Y-14737258D01*
X12132998Y-14527734D02*
X11961570Y-14784877D01*
X12390141Y-14537258D02*
X12409189Y-14537258D01*
X12409189Y-14537258D02*
X12428236Y-14546781D01*
X12428236Y-14546781D02*
X12437760Y-14556305D01*
X12437760Y-14556305D02*
X12447284Y-14575353D01*
X12447284Y-14575353D02*
X12456808Y-14613448D01*
X12456808Y-14613448D02*
X12456808Y-14661067D01*
X12456808Y-14661067D02*
X12447284Y-14699162D01*
X12447284Y-14699162D02*
X12437760Y-14718210D01*
X12437760Y-14718210D02*
X12428236Y-14727734D01*
X12428236Y-14727734D02*
X12409189Y-14737258D01*
X12409189Y-14737258D02*
X12390141Y-14737258D01*
X12390141Y-14737258D02*
X12371093Y-14727734D01*
X12371093Y-14727734D02*
X12361570Y-14718210D01*
X12361570Y-14718210D02*
X12352046Y-14699162D01*
X12352046Y-14699162D02*
X12342522Y-14661067D01*
X12342522Y-14661067D02*
X12342522Y-14613448D01*
X12342522Y-14613448D02*
X12352046Y-14575353D01*
X12352046Y-14575353D02*
X12361570Y-14556305D01*
X12361570Y-14556305D02*
X12371093Y-14546781D01*
X12371093Y-14546781D02*
X12390141Y-14537258D01*
X12542522Y-14718210D02*
X12552046Y-14727734D01*
X12552046Y-14727734D02*
X12542522Y-14737258D01*
X12542522Y-14737258D02*
X12532998Y-14727734D01*
X12532998Y-14727734D02*
X12542522Y-14718210D01*
X12542522Y-14718210D02*
X12542522Y-14737258D01*
X12675855Y-14537258D02*
X12694903Y-14537258D01*
X12694903Y-14537258D02*
X12713951Y-14546781D01*
X12713951Y-14546781D02*
X12723474Y-14556305D01*
X12723474Y-14556305D02*
X12732998Y-14575353D01*
X12732998Y-14575353D02*
X12742522Y-14613448D01*
X12742522Y-14613448D02*
X12742522Y-14661067D01*
X12742522Y-14661067D02*
X12732998Y-14699162D01*
X12732998Y-14699162D02*
X12723474Y-14718210D01*
X12723474Y-14718210D02*
X12713951Y-14727734D01*
X12713951Y-14727734D02*
X12694903Y-14737258D01*
X12694903Y-14737258D02*
X12675855Y-14737258D01*
X12675855Y-14737258D02*
X12656808Y-14727734D01*
X12656808Y-14727734D02*
X12647284Y-14718210D01*
X12647284Y-14718210D02*
X12637760Y-14699162D01*
X12637760Y-14699162D02*
X12628236Y-14661067D01*
X12628236Y-14661067D02*
X12628236Y-14613448D01*
X12628236Y-14613448D02*
X12637760Y-14575353D01*
X12637760Y-14575353D02*
X12647284Y-14556305D01*
X12647284Y-14556305D02*
X12656808Y-14546781D01*
X12656808Y-14546781D02*
X12675855Y-14537258D01*
X12913951Y-14603924D02*
X12913951Y-14737258D01*
X12866331Y-14527734D02*
X12818712Y-14670591D01*
X12818712Y-14670591D02*
X12942522Y-14670591D01*
X13123474Y-14737258D02*
X13009189Y-14737258D01*
X13066331Y-14737258D02*
X13066331Y-14537258D01*
X13066331Y-14537258D02*
X13047284Y-14565829D01*
X13047284Y-14565829D02*
X13028236Y-14584877D01*
X13028236Y-14584877D02*
X13009189Y-14594400D01*
X13190141Y-14537258D02*
X13313951Y-14537258D01*
X13313951Y-14537258D02*
X13247284Y-14613448D01*
X13247284Y-14613448D02*
X13275855Y-14613448D01*
X13275855Y-14613448D02*
X13294903Y-14622972D01*
X13294903Y-14622972D02*
X13304427Y-14632496D01*
X13304427Y-14632496D02*
X13313951Y-14651543D01*
X13313951Y-14651543D02*
X13313951Y-14699162D01*
X13313951Y-14699162D02*
X13304427Y-14718210D01*
X13304427Y-14718210D02*
X13294903Y-14727734D01*
X13294903Y-14727734D02*
X13275855Y-14737258D01*
X13275855Y-14737258D02*
X13218712Y-14737258D01*
X13218712Y-14737258D02*
X13199665Y-14727734D01*
X13199665Y-14727734D02*
X13190141Y-14718210D01*
X13390141Y-14537258D02*
X13390141Y-14575353D01*
X13466332Y-14537258D02*
X13466332Y-14575353D01*
X13761570Y-14813448D02*
X13752046Y-14803924D01*
X13752046Y-14803924D02*
X13732998Y-14775353D01*
X13732998Y-14775353D02*
X13723474Y-14756305D01*
X13723474Y-14756305D02*
X13713951Y-14727734D01*
X13713951Y-14727734D02*
X13704427Y-14680115D01*
X13704427Y-14680115D02*
X13704427Y-14642020D01*
X13704427Y-14642020D02*
X13713951Y-14594400D01*
X13713951Y-14594400D02*
X13723474Y-14565829D01*
X13723474Y-14565829D02*
X13732998Y-14546781D01*
X13732998Y-14546781D02*
X13752046Y-14518210D01*
X13752046Y-14518210D02*
X13761570Y-14508686D01*
X13875855Y-14537258D02*
X13894903Y-14537258D01*
X13894903Y-14537258D02*
X13913951Y-14546781D01*
X13913951Y-14546781D02*
X13923474Y-14556305D01*
X13923474Y-14556305D02*
X13932998Y-14575353D01*
X13932998Y-14575353D02*
X13942522Y-14613448D01*
X13942522Y-14613448D02*
X13942522Y-14661067D01*
X13942522Y-14661067D02*
X13932998Y-14699162D01*
X13932998Y-14699162D02*
X13923474Y-14718210D01*
X13923474Y-14718210D02*
X13913951Y-14727734D01*
X13913951Y-14727734D02*
X13894903Y-14737258D01*
X13894903Y-14737258D02*
X13875855Y-14737258D01*
X13875855Y-14737258D02*
X13856808Y-14727734D01*
X13856808Y-14727734D02*
X13847284Y-14718210D01*
X13847284Y-14718210D02*
X13837760Y-14699162D01*
X13837760Y-14699162D02*
X13828236Y-14661067D01*
X13828236Y-14661067D02*
X13828236Y-14613448D01*
X13828236Y-14613448D02*
X13837760Y-14575353D01*
X13837760Y-14575353D02*
X13847284Y-14556305D01*
X13847284Y-14556305D02*
X13856808Y-14546781D01*
X13856808Y-14546781D02*
X13875855Y-14537258D01*
X14180617Y-14737258D02*
X14180617Y-14537258D01*
X14266332Y-14737258D02*
X14266332Y-14632496D01*
X14266332Y-14632496D02*
X14256808Y-14613448D01*
X14256808Y-14613448D02*
X14237760Y-14603924D01*
X14237760Y-14603924D02*
X14209189Y-14603924D01*
X14209189Y-14603924D02*
X14190141Y-14613448D01*
X14190141Y-14613448D02*
X14180617Y-14622972D01*
X14390141Y-14737258D02*
X14371094Y-14727734D01*
X14371094Y-14727734D02*
X14361570Y-14718210D01*
X14361570Y-14718210D02*
X14352046Y-14699162D01*
X14352046Y-14699162D02*
X14352046Y-14642020D01*
X14352046Y-14642020D02*
X14361570Y-14622972D01*
X14361570Y-14622972D02*
X14371094Y-14613448D01*
X14371094Y-14613448D02*
X14390141Y-14603924D01*
X14390141Y-14603924D02*
X14418713Y-14603924D01*
X14418713Y-14603924D02*
X14437760Y-14613448D01*
X14437760Y-14613448D02*
X14447284Y-14622972D01*
X14447284Y-14622972D02*
X14456808Y-14642020D01*
X14456808Y-14642020D02*
X14456808Y-14699162D01*
X14456808Y-14699162D02*
X14447284Y-14718210D01*
X14447284Y-14718210D02*
X14437760Y-14727734D01*
X14437760Y-14727734D02*
X14418713Y-14737258D01*
X14418713Y-14737258D02*
X14390141Y-14737258D01*
X14571094Y-14737258D02*
X14552046Y-14727734D01*
X14552046Y-14727734D02*
X14542522Y-14708686D01*
X14542522Y-14708686D02*
X14542522Y-14537258D01*
X14723475Y-14727734D02*
X14704427Y-14737258D01*
X14704427Y-14737258D02*
X14666332Y-14737258D01*
X14666332Y-14737258D02*
X14647284Y-14727734D01*
X14647284Y-14727734D02*
X14637760Y-14708686D01*
X14637760Y-14708686D02*
X14637760Y-14632496D01*
X14637760Y-14632496D02*
X14647284Y-14613448D01*
X14647284Y-14613448D02*
X14666332Y-14603924D01*
X14666332Y-14603924D02*
X14704427Y-14603924D01*
X14704427Y-14603924D02*
X14723475Y-14613448D01*
X14723475Y-14613448D02*
X14732998Y-14632496D01*
X14732998Y-14632496D02*
X14732998Y-14651543D01*
X14732998Y-14651543D02*
X14637760Y-14670591D01*
X14809189Y-14727734D02*
X14828236Y-14737258D01*
X14828236Y-14737258D02*
X14866332Y-14737258D01*
X14866332Y-14737258D02*
X14885379Y-14727734D01*
X14885379Y-14727734D02*
X14894903Y-14708686D01*
X14894903Y-14708686D02*
X14894903Y-14699162D01*
X14894903Y-14699162D02*
X14885379Y-14680115D01*
X14885379Y-14680115D02*
X14866332Y-14670591D01*
X14866332Y-14670591D02*
X14837760Y-14670591D01*
X14837760Y-14670591D02*
X14818713Y-14661067D01*
X14818713Y-14661067D02*
X14809189Y-14642020D01*
X14809189Y-14642020D02*
X14809189Y-14632496D01*
X14809189Y-14632496D02*
X14818713Y-14613448D01*
X14818713Y-14613448D02*
X14837760Y-14603924D01*
X14837760Y-14603924D02*
X14866332Y-14603924D01*
X14866332Y-14603924D02*
X14885379Y-14613448D01*
X15132998Y-14661067D02*
X15285379Y-14661067D01*
X15209189Y-14737258D02*
X15209189Y-14584877D01*
X15523475Y-14556305D02*
X15532998Y-14546781D01*
X15532998Y-14546781D02*
X15552046Y-14537258D01*
X15552046Y-14537258D02*
X15599665Y-14537258D01*
X15599665Y-14537258D02*
X15618713Y-14546781D01*
X15618713Y-14546781D02*
X15628237Y-14556305D01*
X15628237Y-14556305D02*
X15637760Y-14575353D01*
X15637760Y-14575353D02*
X15637760Y-14594400D01*
X15637760Y-14594400D02*
X15628237Y-14622972D01*
X15628237Y-14622972D02*
X15513951Y-14737258D01*
X15513951Y-14737258D02*
X15637760Y-14737258D01*
X15866332Y-14727734D02*
X15885379Y-14737258D01*
X15885379Y-14737258D02*
X15923475Y-14737258D01*
X15923475Y-14737258D02*
X15942522Y-14727734D01*
X15942522Y-14727734D02*
X15952046Y-14708686D01*
X15952046Y-14708686D02*
X15952046Y-14699162D01*
X15952046Y-14699162D02*
X15942522Y-14680115D01*
X15942522Y-14680115D02*
X15923475Y-14670591D01*
X15923475Y-14670591D02*
X15894903Y-14670591D01*
X15894903Y-14670591D02*
X15875856Y-14661067D01*
X15875856Y-14661067D02*
X15866332Y-14642020D01*
X15866332Y-14642020D02*
X15866332Y-14632496D01*
X15866332Y-14632496D02*
X15875856Y-14613448D01*
X15875856Y-14613448D02*
X15894903Y-14603924D01*
X15894903Y-14603924D02*
X15923475Y-14603924D01*
X15923475Y-14603924D02*
X15942522Y-14613448D01*
X16066332Y-14737258D02*
X16047284Y-14727734D01*
X16047284Y-14727734D02*
X16037760Y-14708686D01*
X16037760Y-14708686D02*
X16037760Y-14537258D01*
X16171094Y-14737258D02*
X16152046Y-14727734D01*
X16152046Y-14727734D02*
X16142522Y-14718210D01*
X16142522Y-14718210D02*
X16132999Y-14699162D01*
X16132999Y-14699162D02*
X16132999Y-14642020D01*
X16132999Y-14642020D02*
X16142522Y-14622972D01*
X16142522Y-14622972D02*
X16152046Y-14613448D01*
X16152046Y-14613448D02*
X16171094Y-14603924D01*
X16171094Y-14603924D02*
X16199665Y-14603924D01*
X16199665Y-14603924D02*
X16218713Y-14613448D01*
X16218713Y-14613448D02*
X16228237Y-14622972D01*
X16228237Y-14622972D02*
X16237760Y-14642020D01*
X16237760Y-14642020D02*
X16237760Y-14699162D01*
X16237760Y-14699162D02*
X16228237Y-14718210D01*
X16228237Y-14718210D02*
X16218713Y-14727734D01*
X16218713Y-14727734D02*
X16199665Y-14737258D01*
X16199665Y-14737258D02*
X16171094Y-14737258D01*
X16294903Y-14603924D02*
X16371094Y-14603924D01*
X16323475Y-14537258D02*
X16323475Y-14708686D01*
X16323475Y-14708686D02*
X16332999Y-14727734D01*
X16332999Y-14727734D02*
X16352046Y-14737258D01*
X16352046Y-14737258D02*
X16371094Y-14737258D01*
X16428237Y-14727734D02*
X16447284Y-14737258D01*
X16447284Y-14737258D02*
X16485379Y-14737258D01*
X16485379Y-14737258D02*
X16504427Y-14727734D01*
X16504427Y-14727734D02*
X16513951Y-14708686D01*
X16513951Y-14708686D02*
X16513951Y-14699162D01*
X16513951Y-14699162D02*
X16504427Y-14680115D01*
X16504427Y-14680115D02*
X16485379Y-14670591D01*
X16485379Y-14670591D02*
X16456808Y-14670591D01*
X16456808Y-14670591D02*
X16437760Y-14661067D01*
X16437760Y-14661067D02*
X16428237Y-14642020D01*
X16428237Y-14642020D02*
X16428237Y-14632496D01*
X16428237Y-14632496D02*
X16437760Y-14613448D01*
X16437760Y-14613448D02*
X16456808Y-14603924D01*
X16456808Y-14603924D02*
X16485379Y-14603924D01*
X16485379Y-14603924D02*
X16504427Y-14613448D01*
X16580618Y-14813448D02*
X16590141Y-14803924D01*
X16590141Y-14803924D02*
X16609189Y-14775353D01*
X16609189Y-14775353D02*
X16618713Y-14756305D01*
X16618713Y-14756305D02*
X16628237Y-14727734D01*
X16628237Y-14727734D02*
X16637760Y-14680115D01*
X16637760Y-14680115D02*
X16637760Y-14642020D01*
X16637760Y-14642020D02*
X16628237Y-14594400D01*
X16628237Y-14594400D02*
X16618713Y-14565829D01*
X16618713Y-14565829D02*
X16609189Y-14546781D01*
X16609189Y-14546781D02*
X16590141Y-14518210D01*
X16590141Y-14518210D02*
X16580618Y-14508686D01*
M02*
