G04 #@! TF.GenerationSoftware,KiCad,Pcbnew,7.0.7*
G04 #@! TF.CreationDate,2023-09-06T15:28:22+02:00*
G04 #@! TF.ProjectId,Power Scheduler_20x49x1_6_mm,506f7765-7220-4536-9368-6564756c6572,5.3*
G04 #@! TF.SameCoordinates,Original*
G04 #@! TF.FileFunction,Legend,Top*
G04 #@! TF.FilePolarity,Positive*
%FSLAX46Y46*%
G04 Gerber Fmt 4.6, Leading zero omitted, Abs format (unit mm)*
G04 Created by KiCad (PCBNEW 7.0.7) date 2023-09-06 15:28:22*
%MOMM*%
%LPD*%
G01*
G04 APERTURE LIST*
G04 Aperture macros list*
%AMRoundRect*
0 Rectangle with rounded corners*
0 $1 Rounding radius*
0 $2 $3 $4 $5 $6 $7 $8 $9 X,Y pos of 4 corners*
0 Add a 4 corners polygon primitive as box body*
4,1,4,$2,$3,$4,$5,$6,$7,$8,$9,$2,$3,0*
0 Add four circle primitives for the rounded corners*
1,1,$1+$1,$2,$3*
1,1,$1+$1,$4,$5*
1,1,$1+$1,$6,$7*
1,1,$1+$1,$8,$9*
0 Add four rect primitives between the rounded corners*
20,1,$1+$1,$2,$3,$4,$5,0*
20,1,$1+$1,$4,$5,$6,$7,0*
20,1,$1+$1,$6,$7,$8,$9,0*
20,1,$1+$1,$8,$9,$2,$3,0*%
%AMRotRect*
0 Rectangle, with rotation*
0 The origin of the aperture is its center*
0 $1 length*
0 $2 width*
0 $3 Rotation angle, in degrees counterclockwise*
0 Add horizontal line*
21,1,$1,$2,0,0,$3*%
G04 Aperture macros list end*
%ADD10C,0.100000*%
%ADD11C,0.150000*%
%ADD12C,0.300000*%
%ADD13C,0.400000*%
%ADD14C,0.225000*%
%ADD15C,0.200000*%
%ADD16C,0.120000*%
%ADD17C,0.127000*%
%ADD18C,0.381000*%
%ADD19RoundRect,0.225000X-0.250000X0.225000X-0.250000X-0.225000X0.250000X-0.225000X0.250000X0.225000X0*%
%ADD20R,0.840000X0.420000*%
%ADD21R,1.600000X2.500000*%
%ADD22RoundRect,0.250001X-0.462499X-0.624999X0.462499X-0.624999X0.462499X0.624999X-0.462499X0.624999X0*%
%ADD23RoundRect,0.102000X0.150000X-0.425000X0.150000X0.425000X-0.150000X0.425000X-0.150000X-0.425000X0*%
%ADD24RoundRect,0.102000X0.800000X-0.700000X0.800000X0.700000X-0.800000X0.700000X-0.800000X-0.700000X0*%
%ADD25C,2.300000*%
%ADD26RoundRect,0.102000X-0.714000X0.714000X-0.714000X-0.714000X0.714000X-0.714000X0.714000X0.714000X0*%
%ADD27C,1.632000*%
%ADD28C,1.250000*%
%ADD29RoundRect,0.076200X0.754000X-0.754000X0.754000X0.754000X-0.754000X0.754000X-0.754000X-0.754000X0*%
%ADD30C,1.660400*%
%ADD31O,3.302400X1.727400*%
%ADD32RoundRect,0.250000X0.475000X-0.250000X0.475000X0.250000X-0.475000X0.250000X-0.475000X-0.250000X0*%
%ADD33RoundRect,0.225000X-0.225000X-0.250000X0.225000X-0.250000X0.225000X0.250000X-0.225000X0.250000X0*%
%ADD34R,1.300000X1.000000*%
%ADD35RoundRect,0.225000X0.225000X0.250000X-0.225000X0.250000X-0.225000X-0.250000X0.225000X-0.250000X0*%
%ADD36RoundRect,0.050000X-0.238649X-0.309359X0.309359X0.238649X0.238649X0.309359X-0.309359X-0.238649X0*%
%ADD37RoundRect,0.002500X0.000000X-0.003536X0.003536X0.000000X0.000000X0.003536X-0.003536X0.000000X0*%
%ADD38RoundRect,0.050000X0.238649X-0.309359X0.309359X-0.238649X-0.238649X0.309359X-0.309359X0.238649X0*%
%ADD39RotRect,5.600000X5.600000X45.000000*%
%ADD40RoundRect,0.200000X0.275000X-0.200000X0.275000X0.200000X-0.275000X0.200000X-0.275000X-0.200000X0*%
%ADD41RoundRect,0.250000X-0.450000X0.262500X-0.450000X-0.262500X0.450000X-0.262500X0.450000X0.262500X0*%
%ADD42RoundRect,0.250000X-0.350000X-0.450000X0.350000X-0.450000X0.350000X0.450000X-0.350000X0.450000X0*%
%ADD43C,1.000000*%
%ADD44RoundRect,0.200000X-0.275000X0.200000X-0.275000X-0.200000X0.275000X-0.200000X0.275000X0.200000X0*%
%ADD45RoundRect,0.225000X0.250000X-0.225000X0.250000X0.225000X-0.250000X0.225000X-0.250000X-0.225000X0*%
%ADD46RoundRect,0.250000X-0.475000X0.337500X-0.475000X-0.337500X0.475000X-0.337500X0.475000X0.337500X0*%
%ADD47R,2.100000X1.400000*%
%ADD48RoundRect,0.218750X0.381250X-0.218750X0.381250X0.218750X-0.381250X0.218750X-0.381250X-0.218750X0*%
%ADD49RoundRect,0.250000X-0.250000X-0.475000X0.250000X-0.475000X0.250000X0.475000X-0.250000X0.475000X0*%
%ADD50RoundRect,0.250000X-0.375000X-1.075000X0.375000X-1.075000X0.375000X1.075000X-0.375000X1.075000X0*%
%ADD51RoundRect,0.250000X0.450000X-0.350000X0.450000X0.350000X-0.450000X0.350000X-0.450000X-0.350000X0*%
%ADD52RoundRect,0.250000X0.475000X-0.337500X0.475000X0.337500X-0.475000X0.337500X-0.475000X-0.337500X0*%
%ADD53R,1.000000X1.300000*%
%ADD54RoundRect,0.150000X0.587500X0.150000X-0.587500X0.150000X-0.587500X-0.150000X0.587500X-0.150000X0*%
%ADD55C,0.700000*%
%ADD56O,0.800000X1.500000*%
G04 #@! TA.AperFunction,Profile*
%ADD57C,0.050000*%
G04 #@! TD*
G04 APERTURE END LIST*
D10*
D11*
X177002200Y-166007200D02*
X285002200Y-166007200D01*
X285002200Y-198007200D01*
X177002200Y-198007200D01*
X177002200Y-166007200D01*
D10*
D11*
X10000000Y-10000000D02*
X287002200Y-10000000D01*
X287002200Y-200007200D01*
X10000000Y-200007200D01*
X10000000Y-10000000D01*
D10*
D11*
X12000000Y-12000000D02*
X285002200Y-12000000D01*
X285002200Y-198007200D01*
X12000000Y-198007200D01*
X12000000Y-12000000D01*
D10*
D11*
X60000000Y-12000000D02*
X60000000Y-10000000D01*
D10*
D11*
X110000000Y-12000000D02*
X110000000Y-10000000D01*
D10*
D11*
X160000000Y-12000000D02*
X160000000Y-10000000D01*
D10*
D11*
X210000000Y-12000000D02*
X210000000Y-10000000D01*
D10*
D11*
X260000000Y-12000000D02*
X260000000Y-10000000D01*
D10*
D11*
X36089160Y-11593604D02*
X35346303Y-11593604D01*
X35717731Y-11593604D02*
X35717731Y-10293604D01*
X35717731Y-10293604D02*
X35593922Y-10479319D01*
X35593922Y-10479319D02*
X35470112Y-10603128D01*
X35470112Y-10603128D02*
X35346303Y-10665033D01*
D10*
D11*
X85346303Y-10417414D02*
X85408207Y-10355509D01*
X85408207Y-10355509D02*
X85532017Y-10293604D01*
X85532017Y-10293604D02*
X85841541Y-10293604D01*
X85841541Y-10293604D02*
X85965350Y-10355509D01*
X85965350Y-10355509D02*
X86027255Y-10417414D01*
X86027255Y-10417414D02*
X86089160Y-10541223D01*
X86089160Y-10541223D02*
X86089160Y-10665033D01*
X86089160Y-10665033D02*
X86027255Y-10850747D01*
X86027255Y-10850747D02*
X85284398Y-11593604D01*
X85284398Y-11593604D02*
X86089160Y-11593604D01*
D10*
D11*
X135284398Y-10293604D02*
X136089160Y-10293604D01*
X136089160Y-10293604D02*
X135655826Y-10788842D01*
X135655826Y-10788842D02*
X135841541Y-10788842D01*
X135841541Y-10788842D02*
X135965350Y-10850747D01*
X135965350Y-10850747D02*
X136027255Y-10912652D01*
X136027255Y-10912652D02*
X136089160Y-11036461D01*
X136089160Y-11036461D02*
X136089160Y-11345985D01*
X136089160Y-11345985D02*
X136027255Y-11469795D01*
X136027255Y-11469795D02*
X135965350Y-11531700D01*
X135965350Y-11531700D02*
X135841541Y-11593604D01*
X135841541Y-11593604D02*
X135470112Y-11593604D01*
X135470112Y-11593604D02*
X135346303Y-11531700D01*
X135346303Y-11531700D02*
X135284398Y-11469795D01*
D10*
D11*
X185965350Y-10726938D02*
X185965350Y-11593604D01*
X185655826Y-10231700D02*
X185346303Y-11160271D01*
X185346303Y-11160271D02*
X186151064Y-11160271D01*
D10*
D11*
X236027255Y-10293604D02*
X235408207Y-10293604D01*
X235408207Y-10293604D02*
X235346303Y-10912652D01*
X235346303Y-10912652D02*
X235408207Y-10850747D01*
X235408207Y-10850747D02*
X235532017Y-10788842D01*
X235532017Y-10788842D02*
X235841541Y-10788842D01*
X235841541Y-10788842D02*
X235965350Y-10850747D01*
X235965350Y-10850747D02*
X236027255Y-10912652D01*
X236027255Y-10912652D02*
X236089160Y-11036461D01*
X236089160Y-11036461D02*
X236089160Y-11345985D01*
X236089160Y-11345985D02*
X236027255Y-11469795D01*
X236027255Y-11469795D02*
X235965350Y-11531700D01*
X235965350Y-11531700D02*
X235841541Y-11593604D01*
X235841541Y-11593604D02*
X235532017Y-11593604D01*
X235532017Y-11593604D02*
X235408207Y-11531700D01*
X235408207Y-11531700D02*
X235346303Y-11469795D01*
D10*
D11*
X285965350Y-10293604D02*
X285717731Y-10293604D01*
X285717731Y-10293604D02*
X285593922Y-10355509D01*
X285593922Y-10355509D02*
X285532017Y-10417414D01*
X285532017Y-10417414D02*
X285408207Y-10603128D01*
X285408207Y-10603128D02*
X285346303Y-10850747D01*
X285346303Y-10850747D02*
X285346303Y-11345985D01*
X285346303Y-11345985D02*
X285408207Y-11469795D01*
X285408207Y-11469795D02*
X285470112Y-11531700D01*
X285470112Y-11531700D02*
X285593922Y-11593604D01*
X285593922Y-11593604D02*
X285841541Y-11593604D01*
X285841541Y-11593604D02*
X285965350Y-11531700D01*
X285965350Y-11531700D02*
X286027255Y-11469795D01*
X286027255Y-11469795D02*
X286089160Y-11345985D01*
X286089160Y-11345985D02*
X286089160Y-11036461D01*
X286089160Y-11036461D02*
X286027255Y-10912652D01*
X286027255Y-10912652D02*
X285965350Y-10850747D01*
X285965350Y-10850747D02*
X285841541Y-10788842D01*
X285841541Y-10788842D02*
X285593922Y-10788842D01*
X285593922Y-10788842D02*
X285470112Y-10850747D01*
X285470112Y-10850747D02*
X285408207Y-10912652D01*
X285408207Y-10912652D02*
X285346303Y-11036461D01*
D10*
D11*
X60000000Y-198007200D02*
X60000000Y-200007200D01*
D10*
D11*
X110000000Y-198007200D02*
X110000000Y-200007200D01*
D10*
D11*
X160000000Y-198007200D02*
X160000000Y-200007200D01*
D10*
D11*
X210000000Y-198007200D02*
X210000000Y-200007200D01*
D10*
D11*
X260000000Y-198007200D02*
X260000000Y-200007200D01*
D10*
D11*
X36089160Y-199600804D02*
X35346303Y-199600804D01*
X35717731Y-199600804D02*
X35717731Y-198300804D01*
X35717731Y-198300804D02*
X35593922Y-198486519D01*
X35593922Y-198486519D02*
X35470112Y-198610328D01*
X35470112Y-198610328D02*
X35346303Y-198672233D01*
D10*
D11*
X85346303Y-198424614D02*
X85408207Y-198362709D01*
X85408207Y-198362709D02*
X85532017Y-198300804D01*
X85532017Y-198300804D02*
X85841541Y-198300804D01*
X85841541Y-198300804D02*
X85965350Y-198362709D01*
X85965350Y-198362709D02*
X86027255Y-198424614D01*
X86027255Y-198424614D02*
X86089160Y-198548423D01*
X86089160Y-198548423D02*
X86089160Y-198672233D01*
X86089160Y-198672233D02*
X86027255Y-198857947D01*
X86027255Y-198857947D02*
X85284398Y-199600804D01*
X85284398Y-199600804D02*
X86089160Y-199600804D01*
D10*
D11*
X135284398Y-198300804D02*
X136089160Y-198300804D01*
X136089160Y-198300804D02*
X135655826Y-198796042D01*
X135655826Y-198796042D02*
X135841541Y-198796042D01*
X135841541Y-198796042D02*
X135965350Y-198857947D01*
X135965350Y-198857947D02*
X136027255Y-198919852D01*
X136027255Y-198919852D02*
X136089160Y-199043661D01*
X136089160Y-199043661D02*
X136089160Y-199353185D01*
X136089160Y-199353185D02*
X136027255Y-199476995D01*
X136027255Y-199476995D02*
X135965350Y-199538900D01*
X135965350Y-199538900D02*
X135841541Y-199600804D01*
X135841541Y-199600804D02*
X135470112Y-199600804D01*
X135470112Y-199600804D02*
X135346303Y-199538900D01*
X135346303Y-199538900D02*
X135284398Y-199476995D01*
D10*
D11*
X185965350Y-198734138D02*
X185965350Y-199600804D01*
X185655826Y-198238900D02*
X185346303Y-199167471D01*
X185346303Y-199167471D02*
X186151064Y-199167471D01*
D10*
D11*
X236027255Y-198300804D02*
X235408207Y-198300804D01*
X235408207Y-198300804D02*
X235346303Y-198919852D01*
X235346303Y-198919852D02*
X235408207Y-198857947D01*
X235408207Y-198857947D02*
X235532017Y-198796042D01*
X235532017Y-198796042D02*
X235841541Y-198796042D01*
X235841541Y-198796042D02*
X235965350Y-198857947D01*
X235965350Y-198857947D02*
X236027255Y-198919852D01*
X236027255Y-198919852D02*
X236089160Y-199043661D01*
X236089160Y-199043661D02*
X236089160Y-199353185D01*
X236089160Y-199353185D02*
X236027255Y-199476995D01*
X236027255Y-199476995D02*
X235965350Y-199538900D01*
X235965350Y-199538900D02*
X235841541Y-199600804D01*
X235841541Y-199600804D02*
X235532017Y-199600804D01*
X235532017Y-199600804D02*
X235408207Y-199538900D01*
X235408207Y-199538900D02*
X235346303Y-199476995D01*
D10*
D11*
X285965350Y-198300804D02*
X285717731Y-198300804D01*
X285717731Y-198300804D02*
X285593922Y-198362709D01*
X285593922Y-198362709D02*
X285532017Y-198424614D01*
X285532017Y-198424614D02*
X285408207Y-198610328D01*
X285408207Y-198610328D02*
X285346303Y-198857947D01*
X285346303Y-198857947D02*
X285346303Y-199353185D01*
X285346303Y-199353185D02*
X285408207Y-199476995D01*
X285408207Y-199476995D02*
X285470112Y-199538900D01*
X285470112Y-199538900D02*
X285593922Y-199600804D01*
X285593922Y-199600804D02*
X285841541Y-199600804D01*
X285841541Y-199600804D02*
X285965350Y-199538900D01*
X285965350Y-199538900D02*
X286027255Y-199476995D01*
X286027255Y-199476995D02*
X286089160Y-199353185D01*
X286089160Y-199353185D02*
X286089160Y-199043661D01*
X286089160Y-199043661D02*
X286027255Y-198919852D01*
X286027255Y-198919852D02*
X285965350Y-198857947D01*
X285965350Y-198857947D02*
X285841541Y-198796042D01*
X285841541Y-198796042D02*
X285593922Y-198796042D01*
X285593922Y-198796042D02*
X285470112Y-198857947D01*
X285470112Y-198857947D02*
X285408207Y-198919852D01*
X285408207Y-198919852D02*
X285346303Y-199043661D01*
D10*
D11*
X10000000Y-60000000D02*
X12000000Y-60000000D01*
D10*
D11*
X10000000Y-110000000D02*
X12000000Y-110000000D01*
D10*
D11*
X10000000Y-160000000D02*
X12000000Y-160000000D01*
D10*
D11*
X10690476Y-35222176D02*
X11309523Y-35222176D01*
X10566666Y-35593604D02*
X10999999Y-34293604D01*
X10999999Y-34293604D02*
X11433333Y-35593604D01*
D10*
D11*
X11092857Y-84912652D02*
X11278571Y-84974557D01*
X11278571Y-84974557D02*
X11340476Y-85036461D01*
X11340476Y-85036461D02*
X11402380Y-85160271D01*
X11402380Y-85160271D02*
X11402380Y-85345985D01*
X11402380Y-85345985D02*
X11340476Y-85469795D01*
X11340476Y-85469795D02*
X11278571Y-85531700D01*
X11278571Y-85531700D02*
X11154761Y-85593604D01*
X11154761Y-85593604D02*
X10659523Y-85593604D01*
X10659523Y-85593604D02*
X10659523Y-84293604D01*
X10659523Y-84293604D02*
X11092857Y-84293604D01*
X11092857Y-84293604D02*
X11216666Y-84355509D01*
X11216666Y-84355509D02*
X11278571Y-84417414D01*
X11278571Y-84417414D02*
X11340476Y-84541223D01*
X11340476Y-84541223D02*
X11340476Y-84665033D01*
X11340476Y-84665033D02*
X11278571Y-84788842D01*
X11278571Y-84788842D02*
X11216666Y-84850747D01*
X11216666Y-84850747D02*
X11092857Y-84912652D01*
X11092857Y-84912652D02*
X10659523Y-84912652D01*
D10*
D11*
X11402380Y-135469795D02*
X11340476Y-135531700D01*
X11340476Y-135531700D02*
X11154761Y-135593604D01*
X11154761Y-135593604D02*
X11030952Y-135593604D01*
X11030952Y-135593604D02*
X10845238Y-135531700D01*
X10845238Y-135531700D02*
X10721428Y-135407890D01*
X10721428Y-135407890D02*
X10659523Y-135284080D01*
X10659523Y-135284080D02*
X10597619Y-135036461D01*
X10597619Y-135036461D02*
X10597619Y-134850747D01*
X10597619Y-134850747D02*
X10659523Y-134603128D01*
X10659523Y-134603128D02*
X10721428Y-134479319D01*
X10721428Y-134479319D02*
X10845238Y-134355509D01*
X10845238Y-134355509D02*
X11030952Y-134293604D01*
X11030952Y-134293604D02*
X11154761Y-134293604D01*
X11154761Y-134293604D02*
X11340476Y-134355509D01*
X11340476Y-134355509D02*
X11402380Y-134417414D01*
D10*
D11*
X10659523Y-185593604D02*
X10659523Y-184293604D01*
X10659523Y-184293604D02*
X10969047Y-184293604D01*
X10969047Y-184293604D02*
X11154761Y-184355509D01*
X11154761Y-184355509D02*
X11278571Y-184479319D01*
X11278571Y-184479319D02*
X11340476Y-184603128D01*
X11340476Y-184603128D02*
X11402380Y-184850747D01*
X11402380Y-184850747D02*
X11402380Y-185036461D01*
X11402380Y-185036461D02*
X11340476Y-185284080D01*
X11340476Y-185284080D02*
X11278571Y-185407890D01*
X11278571Y-185407890D02*
X11154761Y-185531700D01*
X11154761Y-185531700D02*
X10969047Y-185593604D01*
X10969047Y-185593604D02*
X10659523Y-185593604D01*
D10*
D11*
X287002200Y-60000000D02*
X285002200Y-60000000D01*
D10*
D11*
X287002200Y-110000000D02*
X285002200Y-110000000D01*
D10*
D11*
X287002200Y-160000000D02*
X285002200Y-160000000D01*
D10*
D11*
X285692676Y-35222176D02*
X286311723Y-35222176D01*
X285568866Y-35593604D02*
X286002199Y-34293604D01*
X286002199Y-34293604D02*
X286435533Y-35593604D01*
D10*
D11*
X286095057Y-84912652D02*
X286280771Y-84974557D01*
X286280771Y-84974557D02*
X286342676Y-85036461D01*
X286342676Y-85036461D02*
X286404580Y-85160271D01*
X286404580Y-85160271D02*
X286404580Y-85345985D01*
X286404580Y-85345985D02*
X286342676Y-85469795D01*
X286342676Y-85469795D02*
X286280771Y-85531700D01*
X286280771Y-85531700D02*
X286156961Y-85593604D01*
X286156961Y-85593604D02*
X285661723Y-85593604D01*
X285661723Y-85593604D02*
X285661723Y-84293604D01*
X285661723Y-84293604D02*
X286095057Y-84293604D01*
X286095057Y-84293604D02*
X286218866Y-84355509D01*
X286218866Y-84355509D02*
X286280771Y-84417414D01*
X286280771Y-84417414D02*
X286342676Y-84541223D01*
X286342676Y-84541223D02*
X286342676Y-84665033D01*
X286342676Y-84665033D02*
X286280771Y-84788842D01*
X286280771Y-84788842D02*
X286218866Y-84850747D01*
X286218866Y-84850747D02*
X286095057Y-84912652D01*
X286095057Y-84912652D02*
X285661723Y-84912652D01*
D10*
D11*
X286404580Y-135469795D02*
X286342676Y-135531700D01*
X286342676Y-135531700D02*
X286156961Y-135593604D01*
X286156961Y-135593604D02*
X286033152Y-135593604D01*
X286033152Y-135593604D02*
X285847438Y-135531700D01*
X285847438Y-135531700D02*
X285723628Y-135407890D01*
X285723628Y-135407890D02*
X285661723Y-135284080D01*
X285661723Y-135284080D02*
X285599819Y-135036461D01*
X285599819Y-135036461D02*
X285599819Y-134850747D01*
X285599819Y-134850747D02*
X285661723Y-134603128D01*
X285661723Y-134603128D02*
X285723628Y-134479319D01*
X285723628Y-134479319D02*
X285847438Y-134355509D01*
X285847438Y-134355509D02*
X286033152Y-134293604D01*
X286033152Y-134293604D02*
X286156961Y-134293604D01*
X286156961Y-134293604D02*
X286342676Y-134355509D01*
X286342676Y-134355509D02*
X286404580Y-134417414D01*
D10*
D11*
X285661723Y-185593604D02*
X285661723Y-184293604D01*
X285661723Y-184293604D02*
X285971247Y-184293604D01*
X285971247Y-184293604D02*
X286156961Y-184355509D01*
X286156961Y-184355509D02*
X286280771Y-184479319D01*
X286280771Y-184479319D02*
X286342676Y-184603128D01*
X286342676Y-184603128D02*
X286404580Y-184850747D01*
X286404580Y-184850747D02*
X286404580Y-185036461D01*
X286404580Y-185036461D02*
X286342676Y-185284080D01*
X286342676Y-185284080D02*
X286280771Y-185407890D01*
X286280771Y-185407890D02*
X286156961Y-185531700D01*
X286156961Y-185531700D02*
X285971247Y-185593604D01*
X285971247Y-185593604D02*
X285661723Y-185593604D01*
D10*
D11*
X200458026Y-193793328D02*
X200458026Y-192293328D01*
X200458026Y-192293328D02*
X200815169Y-192293328D01*
X200815169Y-192293328D02*
X201029455Y-192364757D01*
X201029455Y-192364757D02*
X201172312Y-192507614D01*
X201172312Y-192507614D02*
X201243741Y-192650471D01*
X201243741Y-192650471D02*
X201315169Y-192936185D01*
X201315169Y-192936185D02*
X201315169Y-193150471D01*
X201315169Y-193150471D02*
X201243741Y-193436185D01*
X201243741Y-193436185D02*
X201172312Y-193579042D01*
X201172312Y-193579042D02*
X201029455Y-193721900D01*
X201029455Y-193721900D02*
X200815169Y-193793328D01*
X200815169Y-193793328D02*
X200458026Y-193793328D01*
X202600884Y-193793328D02*
X202600884Y-193007614D01*
X202600884Y-193007614D02*
X202529455Y-192864757D01*
X202529455Y-192864757D02*
X202386598Y-192793328D01*
X202386598Y-192793328D02*
X202100884Y-192793328D01*
X202100884Y-192793328D02*
X201958026Y-192864757D01*
X202600884Y-193721900D02*
X202458026Y-193793328D01*
X202458026Y-193793328D02*
X202100884Y-193793328D01*
X202100884Y-193793328D02*
X201958026Y-193721900D01*
X201958026Y-193721900D02*
X201886598Y-193579042D01*
X201886598Y-193579042D02*
X201886598Y-193436185D01*
X201886598Y-193436185D02*
X201958026Y-193293328D01*
X201958026Y-193293328D02*
X202100884Y-193221900D01*
X202100884Y-193221900D02*
X202458026Y-193221900D01*
X202458026Y-193221900D02*
X202600884Y-193150471D01*
X203100884Y-192793328D02*
X203672312Y-192793328D01*
X203315169Y-192293328D02*
X203315169Y-193579042D01*
X203315169Y-193579042D02*
X203386598Y-193721900D01*
X203386598Y-193721900D02*
X203529455Y-193793328D01*
X203529455Y-193793328D02*
X203672312Y-193793328D01*
X204743741Y-193721900D02*
X204600884Y-193793328D01*
X204600884Y-193793328D02*
X204315170Y-193793328D01*
X204315170Y-193793328D02*
X204172312Y-193721900D01*
X204172312Y-193721900D02*
X204100884Y-193579042D01*
X204100884Y-193579042D02*
X204100884Y-193007614D01*
X204100884Y-193007614D02*
X204172312Y-192864757D01*
X204172312Y-192864757D02*
X204315170Y-192793328D01*
X204315170Y-192793328D02*
X204600884Y-192793328D01*
X204600884Y-192793328D02*
X204743741Y-192864757D01*
X204743741Y-192864757D02*
X204815170Y-193007614D01*
X204815170Y-193007614D02*
X204815170Y-193150471D01*
X204815170Y-193150471D02*
X204100884Y-193293328D01*
X205458026Y-193650471D02*
X205529455Y-193721900D01*
X205529455Y-193721900D02*
X205458026Y-193793328D01*
X205458026Y-193793328D02*
X205386598Y-193721900D01*
X205386598Y-193721900D02*
X205458026Y-193650471D01*
X205458026Y-193650471D02*
X205458026Y-193793328D01*
X205458026Y-192864757D02*
X205529455Y-192936185D01*
X205529455Y-192936185D02*
X205458026Y-193007614D01*
X205458026Y-193007614D02*
X205386598Y-192936185D01*
X205386598Y-192936185D02*
X205458026Y-192864757D01*
X205458026Y-192864757D02*
X205458026Y-193007614D01*
X207243741Y-192436185D02*
X207315169Y-192364757D01*
X207315169Y-192364757D02*
X207458027Y-192293328D01*
X207458027Y-192293328D02*
X207815169Y-192293328D01*
X207815169Y-192293328D02*
X207958027Y-192364757D01*
X207958027Y-192364757D02*
X208029455Y-192436185D01*
X208029455Y-192436185D02*
X208100884Y-192579042D01*
X208100884Y-192579042D02*
X208100884Y-192721900D01*
X208100884Y-192721900D02*
X208029455Y-192936185D01*
X208029455Y-192936185D02*
X207172312Y-193793328D01*
X207172312Y-193793328D02*
X208100884Y-193793328D01*
X209029455Y-192293328D02*
X209172312Y-192293328D01*
X209172312Y-192293328D02*
X209315169Y-192364757D01*
X209315169Y-192364757D02*
X209386598Y-192436185D01*
X209386598Y-192436185D02*
X209458026Y-192579042D01*
X209458026Y-192579042D02*
X209529455Y-192864757D01*
X209529455Y-192864757D02*
X209529455Y-193221900D01*
X209529455Y-193221900D02*
X209458026Y-193507614D01*
X209458026Y-193507614D02*
X209386598Y-193650471D01*
X209386598Y-193650471D02*
X209315169Y-193721900D01*
X209315169Y-193721900D02*
X209172312Y-193793328D01*
X209172312Y-193793328D02*
X209029455Y-193793328D01*
X209029455Y-193793328D02*
X208886598Y-193721900D01*
X208886598Y-193721900D02*
X208815169Y-193650471D01*
X208815169Y-193650471D02*
X208743740Y-193507614D01*
X208743740Y-193507614D02*
X208672312Y-193221900D01*
X208672312Y-193221900D02*
X208672312Y-192864757D01*
X208672312Y-192864757D02*
X208743740Y-192579042D01*
X208743740Y-192579042D02*
X208815169Y-192436185D01*
X208815169Y-192436185D02*
X208886598Y-192364757D01*
X208886598Y-192364757D02*
X209029455Y-192293328D01*
X210100883Y-192436185D02*
X210172311Y-192364757D01*
X210172311Y-192364757D02*
X210315169Y-192293328D01*
X210315169Y-192293328D02*
X210672311Y-192293328D01*
X210672311Y-192293328D02*
X210815169Y-192364757D01*
X210815169Y-192364757D02*
X210886597Y-192436185D01*
X210886597Y-192436185D02*
X210958026Y-192579042D01*
X210958026Y-192579042D02*
X210958026Y-192721900D01*
X210958026Y-192721900D02*
X210886597Y-192936185D01*
X210886597Y-192936185D02*
X210029454Y-193793328D01*
X210029454Y-193793328D02*
X210958026Y-193793328D01*
X212386597Y-193793328D02*
X211529454Y-193793328D01*
X211958025Y-193793328D02*
X211958025Y-192293328D01*
X211958025Y-192293328D02*
X211815168Y-192507614D01*
X211815168Y-192507614D02*
X211672311Y-192650471D01*
X211672311Y-192650471D02*
X211529454Y-192721900D01*
X213029453Y-193221900D02*
X214172311Y-193221900D01*
X215672311Y-193793328D02*
X214815168Y-193793328D01*
X215243739Y-193793328D02*
X215243739Y-192293328D01*
X215243739Y-192293328D02*
X215100882Y-192507614D01*
X215100882Y-192507614D02*
X214958025Y-192650471D01*
X214958025Y-192650471D02*
X214815168Y-192721900D01*
X216243739Y-192436185D02*
X216315167Y-192364757D01*
X216315167Y-192364757D02*
X216458025Y-192293328D01*
X216458025Y-192293328D02*
X216815167Y-192293328D01*
X216815167Y-192293328D02*
X216958025Y-192364757D01*
X216958025Y-192364757D02*
X217029453Y-192436185D01*
X217029453Y-192436185D02*
X217100882Y-192579042D01*
X217100882Y-192579042D02*
X217100882Y-192721900D01*
X217100882Y-192721900D02*
X217029453Y-192936185D01*
X217029453Y-192936185D02*
X216172310Y-193793328D01*
X216172310Y-193793328D02*
X217100882Y-193793328D01*
X217743738Y-193221900D02*
X218886596Y-193221900D01*
X219529453Y-192436185D02*
X219600881Y-192364757D01*
X219600881Y-192364757D02*
X219743739Y-192293328D01*
X219743739Y-192293328D02*
X220100881Y-192293328D01*
X220100881Y-192293328D02*
X220243739Y-192364757D01*
X220243739Y-192364757D02*
X220315167Y-192436185D01*
X220315167Y-192436185D02*
X220386596Y-192579042D01*
X220386596Y-192579042D02*
X220386596Y-192721900D01*
X220386596Y-192721900D02*
X220315167Y-192936185D01*
X220315167Y-192936185D02*
X219458024Y-193793328D01*
X219458024Y-193793328D02*
X220386596Y-193793328D01*
X221243738Y-192936185D02*
X221100881Y-192864757D01*
X221100881Y-192864757D02*
X221029452Y-192793328D01*
X221029452Y-192793328D02*
X220958024Y-192650471D01*
X220958024Y-192650471D02*
X220958024Y-192579042D01*
X220958024Y-192579042D02*
X221029452Y-192436185D01*
X221029452Y-192436185D02*
X221100881Y-192364757D01*
X221100881Y-192364757D02*
X221243738Y-192293328D01*
X221243738Y-192293328D02*
X221529452Y-192293328D01*
X221529452Y-192293328D02*
X221672310Y-192364757D01*
X221672310Y-192364757D02*
X221743738Y-192436185D01*
X221743738Y-192436185D02*
X221815167Y-192579042D01*
X221815167Y-192579042D02*
X221815167Y-192650471D01*
X221815167Y-192650471D02*
X221743738Y-192793328D01*
X221743738Y-192793328D02*
X221672310Y-192864757D01*
X221672310Y-192864757D02*
X221529452Y-192936185D01*
X221529452Y-192936185D02*
X221243738Y-192936185D01*
X221243738Y-192936185D02*
X221100881Y-193007614D01*
X221100881Y-193007614D02*
X221029452Y-193079042D01*
X221029452Y-193079042D02*
X220958024Y-193221900D01*
X220958024Y-193221900D02*
X220958024Y-193507614D01*
X220958024Y-193507614D02*
X221029452Y-193650471D01*
X221029452Y-193650471D02*
X221100881Y-193721900D01*
X221100881Y-193721900D02*
X221243738Y-193793328D01*
X221243738Y-193793328D02*
X221529452Y-193793328D01*
X221529452Y-193793328D02*
X221672310Y-193721900D01*
X221672310Y-193721900D02*
X221743738Y-193650471D01*
X221743738Y-193650471D02*
X221815167Y-193507614D01*
X221815167Y-193507614D02*
X221815167Y-193221900D01*
X221815167Y-193221900D02*
X221743738Y-193079042D01*
X221743738Y-193079042D02*
X221672310Y-193007614D01*
X221672310Y-193007614D02*
X221529452Y-192936185D01*
D10*
D11*
X177002200Y-194507200D02*
X285002200Y-194507200D01*
D10*
D11*
X178458026Y-196593328D02*
X178458026Y-195093328D01*
X179315169Y-196593328D02*
X178672312Y-195736185D01*
X179315169Y-195093328D02*
X178458026Y-195950471D01*
X179958026Y-196593328D02*
X179958026Y-195593328D01*
X179958026Y-195093328D02*
X179886598Y-195164757D01*
X179886598Y-195164757D02*
X179958026Y-195236185D01*
X179958026Y-195236185D02*
X180029455Y-195164757D01*
X180029455Y-195164757D02*
X179958026Y-195093328D01*
X179958026Y-195093328D02*
X179958026Y-195236185D01*
X181529455Y-196450471D02*
X181458027Y-196521900D01*
X181458027Y-196521900D02*
X181243741Y-196593328D01*
X181243741Y-196593328D02*
X181100884Y-196593328D01*
X181100884Y-196593328D02*
X180886598Y-196521900D01*
X180886598Y-196521900D02*
X180743741Y-196379042D01*
X180743741Y-196379042D02*
X180672312Y-196236185D01*
X180672312Y-196236185D02*
X180600884Y-195950471D01*
X180600884Y-195950471D02*
X180600884Y-195736185D01*
X180600884Y-195736185D02*
X180672312Y-195450471D01*
X180672312Y-195450471D02*
X180743741Y-195307614D01*
X180743741Y-195307614D02*
X180886598Y-195164757D01*
X180886598Y-195164757D02*
X181100884Y-195093328D01*
X181100884Y-195093328D02*
X181243741Y-195093328D01*
X181243741Y-195093328D02*
X181458027Y-195164757D01*
X181458027Y-195164757D02*
X181529455Y-195236185D01*
X182815170Y-196593328D02*
X182815170Y-195807614D01*
X182815170Y-195807614D02*
X182743741Y-195664757D01*
X182743741Y-195664757D02*
X182600884Y-195593328D01*
X182600884Y-195593328D02*
X182315170Y-195593328D01*
X182315170Y-195593328D02*
X182172312Y-195664757D01*
X182815170Y-196521900D02*
X182672312Y-196593328D01*
X182672312Y-196593328D02*
X182315170Y-196593328D01*
X182315170Y-196593328D02*
X182172312Y-196521900D01*
X182172312Y-196521900D02*
X182100884Y-196379042D01*
X182100884Y-196379042D02*
X182100884Y-196236185D01*
X182100884Y-196236185D02*
X182172312Y-196093328D01*
X182172312Y-196093328D02*
X182315170Y-196021900D01*
X182315170Y-196021900D02*
X182672312Y-196021900D01*
X182672312Y-196021900D02*
X182815170Y-195950471D01*
X184172313Y-196593328D02*
X184172313Y-195093328D01*
X184172313Y-196521900D02*
X184029455Y-196593328D01*
X184029455Y-196593328D02*
X183743741Y-196593328D01*
X183743741Y-196593328D02*
X183600884Y-196521900D01*
X183600884Y-196521900D02*
X183529455Y-196450471D01*
X183529455Y-196450471D02*
X183458027Y-196307614D01*
X183458027Y-196307614D02*
X183458027Y-195879042D01*
X183458027Y-195879042D02*
X183529455Y-195736185D01*
X183529455Y-195736185D02*
X183600884Y-195664757D01*
X183600884Y-195664757D02*
X183743741Y-195593328D01*
X183743741Y-195593328D02*
X184029455Y-195593328D01*
X184029455Y-195593328D02*
X184172313Y-195664757D01*
X186029455Y-195807614D02*
X186529455Y-195807614D01*
X186743741Y-196593328D02*
X186029455Y-196593328D01*
X186029455Y-196593328D02*
X186029455Y-195093328D01*
X186029455Y-195093328D02*
X186743741Y-195093328D01*
X187386598Y-196450471D02*
X187458027Y-196521900D01*
X187458027Y-196521900D02*
X187386598Y-196593328D01*
X187386598Y-196593328D02*
X187315170Y-196521900D01*
X187315170Y-196521900D02*
X187386598Y-196450471D01*
X187386598Y-196450471D02*
X187386598Y-196593328D01*
X188100884Y-196593328D02*
X188100884Y-195093328D01*
X188100884Y-195093328D02*
X188458027Y-195093328D01*
X188458027Y-195093328D02*
X188672313Y-195164757D01*
X188672313Y-195164757D02*
X188815170Y-195307614D01*
X188815170Y-195307614D02*
X188886599Y-195450471D01*
X188886599Y-195450471D02*
X188958027Y-195736185D01*
X188958027Y-195736185D02*
X188958027Y-195950471D01*
X188958027Y-195950471D02*
X188886599Y-196236185D01*
X188886599Y-196236185D02*
X188815170Y-196379042D01*
X188815170Y-196379042D02*
X188672313Y-196521900D01*
X188672313Y-196521900D02*
X188458027Y-196593328D01*
X188458027Y-196593328D02*
X188100884Y-196593328D01*
X189600884Y-196450471D02*
X189672313Y-196521900D01*
X189672313Y-196521900D02*
X189600884Y-196593328D01*
X189600884Y-196593328D02*
X189529456Y-196521900D01*
X189529456Y-196521900D02*
X189600884Y-196450471D01*
X189600884Y-196450471D02*
X189600884Y-196593328D01*
X190243742Y-196164757D02*
X190958028Y-196164757D01*
X190100885Y-196593328D02*
X190600885Y-195093328D01*
X190600885Y-195093328D02*
X191100885Y-196593328D01*
X191600884Y-196450471D02*
X191672313Y-196521900D01*
X191672313Y-196521900D02*
X191600884Y-196593328D01*
X191600884Y-196593328D02*
X191529456Y-196521900D01*
X191529456Y-196521900D02*
X191600884Y-196450471D01*
X191600884Y-196450471D02*
X191600884Y-196593328D01*
X194600884Y-196593328D02*
X194600884Y-195093328D01*
X194743742Y-196021900D02*
X195172313Y-196593328D01*
X195172313Y-195593328D02*
X194600884Y-196164757D01*
X195815170Y-196593328D02*
X195815170Y-195593328D01*
X195815170Y-195093328D02*
X195743742Y-195164757D01*
X195743742Y-195164757D02*
X195815170Y-195236185D01*
X195815170Y-195236185D02*
X195886599Y-195164757D01*
X195886599Y-195164757D02*
X195815170Y-195093328D01*
X195815170Y-195093328D02*
X195815170Y-195236185D01*
X197172314Y-196521900D02*
X197029456Y-196593328D01*
X197029456Y-196593328D02*
X196743742Y-196593328D01*
X196743742Y-196593328D02*
X196600885Y-196521900D01*
X196600885Y-196521900D02*
X196529456Y-196450471D01*
X196529456Y-196450471D02*
X196458028Y-196307614D01*
X196458028Y-196307614D02*
X196458028Y-195879042D01*
X196458028Y-195879042D02*
X196529456Y-195736185D01*
X196529456Y-195736185D02*
X196600885Y-195664757D01*
X196600885Y-195664757D02*
X196743742Y-195593328D01*
X196743742Y-195593328D02*
X197029456Y-195593328D01*
X197029456Y-195593328D02*
X197172314Y-195664757D01*
X198458028Y-196593328D02*
X198458028Y-195807614D01*
X198458028Y-195807614D02*
X198386599Y-195664757D01*
X198386599Y-195664757D02*
X198243742Y-195593328D01*
X198243742Y-195593328D02*
X197958028Y-195593328D01*
X197958028Y-195593328D02*
X197815170Y-195664757D01*
X198458028Y-196521900D02*
X198315170Y-196593328D01*
X198315170Y-196593328D02*
X197958028Y-196593328D01*
X197958028Y-196593328D02*
X197815170Y-196521900D01*
X197815170Y-196521900D02*
X197743742Y-196379042D01*
X197743742Y-196379042D02*
X197743742Y-196236185D01*
X197743742Y-196236185D02*
X197815170Y-196093328D01*
X197815170Y-196093328D02*
X197958028Y-196021900D01*
X197958028Y-196021900D02*
X198315170Y-196021900D01*
X198315170Y-196021900D02*
X198458028Y-195950471D01*
X199815171Y-196593328D02*
X199815171Y-195093328D01*
X199815171Y-196521900D02*
X199672313Y-196593328D01*
X199672313Y-196593328D02*
X199386599Y-196593328D01*
X199386599Y-196593328D02*
X199243742Y-196521900D01*
X199243742Y-196521900D02*
X199172313Y-196450471D01*
X199172313Y-196450471D02*
X199100885Y-196307614D01*
X199100885Y-196307614D02*
X199100885Y-195879042D01*
X199100885Y-195879042D02*
X199172313Y-195736185D01*
X199172313Y-195736185D02*
X199243742Y-195664757D01*
X199243742Y-195664757D02*
X199386599Y-195593328D01*
X199386599Y-195593328D02*
X199672313Y-195593328D01*
X199672313Y-195593328D02*
X199815171Y-195664757D01*
X201529456Y-195093328D02*
X202529456Y-195093328D01*
X202529456Y-195093328D02*
X201886599Y-196593328D01*
X203100884Y-196450471D02*
X203172313Y-196521900D01*
X203172313Y-196521900D02*
X203100884Y-196593328D01*
X203100884Y-196593328D02*
X203029456Y-196521900D01*
X203029456Y-196521900D02*
X203100884Y-196450471D01*
X203100884Y-196450471D02*
X203100884Y-196593328D01*
X204100885Y-195093328D02*
X204243742Y-195093328D01*
X204243742Y-195093328D02*
X204386599Y-195164757D01*
X204386599Y-195164757D02*
X204458028Y-195236185D01*
X204458028Y-195236185D02*
X204529456Y-195379042D01*
X204529456Y-195379042D02*
X204600885Y-195664757D01*
X204600885Y-195664757D02*
X204600885Y-196021900D01*
X204600885Y-196021900D02*
X204529456Y-196307614D01*
X204529456Y-196307614D02*
X204458028Y-196450471D01*
X204458028Y-196450471D02*
X204386599Y-196521900D01*
X204386599Y-196521900D02*
X204243742Y-196593328D01*
X204243742Y-196593328D02*
X204100885Y-196593328D01*
X204100885Y-196593328D02*
X203958028Y-196521900D01*
X203958028Y-196521900D02*
X203886599Y-196450471D01*
X203886599Y-196450471D02*
X203815170Y-196307614D01*
X203815170Y-196307614D02*
X203743742Y-196021900D01*
X203743742Y-196021900D02*
X203743742Y-195664757D01*
X203743742Y-195664757D02*
X203815170Y-195379042D01*
X203815170Y-195379042D02*
X203886599Y-195236185D01*
X203886599Y-195236185D02*
X203958028Y-195164757D01*
X203958028Y-195164757D02*
X204100885Y-195093328D01*
X205243741Y-196450471D02*
X205315170Y-196521900D01*
X205315170Y-196521900D02*
X205243741Y-196593328D01*
X205243741Y-196593328D02*
X205172313Y-196521900D01*
X205172313Y-196521900D02*
X205243741Y-196450471D01*
X205243741Y-196450471D02*
X205243741Y-196593328D01*
X205815170Y-195093328D02*
X206815170Y-195093328D01*
X206815170Y-195093328D02*
X206172313Y-196593328D01*
D10*
D11*
X177002200Y-191507200D02*
X285002200Y-191507200D01*
D10*
D12*
X264413853Y-193785528D02*
X263913853Y-193071242D01*
X263556710Y-193785528D02*
X263556710Y-192285528D01*
X263556710Y-192285528D02*
X264128139Y-192285528D01*
X264128139Y-192285528D02*
X264270996Y-192356957D01*
X264270996Y-192356957D02*
X264342425Y-192428385D01*
X264342425Y-192428385D02*
X264413853Y-192571242D01*
X264413853Y-192571242D02*
X264413853Y-192785528D01*
X264413853Y-192785528D02*
X264342425Y-192928385D01*
X264342425Y-192928385D02*
X264270996Y-192999814D01*
X264270996Y-192999814D02*
X264128139Y-193071242D01*
X264128139Y-193071242D02*
X263556710Y-193071242D01*
X265628139Y-193714100D02*
X265485282Y-193785528D01*
X265485282Y-193785528D02*
X265199568Y-193785528D01*
X265199568Y-193785528D02*
X265056710Y-193714100D01*
X265056710Y-193714100D02*
X264985282Y-193571242D01*
X264985282Y-193571242D02*
X264985282Y-192999814D01*
X264985282Y-192999814D02*
X265056710Y-192856957D01*
X265056710Y-192856957D02*
X265199568Y-192785528D01*
X265199568Y-192785528D02*
X265485282Y-192785528D01*
X265485282Y-192785528D02*
X265628139Y-192856957D01*
X265628139Y-192856957D02*
X265699568Y-192999814D01*
X265699568Y-192999814D02*
X265699568Y-193142671D01*
X265699568Y-193142671D02*
X264985282Y-193285528D01*
X266199567Y-192785528D02*
X266556710Y-193785528D01*
X266556710Y-193785528D02*
X266913853Y-192785528D01*
X267485281Y-193642671D02*
X267556710Y-193714100D01*
X267556710Y-193714100D02*
X267485281Y-193785528D01*
X267485281Y-193785528D02*
X267413853Y-193714100D01*
X267413853Y-193714100D02*
X267485281Y-193642671D01*
X267485281Y-193642671D02*
X267485281Y-193785528D01*
X267485281Y-192856957D02*
X267556710Y-192928385D01*
X267556710Y-192928385D02*
X267485281Y-192999814D01*
X267485281Y-192999814D02*
X267413853Y-192928385D01*
X267413853Y-192928385D02*
X267485281Y-192856957D01*
X267485281Y-192856957D02*
X267485281Y-192999814D01*
X270056710Y-192285528D02*
X269342424Y-192285528D01*
X269342424Y-192285528D02*
X269270996Y-192999814D01*
X269270996Y-192999814D02*
X269342424Y-192928385D01*
X269342424Y-192928385D02*
X269485282Y-192856957D01*
X269485282Y-192856957D02*
X269842424Y-192856957D01*
X269842424Y-192856957D02*
X269985282Y-192928385D01*
X269985282Y-192928385D02*
X270056710Y-192999814D01*
X270056710Y-192999814D02*
X270128139Y-193142671D01*
X270128139Y-193142671D02*
X270128139Y-193499814D01*
X270128139Y-193499814D02*
X270056710Y-193642671D01*
X270056710Y-193642671D02*
X269985282Y-193714100D01*
X269985282Y-193714100D02*
X269842424Y-193785528D01*
X269842424Y-193785528D02*
X269485282Y-193785528D01*
X269485282Y-193785528D02*
X269342424Y-193714100D01*
X269342424Y-193714100D02*
X269270996Y-193642671D01*
X270770995Y-193642671D02*
X270842424Y-193714100D01*
X270842424Y-193714100D02*
X270770995Y-193785528D01*
X270770995Y-193785528D02*
X270699567Y-193714100D01*
X270699567Y-193714100D02*
X270770995Y-193642671D01*
X270770995Y-193642671D02*
X270770995Y-193785528D01*
X271342424Y-192285528D02*
X272270996Y-192285528D01*
X272270996Y-192285528D02*
X271770996Y-192856957D01*
X271770996Y-192856957D02*
X271985281Y-192856957D01*
X271985281Y-192856957D02*
X272128139Y-192928385D01*
X272128139Y-192928385D02*
X272199567Y-192999814D01*
X272199567Y-192999814D02*
X272270996Y-193142671D01*
X272270996Y-193142671D02*
X272270996Y-193499814D01*
X272270996Y-193499814D02*
X272199567Y-193642671D01*
X272199567Y-193642671D02*
X272128139Y-193714100D01*
X272128139Y-193714100D02*
X271985281Y-193785528D01*
X271985281Y-193785528D02*
X271556710Y-193785528D01*
X271556710Y-193785528D02*
X271413853Y-193714100D01*
X271413853Y-193714100D02*
X271342424Y-193642671D01*
D10*
D11*
X178386598Y-193721900D02*
X178600884Y-193793328D01*
X178600884Y-193793328D02*
X178958026Y-193793328D01*
X178958026Y-193793328D02*
X179100884Y-193721900D01*
X179100884Y-193721900D02*
X179172312Y-193650471D01*
X179172312Y-193650471D02*
X179243741Y-193507614D01*
X179243741Y-193507614D02*
X179243741Y-193364757D01*
X179243741Y-193364757D02*
X179172312Y-193221900D01*
X179172312Y-193221900D02*
X179100884Y-193150471D01*
X179100884Y-193150471D02*
X178958026Y-193079042D01*
X178958026Y-193079042D02*
X178672312Y-193007614D01*
X178672312Y-193007614D02*
X178529455Y-192936185D01*
X178529455Y-192936185D02*
X178458026Y-192864757D01*
X178458026Y-192864757D02*
X178386598Y-192721900D01*
X178386598Y-192721900D02*
X178386598Y-192579042D01*
X178386598Y-192579042D02*
X178458026Y-192436185D01*
X178458026Y-192436185D02*
X178529455Y-192364757D01*
X178529455Y-192364757D02*
X178672312Y-192293328D01*
X178672312Y-192293328D02*
X179029455Y-192293328D01*
X179029455Y-192293328D02*
X179243741Y-192364757D01*
X179886597Y-193793328D02*
X179886597Y-192793328D01*
X179886597Y-192293328D02*
X179815169Y-192364757D01*
X179815169Y-192364757D02*
X179886597Y-192436185D01*
X179886597Y-192436185D02*
X179958026Y-192364757D01*
X179958026Y-192364757D02*
X179886597Y-192293328D01*
X179886597Y-192293328D02*
X179886597Y-192436185D01*
X180458026Y-192793328D02*
X181243741Y-192793328D01*
X181243741Y-192793328D02*
X180458026Y-193793328D01*
X180458026Y-193793328D02*
X181243741Y-193793328D01*
X182386598Y-193721900D02*
X182243741Y-193793328D01*
X182243741Y-193793328D02*
X181958027Y-193793328D01*
X181958027Y-193793328D02*
X181815169Y-193721900D01*
X181815169Y-193721900D02*
X181743741Y-193579042D01*
X181743741Y-193579042D02*
X181743741Y-193007614D01*
X181743741Y-193007614D02*
X181815169Y-192864757D01*
X181815169Y-192864757D02*
X181958027Y-192793328D01*
X181958027Y-192793328D02*
X182243741Y-192793328D01*
X182243741Y-192793328D02*
X182386598Y-192864757D01*
X182386598Y-192864757D02*
X182458027Y-193007614D01*
X182458027Y-193007614D02*
X182458027Y-193150471D01*
X182458027Y-193150471D02*
X181743741Y-193293328D01*
X183100883Y-193650471D02*
X183172312Y-193721900D01*
X183172312Y-193721900D02*
X183100883Y-193793328D01*
X183100883Y-193793328D02*
X183029455Y-193721900D01*
X183029455Y-193721900D02*
X183100883Y-193650471D01*
X183100883Y-193650471D02*
X183100883Y-193793328D01*
X183100883Y-192864757D02*
X183172312Y-192936185D01*
X183172312Y-192936185D02*
X183100883Y-193007614D01*
X183100883Y-193007614D02*
X183029455Y-192936185D01*
X183029455Y-192936185D02*
X183100883Y-192864757D01*
X183100883Y-192864757D02*
X183100883Y-193007614D01*
X184886598Y-193364757D02*
X185600884Y-193364757D01*
X184743741Y-193793328D02*
X185243741Y-192293328D01*
X185243741Y-192293328D02*
X185743741Y-193793328D01*
X186886598Y-192793328D02*
X186886598Y-193793328D01*
X186529455Y-192221900D02*
X186172312Y-193293328D01*
X186172312Y-193293328D02*
X187100883Y-193293328D01*
D10*
D11*
X263458026Y-196593328D02*
X263458026Y-195093328D01*
X264815170Y-196593328D02*
X264815170Y-195093328D01*
X264815170Y-196521900D02*
X264672312Y-196593328D01*
X264672312Y-196593328D02*
X264386598Y-196593328D01*
X264386598Y-196593328D02*
X264243741Y-196521900D01*
X264243741Y-196521900D02*
X264172312Y-196450471D01*
X264172312Y-196450471D02*
X264100884Y-196307614D01*
X264100884Y-196307614D02*
X264100884Y-195879042D01*
X264100884Y-195879042D02*
X264172312Y-195736185D01*
X264172312Y-195736185D02*
X264243741Y-195664757D01*
X264243741Y-195664757D02*
X264386598Y-195593328D01*
X264386598Y-195593328D02*
X264672312Y-195593328D01*
X264672312Y-195593328D02*
X264815170Y-195664757D01*
X265529455Y-196450471D02*
X265600884Y-196521900D01*
X265600884Y-196521900D02*
X265529455Y-196593328D01*
X265529455Y-196593328D02*
X265458027Y-196521900D01*
X265458027Y-196521900D02*
X265529455Y-196450471D01*
X265529455Y-196450471D02*
X265529455Y-196593328D01*
X265529455Y-195664757D02*
X265600884Y-195736185D01*
X265600884Y-195736185D02*
X265529455Y-195807614D01*
X265529455Y-195807614D02*
X265458027Y-195736185D01*
X265458027Y-195736185D02*
X265529455Y-195664757D01*
X265529455Y-195664757D02*
X265529455Y-195807614D01*
X268172313Y-196593328D02*
X267315170Y-196593328D01*
X267743741Y-196593328D02*
X267743741Y-195093328D01*
X267743741Y-195093328D02*
X267600884Y-195307614D01*
X267600884Y-195307614D02*
X267458027Y-195450471D01*
X267458027Y-195450471D02*
X267315170Y-195521900D01*
X269886598Y-195021900D02*
X268600884Y-196950471D01*
X271172313Y-196593328D02*
X270315170Y-196593328D01*
X270743741Y-196593328D02*
X270743741Y-195093328D01*
X270743741Y-195093328D02*
X270600884Y-195307614D01*
X270600884Y-195307614D02*
X270458027Y-195450471D01*
X270458027Y-195450471D02*
X270315170Y-195521900D01*
D10*
D11*
X177002200Y-187507200D02*
X285002200Y-187507200D01*
D10*
D13*
X178693928Y-188211638D02*
X179836785Y-188211638D01*
X179015357Y-190211638D02*
X179265357Y-188211638D01*
X180253452Y-190211638D02*
X180420119Y-188878304D01*
X180503452Y-188211638D02*
X180396309Y-188306876D01*
X180396309Y-188306876D02*
X180479643Y-188402114D01*
X180479643Y-188402114D02*
X180586786Y-188306876D01*
X180586786Y-188306876D02*
X180503452Y-188211638D01*
X180503452Y-188211638D02*
X180479643Y-188402114D01*
X181086786Y-188878304D02*
X181848690Y-188878304D01*
X181455833Y-188211638D02*
X181241548Y-189925923D01*
X181241548Y-189925923D02*
X181312976Y-190116400D01*
X181312976Y-190116400D02*
X181491548Y-190211638D01*
X181491548Y-190211638D02*
X181682024Y-190211638D01*
X182634405Y-190211638D02*
X182455833Y-190116400D01*
X182455833Y-190116400D02*
X182384405Y-189925923D01*
X182384405Y-189925923D02*
X182598690Y-188211638D01*
X184170119Y-190116400D02*
X183967738Y-190211638D01*
X183967738Y-190211638D02*
X183586785Y-190211638D01*
X183586785Y-190211638D02*
X183408214Y-190116400D01*
X183408214Y-190116400D02*
X183336785Y-189925923D01*
X183336785Y-189925923D02*
X183432024Y-189164019D01*
X183432024Y-189164019D02*
X183551071Y-188973542D01*
X183551071Y-188973542D02*
X183753452Y-188878304D01*
X183753452Y-188878304D02*
X184134404Y-188878304D01*
X184134404Y-188878304D02*
X184312976Y-188973542D01*
X184312976Y-188973542D02*
X184384404Y-189164019D01*
X184384404Y-189164019D02*
X184360595Y-189354495D01*
X184360595Y-189354495D02*
X183384404Y-189544971D01*
X185134405Y-190021161D02*
X185217738Y-190116400D01*
X185217738Y-190116400D02*
X185110595Y-190211638D01*
X185110595Y-190211638D02*
X185027262Y-190116400D01*
X185027262Y-190116400D02*
X185134405Y-190021161D01*
X185134405Y-190021161D02*
X185110595Y-190211638D01*
X185265357Y-188973542D02*
X185348690Y-189068780D01*
X185348690Y-189068780D02*
X185241548Y-189164019D01*
X185241548Y-189164019D02*
X185158214Y-189068780D01*
X185158214Y-189068780D02*
X185265357Y-188973542D01*
X185265357Y-188973542D02*
X185241548Y-189164019D01*
D10*
D11*
X178958026Y-185607614D02*
X178458026Y-185607614D01*
X178458026Y-186393328D02*
X178458026Y-184893328D01*
X178458026Y-184893328D02*
X179172312Y-184893328D01*
X179743740Y-186393328D02*
X179743740Y-185393328D01*
X179743740Y-184893328D02*
X179672312Y-184964757D01*
X179672312Y-184964757D02*
X179743740Y-185036185D01*
X179743740Y-185036185D02*
X179815169Y-184964757D01*
X179815169Y-184964757D02*
X179743740Y-184893328D01*
X179743740Y-184893328D02*
X179743740Y-185036185D01*
X180672312Y-186393328D02*
X180529455Y-186321900D01*
X180529455Y-186321900D02*
X180458026Y-186179042D01*
X180458026Y-186179042D02*
X180458026Y-184893328D01*
X181815169Y-186321900D02*
X181672312Y-186393328D01*
X181672312Y-186393328D02*
X181386598Y-186393328D01*
X181386598Y-186393328D02*
X181243740Y-186321900D01*
X181243740Y-186321900D02*
X181172312Y-186179042D01*
X181172312Y-186179042D02*
X181172312Y-185607614D01*
X181172312Y-185607614D02*
X181243740Y-185464757D01*
X181243740Y-185464757D02*
X181386598Y-185393328D01*
X181386598Y-185393328D02*
X181672312Y-185393328D01*
X181672312Y-185393328D02*
X181815169Y-185464757D01*
X181815169Y-185464757D02*
X181886598Y-185607614D01*
X181886598Y-185607614D02*
X181886598Y-185750471D01*
X181886598Y-185750471D02*
X181172312Y-185893328D01*
X182529454Y-186250471D02*
X182600883Y-186321900D01*
X182600883Y-186321900D02*
X182529454Y-186393328D01*
X182529454Y-186393328D02*
X182458026Y-186321900D01*
X182458026Y-186321900D02*
X182529454Y-186250471D01*
X182529454Y-186250471D02*
X182529454Y-186393328D01*
X182529454Y-185464757D02*
X182600883Y-185536185D01*
X182600883Y-185536185D02*
X182529454Y-185607614D01*
X182529454Y-185607614D02*
X182458026Y-185536185D01*
X182458026Y-185536185D02*
X182529454Y-185464757D01*
X182529454Y-185464757D02*
X182529454Y-185607614D01*
X184386597Y-186393328D02*
X184386597Y-184893328D01*
X184386597Y-184893328D02*
X184958026Y-184893328D01*
X184958026Y-184893328D02*
X185100883Y-184964757D01*
X185100883Y-184964757D02*
X185172312Y-185036185D01*
X185172312Y-185036185D02*
X185243740Y-185179042D01*
X185243740Y-185179042D02*
X185243740Y-185393328D01*
X185243740Y-185393328D02*
X185172312Y-185536185D01*
X185172312Y-185536185D02*
X185100883Y-185607614D01*
X185100883Y-185607614D02*
X184958026Y-185679042D01*
X184958026Y-185679042D02*
X184386597Y-185679042D01*
X186100883Y-186393328D02*
X185958026Y-186321900D01*
X185958026Y-186321900D02*
X185886597Y-186250471D01*
X185886597Y-186250471D02*
X185815169Y-186107614D01*
X185815169Y-186107614D02*
X185815169Y-185679042D01*
X185815169Y-185679042D02*
X185886597Y-185536185D01*
X185886597Y-185536185D02*
X185958026Y-185464757D01*
X185958026Y-185464757D02*
X186100883Y-185393328D01*
X186100883Y-185393328D02*
X186315169Y-185393328D01*
X186315169Y-185393328D02*
X186458026Y-185464757D01*
X186458026Y-185464757D02*
X186529455Y-185536185D01*
X186529455Y-185536185D02*
X186600883Y-185679042D01*
X186600883Y-185679042D02*
X186600883Y-186107614D01*
X186600883Y-186107614D02*
X186529455Y-186250471D01*
X186529455Y-186250471D02*
X186458026Y-186321900D01*
X186458026Y-186321900D02*
X186315169Y-186393328D01*
X186315169Y-186393328D02*
X186100883Y-186393328D01*
X187100883Y-185393328D02*
X187386598Y-186393328D01*
X187386598Y-186393328D02*
X187672312Y-185679042D01*
X187672312Y-185679042D02*
X187958026Y-186393328D01*
X187958026Y-186393328D02*
X188243740Y-185393328D01*
X189386598Y-186321900D02*
X189243741Y-186393328D01*
X189243741Y-186393328D02*
X188958027Y-186393328D01*
X188958027Y-186393328D02*
X188815169Y-186321900D01*
X188815169Y-186321900D02*
X188743741Y-186179042D01*
X188743741Y-186179042D02*
X188743741Y-185607614D01*
X188743741Y-185607614D02*
X188815169Y-185464757D01*
X188815169Y-185464757D02*
X188958027Y-185393328D01*
X188958027Y-185393328D02*
X189243741Y-185393328D01*
X189243741Y-185393328D02*
X189386598Y-185464757D01*
X189386598Y-185464757D02*
X189458027Y-185607614D01*
X189458027Y-185607614D02*
X189458027Y-185750471D01*
X189458027Y-185750471D02*
X188743741Y-185893328D01*
X190100883Y-186393328D02*
X190100883Y-185393328D01*
X190100883Y-185679042D02*
X190172312Y-185536185D01*
X190172312Y-185536185D02*
X190243741Y-185464757D01*
X190243741Y-185464757D02*
X190386598Y-185393328D01*
X190386598Y-185393328D02*
X190529455Y-185393328D01*
X192100883Y-186321900D02*
X192315169Y-186393328D01*
X192315169Y-186393328D02*
X192672311Y-186393328D01*
X192672311Y-186393328D02*
X192815169Y-186321900D01*
X192815169Y-186321900D02*
X192886597Y-186250471D01*
X192886597Y-186250471D02*
X192958026Y-186107614D01*
X192958026Y-186107614D02*
X192958026Y-185964757D01*
X192958026Y-185964757D02*
X192886597Y-185821900D01*
X192886597Y-185821900D02*
X192815169Y-185750471D01*
X192815169Y-185750471D02*
X192672311Y-185679042D01*
X192672311Y-185679042D02*
X192386597Y-185607614D01*
X192386597Y-185607614D02*
X192243740Y-185536185D01*
X192243740Y-185536185D02*
X192172311Y-185464757D01*
X192172311Y-185464757D02*
X192100883Y-185321900D01*
X192100883Y-185321900D02*
X192100883Y-185179042D01*
X192100883Y-185179042D02*
X192172311Y-185036185D01*
X192172311Y-185036185D02*
X192243740Y-184964757D01*
X192243740Y-184964757D02*
X192386597Y-184893328D01*
X192386597Y-184893328D02*
X192743740Y-184893328D01*
X192743740Y-184893328D02*
X192958026Y-184964757D01*
X194243740Y-186321900D02*
X194100882Y-186393328D01*
X194100882Y-186393328D02*
X193815168Y-186393328D01*
X193815168Y-186393328D02*
X193672311Y-186321900D01*
X193672311Y-186321900D02*
X193600882Y-186250471D01*
X193600882Y-186250471D02*
X193529454Y-186107614D01*
X193529454Y-186107614D02*
X193529454Y-185679042D01*
X193529454Y-185679042D02*
X193600882Y-185536185D01*
X193600882Y-185536185D02*
X193672311Y-185464757D01*
X193672311Y-185464757D02*
X193815168Y-185393328D01*
X193815168Y-185393328D02*
X194100882Y-185393328D01*
X194100882Y-185393328D02*
X194243740Y-185464757D01*
X194886596Y-186393328D02*
X194886596Y-184893328D01*
X195529454Y-186393328D02*
X195529454Y-185607614D01*
X195529454Y-185607614D02*
X195458025Y-185464757D01*
X195458025Y-185464757D02*
X195315168Y-185393328D01*
X195315168Y-185393328D02*
X195100882Y-185393328D01*
X195100882Y-185393328D02*
X194958025Y-185464757D01*
X194958025Y-185464757D02*
X194886596Y-185536185D01*
X196815168Y-186321900D02*
X196672311Y-186393328D01*
X196672311Y-186393328D02*
X196386597Y-186393328D01*
X196386597Y-186393328D02*
X196243739Y-186321900D01*
X196243739Y-186321900D02*
X196172311Y-186179042D01*
X196172311Y-186179042D02*
X196172311Y-185607614D01*
X196172311Y-185607614D02*
X196243739Y-185464757D01*
X196243739Y-185464757D02*
X196386597Y-185393328D01*
X196386597Y-185393328D02*
X196672311Y-185393328D01*
X196672311Y-185393328D02*
X196815168Y-185464757D01*
X196815168Y-185464757D02*
X196886597Y-185607614D01*
X196886597Y-185607614D02*
X196886597Y-185750471D01*
X196886597Y-185750471D02*
X196172311Y-185893328D01*
X198172311Y-186393328D02*
X198172311Y-184893328D01*
X198172311Y-186321900D02*
X198029453Y-186393328D01*
X198029453Y-186393328D02*
X197743739Y-186393328D01*
X197743739Y-186393328D02*
X197600882Y-186321900D01*
X197600882Y-186321900D02*
X197529453Y-186250471D01*
X197529453Y-186250471D02*
X197458025Y-186107614D01*
X197458025Y-186107614D02*
X197458025Y-185679042D01*
X197458025Y-185679042D02*
X197529453Y-185536185D01*
X197529453Y-185536185D02*
X197600882Y-185464757D01*
X197600882Y-185464757D02*
X197743739Y-185393328D01*
X197743739Y-185393328D02*
X198029453Y-185393328D01*
X198029453Y-185393328D02*
X198172311Y-185464757D01*
X199529454Y-185393328D02*
X199529454Y-186393328D01*
X198886596Y-185393328D02*
X198886596Y-186179042D01*
X198886596Y-186179042D02*
X198958025Y-186321900D01*
X198958025Y-186321900D02*
X199100882Y-186393328D01*
X199100882Y-186393328D02*
X199315168Y-186393328D01*
X199315168Y-186393328D02*
X199458025Y-186321900D01*
X199458025Y-186321900D02*
X199529454Y-186250471D01*
X200458025Y-186393328D02*
X200315168Y-186321900D01*
X200315168Y-186321900D02*
X200243739Y-186179042D01*
X200243739Y-186179042D02*
X200243739Y-184893328D01*
X201600882Y-186321900D02*
X201458025Y-186393328D01*
X201458025Y-186393328D02*
X201172311Y-186393328D01*
X201172311Y-186393328D02*
X201029453Y-186321900D01*
X201029453Y-186321900D02*
X200958025Y-186179042D01*
X200958025Y-186179042D02*
X200958025Y-185607614D01*
X200958025Y-185607614D02*
X201029453Y-185464757D01*
X201029453Y-185464757D02*
X201172311Y-185393328D01*
X201172311Y-185393328D02*
X201458025Y-185393328D01*
X201458025Y-185393328D02*
X201600882Y-185464757D01*
X201600882Y-185464757D02*
X201672311Y-185607614D01*
X201672311Y-185607614D02*
X201672311Y-185750471D01*
X201672311Y-185750471D02*
X200958025Y-185893328D01*
X202315167Y-186393328D02*
X202315167Y-185393328D01*
X202315167Y-185679042D02*
X202386596Y-185536185D01*
X202386596Y-185536185D02*
X202458025Y-185464757D01*
X202458025Y-185464757D02*
X202600882Y-185393328D01*
X202600882Y-185393328D02*
X202743739Y-185393328D01*
X202886596Y-186536185D02*
X204029453Y-186536185D01*
X204315167Y-185036185D02*
X204386595Y-184964757D01*
X204386595Y-184964757D02*
X204529453Y-184893328D01*
X204529453Y-184893328D02*
X204886595Y-184893328D01*
X204886595Y-184893328D02*
X205029453Y-184964757D01*
X205029453Y-184964757D02*
X205100881Y-185036185D01*
X205100881Y-185036185D02*
X205172310Y-185179042D01*
X205172310Y-185179042D02*
X205172310Y-185321900D01*
X205172310Y-185321900D02*
X205100881Y-185536185D01*
X205100881Y-185536185D02*
X204243738Y-186393328D01*
X204243738Y-186393328D02*
X205172310Y-186393328D01*
X206100881Y-184893328D02*
X206243738Y-184893328D01*
X206243738Y-184893328D02*
X206386595Y-184964757D01*
X206386595Y-184964757D02*
X206458024Y-185036185D01*
X206458024Y-185036185D02*
X206529452Y-185179042D01*
X206529452Y-185179042D02*
X206600881Y-185464757D01*
X206600881Y-185464757D02*
X206600881Y-185821900D01*
X206600881Y-185821900D02*
X206529452Y-186107614D01*
X206529452Y-186107614D02*
X206458024Y-186250471D01*
X206458024Y-186250471D02*
X206386595Y-186321900D01*
X206386595Y-186321900D02*
X206243738Y-186393328D01*
X206243738Y-186393328D02*
X206100881Y-186393328D01*
X206100881Y-186393328D02*
X205958024Y-186321900D01*
X205958024Y-186321900D02*
X205886595Y-186250471D01*
X205886595Y-186250471D02*
X205815166Y-186107614D01*
X205815166Y-186107614D02*
X205743738Y-185821900D01*
X205743738Y-185821900D02*
X205743738Y-185464757D01*
X205743738Y-185464757D02*
X205815166Y-185179042D01*
X205815166Y-185179042D02*
X205886595Y-185036185D01*
X205886595Y-185036185D02*
X205958024Y-184964757D01*
X205958024Y-184964757D02*
X206100881Y-184893328D01*
X207100880Y-186393328D02*
X207886595Y-185393328D01*
X207100880Y-185393328D02*
X207886595Y-186393328D01*
X209100881Y-185393328D02*
X209100881Y-186393328D01*
X208743738Y-184821900D02*
X208386595Y-185893328D01*
X208386595Y-185893328D02*
X209315166Y-185893328D01*
X209958023Y-186393328D02*
X210243737Y-186393328D01*
X210243737Y-186393328D02*
X210386594Y-186321900D01*
X210386594Y-186321900D02*
X210458023Y-186250471D01*
X210458023Y-186250471D02*
X210600880Y-186036185D01*
X210600880Y-186036185D02*
X210672309Y-185750471D01*
X210672309Y-185750471D02*
X210672309Y-185179042D01*
X210672309Y-185179042D02*
X210600880Y-185036185D01*
X210600880Y-185036185D02*
X210529452Y-184964757D01*
X210529452Y-184964757D02*
X210386594Y-184893328D01*
X210386594Y-184893328D02*
X210100880Y-184893328D01*
X210100880Y-184893328D02*
X209958023Y-184964757D01*
X209958023Y-184964757D02*
X209886594Y-185036185D01*
X209886594Y-185036185D02*
X209815166Y-185179042D01*
X209815166Y-185179042D02*
X209815166Y-185536185D01*
X209815166Y-185536185D02*
X209886594Y-185679042D01*
X209886594Y-185679042D02*
X209958023Y-185750471D01*
X209958023Y-185750471D02*
X210100880Y-185821900D01*
X210100880Y-185821900D02*
X210386594Y-185821900D01*
X210386594Y-185821900D02*
X210529452Y-185750471D01*
X210529452Y-185750471D02*
X210600880Y-185679042D01*
X210600880Y-185679042D02*
X210672309Y-185536185D01*
X211172308Y-186393328D02*
X211958023Y-185393328D01*
X211172308Y-185393328D02*
X211958023Y-186393328D01*
X213315166Y-186393328D02*
X212458023Y-186393328D01*
X212886594Y-186393328D02*
X212886594Y-184893328D01*
X212886594Y-184893328D02*
X212743737Y-185107614D01*
X212743737Y-185107614D02*
X212600880Y-185250471D01*
X212600880Y-185250471D02*
X212458023Y-185321900D01*
X214029451Y-186321900D02*
X214029451Y-186393328D01*
X214029451Y-186393328D02*
X213958022Y-186536185D01*
X213958022Y-186536185D02*
X213886594Y-186607614D01*
X215315166Y-184893328D02*
X215029451Y-184893328D01*
X215029451Y-184893328D02*
X214886594Y-184964757D01*
X214886594Y-184964757D02*
X214815166Y-185036185D01*
X214815166Y-185036185D02*
X214672308Y-185250471D01*
X214672308Y-185250471D02*
X214600880Y-185536185D01*
X214600880Y-185536185D02*
X214600880Y-186107614D01*
X214600880Y-186107614D02*
X214672308Y-186250471D01*
X214672308Y-186250471D02*
X214743737Y-186321900D01*
X214743737Y-186321900D02*
X214886594Y-186393328D01*
X214886594Y-186393328D02*
X215172308Y-186393328D01*
X215172308Y-186393328D02*
X215315166Y-186321900D01*
X215315166Y-186321900D02*
X215386594Y-186250471D01*
X215386594Y-186250471D02*
X215458023Y-186107614D01*
X215458023Y-186107614D02*
X215458023Y-185750471D01*
X215458023Y-185750471D02*
X215386594Y-185607614D01*
X215386594Y-185607614D02*
X215315166Y-185536185D01*
X215315166Y-185536185D02*
X215172308Y-185464757D01*
X215172308Y-185464757D02*
X214886594Y-185464757D01*
X214886594Y-185464757D02*
X214743737Y-185536185D01*
X214743737Y-185536185D02*
X214672308Y-185607614D01*
X214672308Y-185607614D02*
X214600880Y-185750471D01*
X215743737Y-186536185D02*
X216886594Y-186536185D01*
X217243736Y-186393328D02*
X217243736Y-185393328D01*
X217243736Y-185536185D02*
X217315165Y-185464757D01*
X217315165Y-185464757D02*
X217458022Y-185393328D01*
X217458022Y-185393328D02*
X217672308Y-185393328D01*
X217672308Y-185393328D02*
X217815165Y-185464757D01*
X217815165Y-185464757D02*
X217886594Y-185607614D01*
X217886594Y-185607614D02*
X217886594Y-186393328D01*
X217886594Y-185607614D02*
X217958022Y-185464757D01*
X217958022Y-185464757D02*
X218100879Y-185393328D01*
X218100879Y-185393328D02*
X218315165Y-185393328D01*
X218315165Y-185393328D02*
X218458022Y-185464757D01*
X218458022Y-185464757D02*
X218529451Y-185607614D01*
X218529451Y-185607614D02*
X218529451Y-186393328D01*
X219243736Y-186393328D02*
X219243736Y-185393328D01*
X219243736Y-185536185D02*
X219315165Y-185464757D01*
X219315165Y-185464757D02*
X219458022Y-185393328D01*
X219458022Y-185393328D02*
X219672308Y-185393328D01*
X219672308Y-185393328D02*
X219815165Y-185464757D01*
X219815165Y-185464757D02*
X219886594Y-185607614D01*
X219886594Y-185607614D02*
X219886594Y-186393328D01*
X219886594Y-185607614D02*
X219958022Y-185464757D01*
X219958022Y-185464757D02*
X220100879Y-185393328D01*
X220100879Y-185393328D02*
X220315165Y-185393328D01*
X220315165Y-185393328D02*
X220458022Y-185464757D01*
X220458022Y-185464757D02*
X220529451Y-185607614D01*
X220529451Y-185607614D02*
X220529451Y-186393328D01*
X221243736Y-186250471D02*
X221315165Y-186321900D01*
X221315165Y-186321900D02*
X221243736Y-186393328D01*
X221243736Y-186393328D02*
X221172308Y-186321900D01*
X221172308Y-186321900D02*
X221243736Y-186250471D01*
X221243736Y-186250471D02*
X221243736Y-186393328D01*
X221958022Y-186393328D02*
X221958022Y-184893328D01*
X222100880Y-185821900D02*
X222529451Y-186393328D01*
X222529451Y-185393328D02*
X221958022Y-185964757D01*
X223172308Y-186393328D02*
X223172308Y-185393328D01*
X223172308Y-184893328D02*
X223100880Y-184964757D01*
X223100880Y-184964757D02*
X223172308Y-185036185D01*
X223172308Y-185036185D02*
X223243737Y-184964757D01*
X223243737Y-184964757D02*
X223172308Y-184893328D01*
X223172308Y-184893328D02*
X223172308Y-185036185D01*
X224529452Y-186321900D02*
X224386594Y-186393328D01*
X224386594Y-186393328D02*
X224100880Y-186393328D01*
X224100880Y-186393328D02*
X223958023Y-186321900D01*
X223958023Y-186321900D02*
X223886594Y-186250471D01*
X223886594Y-186250471D02*
X223815166Y-186107614D01*
X223815166Y-186107614D02*
X223815166Y-185679042D01*
X223815166Y-185679042D02*
X223886594Y-185536185D01*
X223886594Y-185536185D02*
X223958023Y-185464757D01*
X223958023Y-185464757D02*
X224100880Y-185393328D01*
X224100880Y-185393328D02*
X224386594Y-185393328D01*
X224386594Y-185393328D02*
X224529452Y-185464757D01*
X225815166Y-186393328D02*
X225815166Y-185607614D01*
X225815166Y-185607614D02*
X225743737Y-185464757D01*
X225743737Y-185464757D02*
X225600880Y-185393328D01*
X225600880Y-185393328D02*
X225315166Y-185393328D01*
X225315166Y-185393328D02*
X225172308Y-185464757D01*
X225815166Y-186321900D02*
X225672308Y-186393328D01*
X225672308Y-186393328D02*
X225315166Y-186393328D01*
X225315166Y-186393328D02*
X225172308Y-186321900D01*
X225172308Y-186321900D02*
X225100880Y-186179042D01*
X225100880Y-186179042D02*
X225100880Y-186036185D01*
X225100880Y-186036185D02*
X225172308Y-185893328D01*
X225172308Y-185893328D02*
X225315166Y-185821900D01*
X225315166Y-185821900D02*
X225672308Y-185821900D01*
X225672308Y-185821900D02*
X225815166Y-185750471D01*
X227172309Y-186393328D02*
X227172309Y-184893328D01*
X227172309Y-186321900D02*
X227029451Y-186393328D01*
X227029451Y-186393328D02*
X226743737Y-186393328D01*
X226743737Y-186393328D02*
X226600880Y-186321900D01*
X226600880Y-186321900D02*
X226529451Y-186250471D01*
X226529451Y-186250471D02*
X226458023Y-186107614D01*
X226458023Y-186107614D02*
X226458023Y-185679042D01*
X226458023Y-185679042D02*
X226529451Y-185536185D01*
X226529451Y-185536185D02*
X226600880Y-185464757D01*
X226600880Y-185464757D02*
X226743737Y-185393328D01*
X226743737Y-185393328D02*
X227029451Y-185393328D01*
X227029451Y-185393328D02*
X227172309Y-185464757D01*
X227529452Y-186536185D02*
X228672309Y-186536185D01*
X229029451Y-185393328D02*
X229029451Y-186893328D01*
X229029451Y-185464757D02*
X229172309Y-185393328D01*
X229172309Y-185393328D02*
X229458023Y-185393328D01*
X229458023Y-185393328D02*
X229600880Y-185464757D01*
X229600880Y-185464757D02*
X229672309Y-185536185D01*
X229672309Y-185536185D02*
X229743737Y-185679042D01*
X229743737Y-185679042D02*
X229743737Y-186107614D01*
X229743737Y-186107614D02*
X229672309Y-186250471D01*
X229672309Y-186250471D02*
X229600880Y-186321900D01*
X229600880Y-186321900D02*
X229458023Y-186393328D01*
X229458023Y-186393328D02*
X229172309Y-186393328D01*
X229172309Y-186393328D02*
X229029451Y-186321900D01*
X231029452Y-186321900D02*
X230886594Y-186393328D01*
X230886594Y-186393328D02*
X230600880Y-186393328D01*
X230600880Y-186393328D02*
X230458023Y-186321900D01*
X230458023Y-186321900D02*
X230386594Y-186250471D01*
X230386594Y-186250471D02*
X230315166Y-186107614D01*
X230315166Y-186107614D02*
X230315166Y-185679042D01*
X230315166Y-185679042D02*
X230386594Y-185536185D01*
X230386594Y-185536185D02*
X230458023Y-185464757D01*
X230458023Y-185464757D02*
X230600880Y-185393328D01*
X230600880Y-185393328D02*
X230886594Y-185393328D01*
X230886594Y-185393328D02*
X231029452Y-185464757D01*
X231672308Y-186393328D02*
X231672308Y-184893328D01*
X231672308Y-185464757D02*
X231815166Y-185393328D01*
X231815166Y-185393328D02*
X232100880Y-185393328D01*
X232100880Y-185393328D02*
X232243737Y-185464757D01*
X232243737Y-185464757D02*
X232315166Y-185536185D01*
X232315166Y-185536185D02*
X232386594Y-185679042D01*
X232386594Y-185679042D02*
X232386594Y-186107614D01*
X232386594Y-186107614D02*
X232315166Y-186250471D01*
X232315166Y-186250471D02*
X232243737Y-186321900D01*
X232243737Y-186321900D02*
X232100880Y-186393328D01*
X232100880Y-186393328D02*
X231815166Y-186393328D01*
X231815166Y-186393328D02*
X231672308Y-186321900D01*
D10*
D11*
X177002200Y-181507200D02*
X285002200Y-181507200D01*
D10*
D11*
X178386598Y-183621900D02*
X178600884Y-183693328D01*
X178600884Y-183693328D02*
X178958026Y-183693328D01*
X178958026Y-183693328D02*
X179100884Y-183621900D01*
X179100884Y-183621900D02*
X179172312Y-183550471D01*
X179172312Y-183550471D02*
X179243741Y-183407614D01*
X179243741Y-183407614D02*
X179243741Y-183264757D01*
X179243741Y-183264757D02*
X179172312Y-183121900D01*
X179172312Y-183121900D02*
X179100884Y-183050471D01*
X179100884Y-183050471D02*
X178958026Y-182979042D01*
X178958026Y-182979042D02*
X178672312Y-182907614D01*
X178672312Y-182907614D02*
X178529455Y-182836185D01*
X178529455Y-182836185D02*
X178458026Y-182764757D01*
X178458026Y-182764757D02*
X178386598Y-182621900D01*
X178386598Y-182621900D02*
X178386598Y-182479042D01*
X178386598Y-182479042D02*
X178458026Y-182336185D01*
X178458026Y-182336185D02*
X178529455Y-182264757D01*
X178529455Y-182264757D02*
X178672312Y-182193328D01*
X178672312Y-182193328D02*
X179029455Y-182193328D01*
X179029455Y-182193328D02*
X179243741Y-182264757D01*
X179886597Y-183693328D02*
X179886597Y-182193328D01*
X180529455Y-183693328D02*
X180529455Y-182907614D01*
X180529455Y-182907614D02*
X180458026Y-182764757D01*
X180458026Y-182764757D02*
X180315169Y-182693328D01*
X180315169Y-182693328D02*
X180100883Y-182693328D01*
X180100883Y-182693328D02*
X179958026Y-182764757D01*
X179958026Y-182764757D02*
X179886597Y-182836185D01*
X181815169Y-183621900D02*
X181672312Y-183693328D01*
X181672312Y-183693328D02*
X181386598Y-183693328D01*
X181386598Y-183693328D02*
X181243740Y-183621900D01*
X181243740Y-183621900D02*
X181172312Y-183479042D01*
X181172312Y-183479042D02*
X181172312Y-182907614D01*
X181172312Y-182907614D02*
X181243740Y-182764757D01*
X181243740Y-182764757D02*
X181386598Y-182693328D01*
X181386598Y-182693328D02*
X181672312Y-182693328D01*
X181672312Y-182693328D02*
X181815169Y-182764757D01*
X181815169Y-182764757D02*
X181886598Y-182907614D01*
X181886598Y-182907614D02*
X181886598Y-183050471D01*
X181886598Y-183050471D02*
X181172312Y-183193328D01*
X183100883Y-183621900D02*
X182958026Y-183693328D01*
X182958026Y-183693328D02*
X182672312Y-183693328D01*
X182672312Y-183693328D02*
X182529454Y-183621900D01*
X182529454Y-183621900D02*
X182458026Y-183479042D01*
X182458026Y-183479042D02*
X182458026Y-182907614D01*
X182458026Y-182907614D02*
X182529454Y-182764757D01*
X182529454Y-182764757D02*
X182672312Y-182693328D01*
X182672312Y-182693328D02*
X182958026Y-182693328D01*
X182958026Y-182693328D02*
X183100883Y-182764757D01*
X183100883Y-182764757D02*
X183172312Y-182907614D01*
X183172312Y-182907614D02*
X183172312Y-183050471D01*
X183172312Y-183050471D02*
X182458026Y-183193328D01*
X183600883Y-182693328D02*
X184172311Y-182693328D01*
X183815168Y-182193328D02*
X183815168Y-183479042D01*
X183815168Y-183479042D02*
X183886597Y-183621900D01*
X183886597Y-183621900D02*
X184029454Y-183693328D01*
X184029454Y-183693328D02*
X184172311Y-183693328D01*
X184672311Y-183550471D02*
X184743740Y-183621900D01*
X184743740Y-183621900D02*
X184672311Y-183693328D01*
X184672311Y-183693328D02*
X184600883Y-183621900D01*
X184600883Y-183621900D02*
X184672311Y-183550471D01*
X184672311Y-183550471D02*
X184672311Y-183693328D01*
X184672311Y-182764757D02*
X184743740Y-182836185D01*
X184743740Y-182836185D02*
X184672311Y-182907614D01*
X184672311Y-182907614D02*
X184600883Y-182836185D01*
X184600883Y-182836185D02*
X184672311Y-182764757D01*
X184672311Y-182764757D02*
X184672311Y-182907614D01*
D10*
D12*
X178485282Y-180256957D02*
X179199568Y-180256957D01*
X178342425Y-180685528D02*
X178842425Y-179185528D01*
X178842425Y-179185528D02*
X179342425Y-180685528D01*
X180413853Y-180614100D02*
X180270996Y-180685528D01*
X180270996Y-180685528D02*
X179985282Y-180685528D01*
X179985282Y-180685528D02*
X179842424Y-180614100D01*
X179842424Y-180614100D02*
X179770996Y-180471242D01*
X179770996Y-180471242D02*
X179770996Y-179899814D01*
X179770996Y-179899814D02*
X179842424Y-179756957D01*
X179842424Y-179756957D02*
X179985282Y-179685528D01*
X179985282Y-179685528D02*
X180270996Y-179685528D01*
X180270996Y-179685528D02*
X180413853Y-179756957D01*
X180413853Y-179756957D02*
X180485282Y-179899814D01*
X180485282Y-179899814D02*
X180485282Y-180042671D01*
X180485282Y-180042671D02*
X179770996Y-180185528D01*
X181342424Y-180685528D02*
X181199567Y-180614100D01*
X181199567Y-180614100D02*
X181128138Y-180542671D01*
X181128138Y-180542671D02*
X181056710Y-180399814D01*
X181056710Y-180399814D02*
X181056710Y-179971242D01*
X181056710Y-179971242D02*
X181128138Y-179828385D01*
X181128138Y-179828385D02*
X181199567Y-179756957D01*
X181199567Y-179756957D02*
X181342424Y-179685528D01*
X181342424Y-179685528D02*
X181556710Y-179685528D01*
X181556710Y-179685528D02*
X181699567Y-179756957D01*
X181699567Y-179756957D02*
X181770996Y-179828385D01*
X181770996Y-179828385D02*
X181842424Y-179971242D01*
X181842424Y-179971242D02*
X181842424Y-180399814D01*
X181842424Y-180399814D02*
X181770996Y-180542671D01*
X181770996Y-180542671D02*
X181699567Y-180614100D01*
X181699567Y-180614100D02*
X181556710Y-180685528D01*
X181556710Y-180685528D02*
X181342424Y-180685528D01*
X182485281Y-179685528D02*
X182485281Y-180685528D01*
X182485281Y-179828385D02*
X182556710Y-179756957D01*
X182556710Y-179756957D02*
X182699567Y-179685528D01*
X182699567Y-179685528D02*
X182913853Y-179685528D01*
X182913853Y-179685528D02*
X183056710Y-179756957D01*
X183056710Y-179756957D02*
X183128139Y-179899814D01*
X183128139Y-179899814D02*
X183128139Y-180685528D01*
X184556710Y-180685528D02*
X183842424Y-180685528D01*
X183842424Y-180685528D02*
X183842424Y-179185528D01*
X185699568Y-180685528D02*
X185699568Y-179899814D01*
X185699568Y-179899814D02*
X185628139Y-179756957D01*
X185628139Y-179756957D02*
X185485282Y-179685528D01*
X185485282Y-179685528D02*
X185199568Y-179685528D01*
X185199568Y-179685528D02*
X185056710Y-179756957D01*
X185699568Y-180614100D02*
X185556710Y-180685528D01*
X185556710Y-180685528D02*
X185199568Y-180685528D01*
X185199568Y-180685528D02*
X185056710Y-180614100D01*
X185056710Y-180614100D02*
X184985282Y-180471242D01*
X184985282Y-180471242D02*
X184985282Y-180328385D01*
X184985282Y-180328385D02*
X185056710Y-180185528D01*
X185056710Y-180185528D02*
X185199568Y-180114100D01*
X185199568Y-180114100D02*
X185556710Y-180114100D01*
X185556710Y-180114100D02*
X185699568Y-180042671D01*
X186413853Y-180685528D02*
X186413853Y-179185528D01*
X186413853Y-179756957D02*
X186556711Y-179685528D01*
X186556711Y-179685528D02*
X186842425Y-179685528D01*
X186842425Y-179685528D02*
X186985282Y-179756957D01*
X186985282Y-179756957D02*
X187056711Y-179828385D01*
X187056711Y-179828385D02*
X187128139Y-179971242D01*
X187128139Y-179971242D02*
X187128139Y-180399814D01*
X187128139Y-180399814D02*
X187056711Y-180542671D01*
X187056711Y-180542671D02*
X186985282Y-180614100D01*
X186985282Y-180614100D02*
X186842425Y-180685528D01*
X186842425Y-180685528D02*
X186556711Y-180685528D01*
X186556711Y-180685528D02*
X186413853Y-180614100D01*
X187699568Y-180614100D02*
X187842425Y-180685528D01*
X187842425Y-180685528D02*
X188128139Y-180685528D01*
X188128139Y-180685528D02*
X188270996Y-180614100D01*
X188270996Y-180614100D02*
X188342425Y-180471242D01*
X188342425Y-180471242D02*
X188342425Y-180399814D01*
X188342425Y-180399814D02*
X188270996Y-180256957D01*
X188270996Y-180256957D02*
X188128139Y-180185528D01*
X188128139Y-180185528D02*
X187913854Y-180185528D01*
X187913854Y-180185528D02*
X187770996Y-180114100D01*
X187770996Y-180114100D02*
X187699568Y-179971242D01*
X187699568Y-179971242D02*
X187699568Y-179899814D01*
X187699568Y-179899814D02*
X187770996Y-179756957D01*
X187770996Y-179756957D02*
X187913854Y-179685528D01*
X187913854Y-179685528D02*
X188128139Y-179685528D01*
X188128139Y-179685528D02*
X188270996Y-179756957D01*
D10*
D11*
D10*
D11*
D10*
D11*
D10*
D11*
D10*
D11*
X197002200Y-191507200D02*
X197002200Y-194507200D01*
D10*
D11*
X261002200Y-191507200D02*
X261002200Y-198007200D01*
D14*
X117709998Y-111745300D02*
X117838570Y-111788157D01*
X117838570Y-111788157D02*
X118052855Y-111788157D01*
X118052855Y-111788157D02*
X118138570Y-111745300D01*
X118138570Y-111745300D02*
X118181427Y-111702442D01*
X118181427Y-111702442D02*
X118224284Y-111616728D01*
X118224284Y-111616728D02*
X118224284Y-111531014D01*
X118224284Y-111531014D02*
X118181427Y-111445300D01*
X118181427Y-111445300D02*
X118138570Y-111402442D01*
X118138570Y-111402442D02*
X118052855Y-111359585D01*
X118052855Y-111359585D02*
X117881427Y-111316728D01*
X117881427Y-111316728D02*
X117795712Y-111273871D01*
X117795712Y-111273871D02*
X117752855Y-111231014D01*
X117752855Y-111231014D02*
X117709998Y-111145300D01*
X117709998Y-111145300D02*
X117709998Y-111059585D01*
X117709998Y-111059585D02*
X117752855Y-110973871D01*
X117752855Y-110973871D02*
X117795712Y-110931014D01*
X117795712Y-110931014D02*
X117881427Y-110888157D01*
X117881427Y-110888157D02*
X118095712Y-110888157D01*
X118095712Y-110888157D02*
X118224284Y-110931014D01*
X118995713Y-111745300D02*
X118909998Y-111788157D01*
X118909998Y-111788157D02*
X118738570Y-111788157D01*
X118738570Y-111788157D02*
X118652855Y-111745300D01*
X118652855Y-111745300D02*
X118609998Y-111702442D01*
X118609998Y-111702442D02*
X118567141Y-111616728D01*
X118567141Y-111616728D02*
X118567141Y-111359585D01*
X118567141Y-111359585D02*
X118609998Y-111273871D01*
X118609998Y-111273871D02*
X118652855Y-111231014D01*
X118652855Y-111231014D02*
X118738570Y-111188157D01*
X118738570Y-111188157D02*
X118909998Y-111188157D01*
X118909998Y-111188157D02*
X118995713Y-111231014D01*
X119381427Y-111788157D02*
X119381427Y-110888157D01*
X119767142Y-111788157D02*
X119767142Y-111316728D01*
X119767142Y-111316728D02*
X119724284Y-111231014D01*
X119724284Y-111231014D02*
X119638570Y-111188157D01*
X119638570Y-111188157D02*
X119509999Y-111188157D01*
X119509999Y-111188157D02*
X119424284Y-111231014D01*
X119424284Y-111231014D02*
X119381427Y-111273871D01*
X120538570Y-111745300D02*
X120452856Y-111788157D01*
X120452856Y-111788157D02*
X120281428Y-111788157D01*
X120281428Y-111788157D02*
X120195713Y-111745300D01*
X120195713Y-111745300D02*
X120152856Y-111659585D01*
X120152856Y-111659585D02*
X120152856Y-111316728D01*
X120152856Y-111316728D02*
X120195713Y-111231014D01*
X120195713Y-111231014D02*
X120281428Y-111188157D01*
X120281428Y-111188157D02*
X120452856Y-111188157D01*
X120452856Y-111188157D02*
X120538570Y-111231014D01*
X120538570Y-111231014D02*
X120581428Y-111316728D01*
X120581428Y-111316728D02*
X120581428Y-111402442D01*
X120581428Y-111402442D02*
X120152856Y-111488157D01*
X121352857Y-111788157D02*
X121352857Y-110888157D01*
X121352857Y-111745300D02*
X121267142Y-111788157D01*
X121267142Y-111788157D02*
X121095714Y-111788157D01*
X121095714Y-111788157D02*
X121009999Y-111745300D01*
X121009999Y-111745300D02*
X120967142Y-111702442D01*
X120967142Y-111702442D02*
X120924285Y-111616728D01*
X120924285Y-111616728D02*
X120924285Y-111359585D01*
X120924285Y-111359585D02*
X120967142Y-111273871D01*
X120967142Y-111273871D02*
X121009999Y-111231014D01*
X121009999Y-111231014D02*
X121095714Y-111188157D01*
X121095714Y-111188157D02*
X121267142Y-111188157D01*
X121267142Y-111188157D02*
X121352857Y-111231014D01*
X122167143Y-111188157D02*
X122167143Y-111788157D01*
X121781428Y-111188157D02*
X121781428Y-111659585D01*
X121781428Y-111659585D02*
X121824285Y-111745300D01*
X121824285Y-111745300D02*
X121910000Y-111788157D01*
X121910000Y-111788157D02*
X122038571Y-111788157D01*
X122038571Y-111788157D02*
X122124285Y-111745300D01*
X122124285Y-111745300D02*
X122167143Y-111702442D01*
X122724286Y-111788157D02*
X122638571Y-111745300D01*
X122638571Y-111745300D02*
X122595714Y-111659585D01*
X122595714Y-111659585D02*
X122595714Y-110888157D01*
X123410000Y-111745300D02*
X123324286Y-111788157D01*
X123324286Y-111788157D02*
X123152858Y-111788157D01*
X123152858Y-111788157D02*
X123067143Y-111745300D01*
X123067143Y-111745300D02*
X123024286Y-111659585D01*
X123024286Y-111659585D02*
X123024286Y-111316728D01*
X123024286Y-111316728D02*
X123067143Y-111231014D01*
X123067143Y-111231014D02*
X123152858Y-111188157D01*
X123152858Y-111188157D02*
X123324286Y-111188157D01*
X123324286Y-111188157D02*
X123410000Y-111231014D01*
X123410000Y-111231014D02*
X123452858Y-111316728D01*
X123452858Y-111316728D02*
X123452858Y-111402442D01*
X123452858Y-111402442D02*
X123024286Y-111488157D01*
X123838572Y-111788157D02*
X123838572Y-111188157D01*
X123838572Y-111359585D02*
X123881429Y-111273871D01*
X123881429Y-111273871D02*
X123924287Y-111231014D01*
X123924287Y-111231014D02*
X124010001Y-111188157D01*
X124010001Y-111188157D02*
X124095715Y-111188157D01*
X148428985Y-127314286D02*
X148471842Y-127228572D01*
X148471842Y-127228572D02*
X148471842Y-127100000D01*
X148471842Y-127100000D02*
X148428985Y-126971429D01*
X148428985Y-126971429D02*
X148343271Y-126885714D01*
X148343271Y-126885714D02*
X148257557Y-126842857D01*
X148257557Y-126842857D02*
X148086128Y-126800000D01*
X148086128Y-126800000D02*
X147957557Y-126800000D01*
X147957557Y-126800000D02*
X147786128Y-126842857D01*
X147786128Y-126842857D02*
X147700414Y-126885714D01*
X147700414Y-126885714D02*
X147614700Y-126971429D01*
X147614700Y-126971429D02*
X147571842Y-127100000D01*
X147571842Y-127100000D02*
X147571842Y-127185714D01*
X147571842Y-127185714D02*
X147614700Y-127314286D01*
X147614700Y-127314286D02*
X147657557Y-127357143D01*
X147657557Y-127357143D02*
X147957557Y-127357143D01*
X147957557Y-127357143D02*
X147957557Y-127185714D01*
X147571842Y-127742857D02*
X148471842Y-127742857D01*
X148471842Y-127742857D02*
X147571842Y-128257143D01*
X147571842Y-128257143D02*
X148471842Y-128257143D01*
X147571842Y-128685714D02*
X148471842Y-128685714D01*
X148471842Y-128685714D02*
X148471842Y-128900000D01*
X148471842Y-128900000D02*
X148428985Y-129028571D01*
X148428985Y-129028571D02*
X148343271Y-129114286D01*
X148343271Y-129114286D02*
X148257557Y-129157143D01*
X148257557Y-129157143D02*
X148086128Y-129200000D01*
X148086128Y-129200000D02*
X147957557Y-129200000D01*
X147957557Y-129200000D02*
X147786128Y-129157143D01*
X147786128Y-129157143D02*
X147700414Y-129114286D01*
X147700414Y-129114286D02*
X147614700Y-129028571D01*
X147614700Y-129028571D02*
X147571842Y-128900000D01*
X147571842Y-128900000D02*
X147571842Y-128685714D01*
X145801842Y-110490000D02*
X145801842Y-110061428D01*
X145801842Y-110061428D02*
X145373271Y-110018571D01*
X145373271Y-110018571D02*
X145416128Y-110061428D01*
X145416128Y-110061428D02*
X145458985Y-110147143D01*
X145458985Y-110147143D02*
X145458985Y-110361428D01*
X145458985Y-110361428D02*
X145416128Y-110447143D01*
X145416128Y-110447143D02*
X145373271Y-110490000D01*
X145373271Y-110490000D02*
X145287557Y-110532857D01*
X145287557Y-110532857D02*
X145073271Y-110532857D01*
X145073271Y-110532857D02*
X144987557Y-110490000D01*
X144987557Y-110490000D02*
X144944700Y-110447143D01*
X144944700Y-110447143D02*
X144901842Y-110361428D01*
X144901842Y-110361428D02*
X144901842Y-110147143D01*
X144901842Y-110147143D02*
X144944700Y-110061428D01*
X144944700Y-110061428D02*
X144987557Y-110018571D01*
X145801842Y-110790000D02*
X144901842Y-111090000D01*
X144901842Y-111090000D02*
X145801842Y-111390000D01*
X145801842Y-111861429D02*
X145801842Y-111947143D01*
X145801842Y-111947143D02*
X145758985Y-112032857D01*
X145758985Y-112032857D02*
X145716128Y-112075715D01*
X145716128Y-112075715D02*
X145630414Y-112118572D01*
X145630414Y-112118572D02*
X145458985Y-112161429D01*
X145458985Y-112161429D02*
X145244700Y-112161429D01*
X145244700Y-112161429D02*
X145073271Y-112118572D01*
X145073271Y-112118572D02*
X144987557Y-112075715D01*
X144987557Y-112075715D02*
X144944700Y-112032857D01*
X144944700Y-112032857D02*
X144901842Y-111947143D01*
X144901842Y-111947143D02*
X144901842Y-111861429D01*
X144901842Y-111861429D02*
X144944700Y-111775715D01*
X144944700Y-111775715D02*
X144987557Y-111732857D01*
X144987557Y-111732857D02*
X145073271Y-111690000D01*
X145073271Y-111690000D02*
X145244700Y-111647143D01*
X145244700Y-111647143D02*
X145458985Y-111647143D01*
X145458985Y-111647143D02*
X145630414Y-111690000D01*
X145630414Y-111690000D02*
X145716128Y-111732857D01*
X145716128Y-111732857D02*
X145758985Y-111775715D01*
X145758985Y-111775715D02*
X145801842Y-111861429D01*
X148991842Y-110015714D02*
X148991842Y-110572857D01*
X148991842Y-110572857D02*
X148648985Y-110272857D01*
X148648985Y-110272857D02*
X148648985Y-110401428D01*
X148648985Y-110401428D02*
X148606128Y-110487143D01*
X148606128Y-110487143D02*
X148563271Y-110530000D01*
X148563271Y-110530000D02*
X148477557Y-110572857D01*
X148477557Y-110572857D02*
X148263271Y-110572857D01*
X148263271Y-110572857D02*
X148177557Y-110530000D01*
X148177557Y-110530000D02*
X148134700Y-110487143D01*
X148134700Y-110487143D02*
X148091842Y-110401428D01*
X148091842Y-110401428D02*
X148091842Y-110144285D01*
X148091842Y-110144285D02*
X148134700Y-110058571D01*
X148134700Y-110058571D02*
X148177557Y-110015714D01*
X148991842Y-110830000D02*
X148091842Y-111130000D01*
X148091842Y-111130000D02*
X148991842Y-111430000D01*
X148991842Y-111644286D02*
X148991842Y-112201429D01*
X148991842Y-112201429D02*
X148648985Y-111901429D01*
X148648985Y-111901429D02*
X148648985Y-112030000D01*
X148648985Y-112030000D02*
X148606128Y-112115715D01*
X148606128Y-112115715D02*
X148563271Y-112158572D01*
X148563271Y-112158572D02*
X148477557Y-112201429D01*
X148477557Y-112201429D02*
X148263271Y-112201429D01*
X148263271Y-112201429D02*
X148177557Y-112158572D01*
X148177557Y-112158572D02*
X148134700Y-112115715D01*
X148134700Y-112115715D02*
X148091842Y-112030000D01*
X148091842Y-112030000D02*
X148091842Y-111772857D01*
X148091842Y-111772857D02*
X148134700Y-111687143D01*
X148134700Y-111687143D02*
X148177557Y-111644286D01*
D11*
X113693966Y-122070001D02*
X113693966Y-122403334D01*
X113493966Y-122003334D02*
X114193966Y-122236668D01*
X114193966Y-122236668D02*
X113493966Y-122470001D01*
X113493966Y-122703334D02*
X114193966Y-122703334D01*
X114193966Y-122703334D02*
X113493966Y-123103334D01*
X113493966Y-123103334D02*
X114193966Y-123103334D01*
X114193966Y-123336667D02*
X114193966Y-123736667D01*
X113493966Y-123536667D02*
X114193966Y-123536667D01*
X113860633Y-123970000D02*
X113860633Y-124203334D01*
X113493966Y-124303334D02*
X113493966Y-123970000D01*
X113493966Y-123970000D02*
X114193966Y-123970000D01*
X114193966Y-123970000D02*
X114193966Y-124303334D01*
X113493966Y-124603333D02*
X114193966Y-124603333D01*
X114193966Y-124603333D02*
X113493966Y-125003333D01*
X113493966Y-125003333D02*
X114193966Y-125003333D01*
X113493966Y-125336666D02*
X114193966Y-125336666D01*
X114193966Y-125336666D02*
X113493966Y-125736666D01*
X113493966Y-125736666D02*
X114193966Y-125736666D01*
X113693966Y-126036666D02*
X113693966Y-126369999D01*
X113493966Y-125969999D02*
X114193966Y-126203333D01*
X114193966Y-126203333D02*
X113493966Y-126436666D01*
D15*
X115351519Y-118036190D02*
X116084852Y-118036190D01*
X115875328Y-118036190D02*
X115980090Y-118088571D01*
X115980090Y-118088571D02*
X116032471Y-118140952D01*
X116032471Y-118140952D02*
X116084852Y-118245714D01*
X116084852Y-118245714D02*
X116084852Y-118350476D01*
X115403900Y-119136190D02*
X115351519Y-119031428D01*
X115351519Y-119031428D02*
X115351519Y-118821904D01*
X115351519Y-118821904D02*
X115403900Y-118717142D01*
X115403900Y-118717142D02*
X115508661Y-118664761D01*
X115508661Y-118664761D02*
X115927709Y-118664761D01*
X115927709Y-118664761D02*
X116032471Y-118717142D01*
X116032471Y-118717142D02*
X116084852Y-118821904D01*
X116084852Y-118821904D02*
X116084852Y-119031428D01*
X116084852Y-119031428D02*
X116032471Y-119136190D01*
X116032471Y-119136190D02*
X115927709Y-119188571D01*
X115927709Y-119188571D02*
X115822947Y-119188571D01*
X115822947Y-119188571D02*
X115718185Y-118664761D01*
X116084852Y-119555237D02*
X115351519Y-119817142D01*
X115351519Y-119817142D02*
X116084852Y-120079047D01*
X115456280Y-120498094D02*
X115403900Y-120550475D01*
X115403900Y-120550475D02*
X115351519Y-120498094D01*
X115351519Y-120498094D02*
X115403900Y-120445713D01*
X115403900Y-120445713D02*
X115456280Y-120498094D01*
X115456280Y-120498094D02*
X115351519Y-120498094D01*
X115351519Y-122436190D02*
X115351519Y-121807618D01*
X115351519Y-122121904D02*
X116451519Y-122121904D01*
X116451519Y-122121904D02*
X116294376Y-122017142D01*
X116294376Y-122017142D02*
X116189614Y-121912380D01*
X116189614Y-121912380D02*
X116137233Y-121807618D01*
X116451519Y-123117142D02*
X116451519Y-123221904D01*
X116451519Y-123221904D02*
X116399138Y-123326666D01*
X116399138Y-123326666D02*
X116346757Y-123379047D01*
X116346757Y-123379047D02*
X116241995Y-123431428D01*
X116241995Y-123431428D02*
X116032471Y-123483809D01*
X116032471Y-123483809D02*
X115770566Y-123483809D01*
X115770566Y-123483809D02*
X115561042Y-123431428D01*
X115561042Y-123431428D02*
X115456280Y-123379047D01*
X115456280Y-123379047D02*
X115403900Y-123326666D01*
X115403900Y-123326666D02*
X115351519Y-123221904D01*
X115351519Y-123221904D02*
X115351519Y-123117142D01*
X115351519Y-123117142D02*
X115403900Y-123012380D01*
X115403900Y-123012380D02*
X115456280Y-122959999D01*
X115456280Y-122959999D02*
X115561042Y-122907618D01*
X115561042Y-122907618D02*
X115770566Y-122855237D01*
X115770566Y-122855237D02*
X116032471Y-122855237D01*
X116032471Y-122855237D02*
X116241995Y-122907618D01*
X116241995Y-122907618D02*
X116346757Y-122959999D01*
X116346757Y-122959999D02*
X116399138Y-123012380D01*
X116399138Y-123012380D02*
X116451519Y-123117142D01*
X115770566Y-123955237D02*
X115770566Y-124793333D01*
X116346757Y-125264761D02*
X116399138Y-125317142D01*
X116399138Y-125317142D02*
X116451519Y-125421904D01*
X116451519Y-125421904D02*
X116451519Y-125683809D01*
X116451519Y-125683809D02*
X116399138Y-125788571D01*
X116399138Y-125788571D02*
X116346757Y-125840952D01*
X116346757Y-125840952D02*
X116241995Y-125893333D01*
X116241995Y-125893333D02*
X116137233Y-125893333D01*
X116137233Y-125893333D02*
X115980090Y-125840952D01*
X115980090Y-125840952D02*
X115351519Y-125212380D01*
X115351519Y-125212380D02*
X115351519Y-125893333D01*
X116451519Y-126574285D02*
X116451519Y-126679047D01*
X116451519Y-126679047D02*
X116399138Y-126783809D01*
X116399138Y-126783809D02*
X116346757Y-126836190D01*
X116346757Y-126836190D02*
X116241995Y-126888571D01*
X116241995Y-126888571D02*
X116032471Y-126940952D01*
X116032471Y-126940952D02*
X115770566Y-126940952D01*
X115770566Y-126940952D02*
X115561042Y-126888571D01*
X115561042Y-126888571D02*
X115456280Y-126836190D01*
X115456280Y-126836190D02*
X115403900Y-126783809D01*
X115403900Y-126783809D02*
X115351519Y-126679047D01*
X115351519Y-126679047D02*
X115351519Y-126574285D01*
X115351519Y-126574285D02*
X115403900Y-126469523D01*
X115403900Y-126469523D02*
X115456280Y-126417142D01*
X115456280Y-126417142D02*
X115561042Y-126364761D01*
X115561042Y-126364761D02*
X115770566Y-126312380D01*
X115770566Y-126312380D02*
X116032471Y-126312380D01*
X116032471Y-126312380D02*
X116241995Y-126364761D01*
X116241995Y-126364761D02*
X116346757Y-126417142D01*
X116346757Y-126417142D02*
X116399138Y-126469523D01*
X116399138Y-126469523D02*
X116451519Y-126574285D01*
X116346757Y-127359999D02*
X116399138Y-127412380D01*
X116399138Y-127412380D02*
X116451519Y-127517142D01*
X116451519Y-127517142D02*
X116451519Y-127779047D01*
X116451519Y-127779047D02*
X116399138Y-127883809D01*
X116399138Y-127883809D02*
X116346757Y-127936190D01*
X116346757Y-127936190D02*
X116241995Y-127988571D01*
X116241995Y-127988571D02*
X116137233Y-127988571D01*
X116137233Y-127988571D02*
X115980090Y-127936190D01*
X115980090Y-127936190D02*
X115351519Y-127307618D01*
X115351519Y-127307618D02*
X115351519Y-127988571D01*
X116451519Y-128355237D02*
X116451519Y-129036190D01*
X116451519Y-129036190D02*
X116032471Y-128669523D01*
X116032471Y-128669523D02*
X116032471Y-128826666D01*
X116032471Y-128826666D02*
X115980090Y-128931428D01*
X115980090Y-128931428D02*
X115927709Y-128983809D01*
X115927709Y-128983809D02*
X115822947Y-129036190D01*
X115822947Y-129036190D02*
X115561042Y-129036190D01*
X115561042Y-129036190D02*
X115456280Y-128983809D01*
X115456280Y-128983809D02*
X115403900Y-128931428D01*
X115403900Y-128931428D02*
X115351519Y-128826666D01*
X115351519Y-128826666D02*
X115351519Y-128512380D01*
X115351519Y-128512380D02*
X115403900Y-128407618D01*
X115403900Y-128407618D02*
X115456280Y-128355237D01*
D11*
X131381813Y-125429816D02*
X131381813Y-125369207D01*
X131381813Y-125369207D02*
X131412117Y-125278293D01*
X131412117Y-125278293D02*
X131563640Y-125126770D01*
X131563640Y-125126770D02*
X131654554Y-125096466D01*
X131654554Y-125096466D02*
X131715163Y-125096466D01*
X131715163Y-125096466D02*
X131806077Y-125126770D01*
X131806077Y-125126770D02*
X131866686Y-125187379D01*
X131866686Y-125187379D02*
X131927295Y-125308598D01*
X131927295Y-125308598D02*
X131927295Y-126035907D01*
X131927295Y-126035907D02*
X132321255Y-125641948D01*
X132078818Y-124611592D02*
X132139427Y-124550983D01*
X132139427Y-124550983D02*
X132230341Y-124520679D01*
X132230341Y-124520679D02*
X132290950Y-124520679D01*
X132290950Y-124520679D02*
X132381864Y-124550983D01*
X132381864Y-124550983D02*
X132533387Y-124641897D01*
X132533387Y-124641897D02*
X132684910Y-124793420D01*
X132684910Y-124793420D02*
X132775823Y-124944943D01*
X132775823Y-124944943D02*
X132806128Y-125035856D01*
X132806128Y-125035856D02*
X132806128Y-125096465D01*
X132806128Y-125096465D02*
X132775823Y-125187379D01*
X132775823Y-125187379D02*
X132715214Y-125247988D01*
X132715214Y-125247988D02*
X132624301Y-125278293D01*
X132624301Y-125278293D02*
X132563691Y-125278293D01*
X132563691Y-125278293D02*
X132472778Y-125247988D01*
X132472778Y-125247988D02*
X132321255Y-125157075D01*
X132321255Y-125157075D02*
X132169732Y-125005552D01*
X132169732Y-125005552D02*
X132078818Y-124854029D01*
X132078818Y-124854029D02*
X132048514Y-124763115D01*
X132048514Y-124763115D02*
X132048514Y-124702506D01*
X132048514Y-124702506D02*
X132078818Y-124611592D01*
X133139478Y-124823724D02*
X133048565Y-124066110D01*
X132715214Y-124399460D02*
X133472829Y-124490374D01*
X133563742Y-123550932D02*
X133988006Y-123975196D01*
X133169783Y-123460019D02*
X133472828Y-124066110D01*
X133472828Y-124066110D02*
X133866788Y-123672151D01*
X134351661Y-123611541D02*
X134472880Y-123490323D01*
X134472880Y-123490323D02*
X134503184Y-123399409D01*
X134503184Y-123399409D02*
X134503184Y-123338800D01*
X134503184Y-123338800D02*
X134472880Y-123187277D01*
X134472880Y-123187277D02*
X134381966Y-123035754D01*
X134381966Y-123035754D02*
X134139529Y-122793318D01*
X134139529Y-122793318D02*
X134048616Y-122763013D01*
X134048616Y-122763013D02*
X133988006Y-122763013D01*
X133988006Y-122763013D02*
X133897093Y-122793318D01*
X133897093Y-122793318D02*
X133775874Y-122914536D01*
X133775874Y-122914536D02*
X133745570Y-123005450D01*
X133745570Y-123005450D02*
X133745570Y-123066059D01*
X133745570Y-123066059D02*
X133775874Y-123156973D01*
X133775874Y-123156973D02*
X133927397Y-123308496D01*
X133927397Y-123308496D02*
X134018311Y-123338800D01*
X134018311Y-123338800D02*
X134078920Y-123338800D01*
X134078920Y-123338800D02*
X134169834Y-123308496D01*
X134169834Y-123308496D02*
X134291052Y-123187277D01*
X134291052Y-123187277D02*
X134321357Y-123096364D01*
X134321357Y-123096364D02*
X134321357Y-123035754D01*
X134321357Y-123035754D02*
X134291052Y-122944841D01*
X134927448Y-123035754D02*
X134503184Y-122611490D01*
X134563793Y-122672099D02*
X134563793Y-122611490D01*
X134563793Y-122611490D02*
X134594098Y-122520576D01*
X134594098Y-122520576D02*
X134685012Y-122429663D01*
X134685012Y-122429663D02*
X134775925Y-122399358D01*
X134775925Y-122399358D02*
X134866839Y-122429663D01*
X134866839Y-122429663D02*
X135200190Y-122763013D01*
X134866839Y-122429663D02*
X134836535Y-122338749D01*
X134836535Y-122338749D02*
X134866839Y-122247835D01*
X134866839Y-122247835D02*
X134957753Y-122156922D01*
X134957753Y-122156922D02*
X135048667Y-122126617D01*
X135048667Y-122126617D02*
X135139580Y-122156922D01*
X135139580Y-122156922D02*
X135472931Y-122490272D01*
X135775976Y-122187226D02*
X135351712Y-121762962D01*
X135412322Y-121823571D02*
X135412322Y-121762962D01*
X135412322Y-121762962D02*
X135442626Y-121672048D01*
X135442626Y-121672048D02*
X135533540Y-121581135D01*
X135533540Y-121581135D02*
X135624454Y-121550830D01*
X135624454Y-121550830D02*
X135715367Y-121581135D01*
X135715367Y-121581135D02*
X136048718Y-121914485D01*
X135715367Y-121581135D02*
X135685063Y-121490221D01*
X135685063Y-121490221D02*
X135715367Y-121399307D01*
X135715367Y-121399307D02*
X135806281Y-121308393D01*
X135806281Y-121308393D02*
X135897195Y-121278089D01*
X135897195Y-121278089D02*
X135988108Y-121308393D01*
X135988108Y-121308393D02*
X136321459Y-121641744D01*
D14*
X113105713Y-109648157D02*
X113105713Y-110376728D01*
X113105713Y-110376728D02*
X113148570Y-110462442D01*
X113148570Y-110462442D02*
X113191428Y-110505300D01*
X113191428Y-110505300D02*
X113277142Y-110548157D01*
X113277142Y-110548157D02*
X113448570Y-110548157D01*
X113448570Y-110548157D02*
X113534285Y-110505300D01*
X113534285Y-110505300D02*
X113577142Y-110462442D01*
X113577142Y-110462442D02*
X113619999Y-110376728D01*
X113619999Y-110376728D02*
X113619999Y-109648157D01*
X114005713Y-110505300D02*
X114134285Y-110548157D01*
X114134285Y-110548157D02*
X114348570Y-110548157D01*
X114348570Y-110548157D02*
X114434285Y-110505300D01*
X114434285Y-110505300D02*
X114477142Y-110462442D01*
X114477142Y-110462442D02*
X114519999Y-110376728D01*
X114519999Y-110376728D02*
X114519999Y-110291014D01*
X114519999Y-110291014D02*
X114477142Y-110205300D01*
X114477142Y-110205300D02*
X114434285Y-110162442D01*
X114434285Y-110162442D02*
X114348570Y-110119585D01*
X114348570Y-110119585D02*
X114177142Y-110076728D01*
X114177142Y-110076728D02*
X114091427Y-110033871D01*
X114091427Y-110033871D02*
X114048570Y-109991014D01*
X114048570Y-109991014D02*
X114005713Y-109905300D01*
X114005713Y-109905300D02*
X114005713Y-109819585D01*
X114005713Y-109819585D02*
X114048570Y-109733871D01*
X114048570Y-109733871D02*
X114091427Y-109691014D01*
X114091427Y-109691014D02*
X114177142Y-109648157D01*
X114177142Y-109648157D02*
X114391427Y-109648157D01*
X114391427Y-109648157D02*
X114519999Y-109691014D01*
X115205713Y-110076728D02*
X115334285Y-110119585D01*
X115334285Y-110119585D02*
X115377142Y-110162442D01*
X115377142Y-110162442D02*
X115419999Y-110248157D01*
X115419999Y-110248157D02*
X115419999Y-110376728D01*
X115419999Y-110376728D02*
X115377142Y-110462442D01*
X115377142Y-110462442D02*
X115334285Y-110505300D01*
X115334285Y-110505300D02*
X115248570Y-110548157D01*
X115248570Y-110548157D02*
X114905713Y-110548157D01*
X114905713Y-110548157D02*
X114905713Y-109648157D01*
X114905713Y-109648157D02*
X115205713Y-109648157D01*
X115205713Y-109648157D02*
X115291428Y-109691014D01*
X115291428Y-109691014D02*
X115334285Y-109733871D01*
X115334285Y-109733871D02*
X115377142Y-109819585D01*
X115377142Y-109819585D02*
X115377142Y-109905300D01*
X115377142Y-109905300D02*
X115334285Y-109991014D01*
X115334285Y-109991014D02*
X115291428Y-110033871D01*
X115291428Y-110033871D02*
X115205713Y-110076728D01*
X115205713Y-110076728D02*
X114905713Y-110076728D01*
X115805713Y-110205300D02*
X116491428Y-110205300D01*
X116877142Y-110291014D02*
X117305714Y-110291014D01*
X116791428Y-110548157D02*
X117091428Y-109648157D01*
X117091428Y-109648157D02*
X117391428Y-110548157D01*
X118377142Y-110548157D02*
X118377142Y-109648157D01*
X118377142Y-109648157D02*
X118719999Y-109648157D01*
X118719999Y-109648157D02*
X118805714Y-109691014D01*
X118805714Y-109691014D02*
X118848571Y-109733871D01*
X118848571Y-109733871D02*
X118891428Y-109819585D01*
X118891428Y-109819585D02*
X118891428Y-109948157D01*
X118891428Y-109948157D02*
X118848571Y-110033871D01*
X118848571Y-110033871D02*
X118805714Y-110076728D01*
X118805714Y-110076728D02*
X118719999Y-110119585D01*
X118719999Y-110119585D02*
X118377142Y-110119585D01*
X119405714Y-110548157D02*
X119319999Y-110505300D01*
X119319999Y-110505300D02*
X119277142Y-110462442D01*
X119277142Y-110462442D02*
X119234285Y-110376728D01*
X119234285Y-110376728D02*
X119234285Y-110119585D01*
X119234285Y-110119585D02*
X119277142Y-110033871D01*
X119277142Y-110033871D02*
X119319999Y-109991014D01*
X119319999Y-109991014D02*
X119405714Y-109948157D01*
X119405714Y-109948157D02*
X119534285Y-109948157D01*
X119534285Y-109948157D02*
X119619999Y-109991014D01*
X119619999Y-109991014D02*
X119662857Y-110033871D01*
X119662857Y-110033871D02*
X119705714Y-110119585D01*
X119705714Y-110119585D02*
X119705714Y-110376728D01*
X119705714Y-110376728D02*
X119662857Y-110462442D01*
X119662857Y-110462442D02*
X119619999Y-110505300D01*
X119619999Y-110505300D02*
X119534285Y-110548157D01*
X119534285Y-110548157D02*
X119405714Y-110548157D01*
X120005714Y-109948157D02*
X120177143Y-110548157D01*
X120177143Y-110548157D02*
X120348571Y-110119585D01*
X120348571Y-110119585D02*
X120520000Y-110548157D01*
X120520000Y-110548157D02*
X120691428Y-109948157D01*
X121377142Y-110505300D02*
X121291428Y-110548157D01*
X121291428Y-110548157D02*
X121120000Y-110548157D01*
X121120000Y-110548157D02*
X121034285Y-110505300D01*
X121034285Y-110505300D02*
X120991428Y-110419585D01*
X120991428Y-110419585D02*
X120991428Y-110076728D01*
X120991428Y-110076728D02*
X121034285Y-109991014D01*
X121034285Y-109991014D02*
X121120000Y-109948157D01*
X121120000Y-109948157D02*
X121291428Y-109948157D01*
X121291428Y-109948157D02*
X121377142Y-109991014D01*
X121377142Y-109991014D02*
X121420000Y-110076728D01*
X121420000Y-110076728D02*
X121420000Y-110162442D01*
X121420000Y-110162442D02*
X120991428Y-110248157D01*
X121805714Y-110548157D02*
X121805714Y-109948157D01*
X121805714Y-110119585D02*
X121848571Y-110033871D01*
X121848571Y-110033871D02*
X121891429Y-109991014D01*
X121891429Y-109991014D02*
X121977143Y-109948157D01*
X121977143Y-109948157D02*
X122062857Y-109948157D01*
D16*
G04 #@! TO.C,EC1*
X124850000Y-124684420D02*
X124850000Y-124965580D01*
X125870000Y-124684420D02*
X125870000Y-124965580D01*
D17*
G04 #@! TO.C,AU1*
X138995000Y-116580000D02*
X139375000Y-116580000D01*
X138995000Y-116600000D02*
X138995000Y-116580000D01*
X138995000Y-119580000D02*
X138995000Y-119560000D01*
X139375000Y-119580000D02*
X138995000Y-119580000D01*
X141615000Y-116580000D02*
X141995000Y-116580000D01*
X141995000Y-116580000D02*
X141995000Y-116600000D01*
X141995000Y-119580000D02*
X141615000Y-119580000D01*
X141995000Y-119580000D02*
X141995000Y-119560000D01*
D15*
X137940000Y-117130000D02*
G75*
G03*
X137940000Y-117130000I-100000J0D01*
G01*
D16*
G04 #@! TO.C,F1*
X139437936Y-111900000D02*
X140642064Y-111900000D01*
X139437936Y-110080000D02*
X140642064Y-110080000D01*
D17*
G04 #@! TO.C,U1*
X141730000Y-128035000D02*
X141730000Y-125035000D01*
X143730000Y-128035000D02*
X143730000Y-125035000D01*
D10*
X141880000Y-128935000D02*
G75*
G03*
X141880000Y-128935000I-50000J0D01*
G01*
D15*
G04 #@! TO.C,P1*
X107980000Y-112890000D02*
X107980000Y-125990000D01*
X105680000Y-112890000D02*
X107980000Y-112890000D01*
X102680000Y-112890000D02*
X93880000Y-112890000D01*
X93880000Y-112890000D02*
X93880000Y-125990000D01*
X107980000Y-125990000D02*
X105680000Y-125990000D01*
X93880000Y-125990000D02*
X102680000Y-125990000D01*
D17*
G04 #@! TO.C,J1*
X149770000Y-125460000D02*
X150520000Y-125460000D01*
X150520000Y-125460000D02*
X165570000Y-125460000D01*
X150520000Y-125460000D02*
X150520000Y-113460000D01*
X165570000Y-125460000D02*
X165570000Y-113460000D01*
X150520000Y-113460000D02*
X149770000Y-113460000D01*
X165570000Y-113460000D02*
X150520000Y-113460000D01*
D15*
X144470000Y-115960000D02*
G75*
G03*
X144470000Y-115960000I-100000J0D01*
G01*
D16*
G04 #@! TO.C,EC20*
X121470000Y-125469420D02*
X121470000Y-125750580D01*
X120450000Y-125469420D02*
X120450000Y-125750580D01*
G04 #@! TO.C,EC18*
X137035000Y-127811252D02*
X137035000Y-127288748D01*
X138505000Y-127811252D02*
X138505000Y-127288748D01*
G04 #@! TO.C,AUC1*
X139629420Y-123800000D02*
X139910580Y-123800000D01*
X139629420Y-124820000D02*
X139910580Y-124820000D01*
G04 #@! TO.C,ECY3*
X120725707Y-117045707D02*
X124625707Y-117045707D01*
X120725707Y-113845707D02*
X120725707Y-117045707D01*
G04 #@! TO.C,EC60*
X122290580Y-113120000D02*
X122009420Y-113120000D01*
X122290580Y-112100000D02*
X122009420Y-112100000D01*
G04 #@! TO.C,EC61*
X121976287Y-118785707D02*
X121695127Y-118785707D01*
X121976287Y-117765707D02*
X121695127Y-117765707D01*
G04 #@! TO.C,ESP32S3*
X129705758Y-125501018D02*
X129246139Y-125041399D01*
X125060066Y-119936088D02*
X124600447Y-120395707D01*
X130165377Y-125041399D02*
X129705758Y-125501018D01*
X129246139Y-115750015D02*
X129705758Y-115290396D01*
X134351450Y-120855326D02*
X134811069Y-120395707D01*
X129705758Y-115290396D02*
X130165377Y-115750015D01*
X134811069Y-120395707D02*
X134351450Y-119936088D01*
G04 #@! TO.C,ER1*
X131077500Y-127957258D02*
X131077500Y-127482742D01*
X132122500Y-127957258D02*
X132122500Y-127482742D01*
G04 #@! TO.C,MTRR1*
X117465000Y-116662936D02*
X117465000Y-117117064D01*
X118935000Y-116662936D02*
X118935000Y-117117064D01*
G04 #@! TO.C,AR1*
X137182936Y-114395000D02*
X137637064Y-114395000D01*
X137182936Y-115865000D02*
X137637064Y-115865000D01*
G04 #@! TO.C,TP3*
X146830000Y-128040000D02*
G75*
G03*
X146830000Y-128040000I-700000J0D01*
G01*
G04 #@! TO.C,ER3*
X118992500Y-113382742D02*
X118992500Y-113857258D01*
X117947500Y-113382742D02*
X117947500Y-113857258D01*
G04 #@! TO.C,EC38*
X118169420Y-123890000D02*
X118450580Y-123890000D01*
X118169420Y-124910000D02*
X118450580Y-124910000D01*
G04 #@! TO.C,EC26*
X135539420Y-124540000D02*
X135820580Y-124540000D01*
X135539420Y-125560000D02*
X135820580Y-125560000D01*
G04 #@! TO.C,EC17*
X134290000Y-127470580D02*
X134290000Y-127189420D01*
X135310000Y-127470580D02*
X135310000Y-127189420D01*
G04 #@! TO.C,G\u002A\u002A\u002A*
G36*
X111489147Y-122409267D02*
G01*
X111531811Y-122455342D01*
X111552279Y-122514898D01*
X111543104Y-122580911D01*
X111517132Y-122624682D01*
X111461116Y-122665790D01*
X111396131Y-122673992D01*
X111333502Y-122653535D01*
X111284557Y-122608663D01*
X111260623Y-122543621D01*
X111259834Y-122528250D01*
X111275486Y-122459548D01*
X111302440Y-122422169D01*
X111367016Y-122385657D01*
X111431734Y-122383698D01*
X111489147Y-122409267D01*
G37*
G36*
X111039234Y-122245066D02*
G01*
X111123271Y-122252647D01*
X111167300Y-122265071D01*
X111170934Y-122267900D01*
X111182789Y-122300790D01*
X111191100Y-122364896D01*
X111195868Y-122449247D01*
X111197093Y-122542874D01*
X111194774Y-122634807D01*
X111188911Y-122714075D01*
X111179505Y-122769710D01*
X111170934Y-122788599D01*
X111134535Y-122801903D01*
X111057803Y-122810398D01*
X110942484Y-122813910D01*
X110916934Y-122814000D01*
X110815683Y-122813363D01*
X110749478Y-122810646D01*
X110711042Y-122804634D01*
X110693095Y-122794115D01*
X110688361Y-122777876D01*
X110688334Y-122775900D01*
X110683097Y-122740444D01*
X110663301Y-122715676D01*
X110622823Y-122699785D01*
X110555537Y-122690958D01*
X110455318Y-122687383D01*
X110387767Y-122687000D01*
X110138000Y-122687000D01*
X110138000Y-122369500D01*
X110387767Y-122369500D01*
X110507641Y-122367950D01*
X110591379Y-122362095D01*
X110645108Y-122350123D01*
X110674952Y-122330222D01*
X110687036Y-122300579D01*
X110688334Y-122280600D01*
X110692151Y-122263724D01*
X110708456Y-122252690D01*
X110744527Y-122246284D01*
X110807641Y-122243293D01*
X110905076Y-122242504D01*
X110916934Y-122242500D01*
X111039234Y-122245066D01*
G37*
G36*
X110928147Y-119888609D02*
G01*
X111022115Y-119919861D01*
X111097095Y-119981352D01*
X111150319Y-120064219D01*
X111179017Y-120159597D01*
X111180420Y-120258623D01*
X111151759Y-120352433D01*
X111096254Y-120426703D01*
X111060137Y-120458069D01*
X111039098Y-120461420D01*
X111017746Y-120438133D01*
X111014711Y-120433996D01*
X110987015Y-120371533D01*
X110997371Y-120316921D01*
X111016417Y-120295166D01*
X111043602Y-120248194D01*
X111043812Y-120187099D01*
X111018277Y-120129329D01*
X111003612Y-120113238D01*
X110945183Y-120083812D01*
X110865502Y-120071520D01*
X110782027Y-120076365D01*
X110712218Y-120098345D01*
X110690556Y-120113238D01*
X110654707Y-120170464D01*
X110647315Y-120239929D01*
X110668677Y-120304003D01*
X110686954Y-120325668D01*
X110714738Y-120361533D01*
X110709786Y-120401785D01*
X110704723Y-120413615D01*
X110672545Y-120455006D01*
X110634333Y-120457174D01*
X110593231Y-120422222D01*
X110552379Y-120352253D01*
X110530141Y-120296746D01*
X110509460Y-120236992D01*
X110501545Y-120198631D01*
X110506338Y-120162709D01*
X110523779Y-120110277D01*
X110529505Y-120094083D01*
X110584531Y-119994302D01*
X110667250Y-119925714D01*
X110775634Y-119889363D01*
X110907660Y-119886293D01*
X110928147Y-119888609D01*
G37*
G36*
X111006122Y-119273844D02*
G01*
X111076715Y-119321527D01*
X111146087Y-119408360D01*
X111180600Y-119510341D01*
X111179762Y-119617901D01*
X111143083Y-119721472D01*
X111100311Y-119781537D01*
X111064958Y-119818581D01*
X111043763Y-119826387D01*
X111023224Y-119807763D01*
X111016369Y-119798996D01*
X110987352Y-119737635D01*
X110996543Y-119683237D01*
X111016417Y-119660166D01*
X111042300Y-119614583D01*
X111045704Y-119551950D01*
X111026294Y-119491301D01*
X111019589Y-119481008D01*
X110977850Y-119451821D01*
X110901690Y-119435020D01*
X110876714Y-119432548D01*
X110801709Y-119430122D01*
X110750715Y-119440514D01*
X110706410Y-119467397D01*
X110704209Y-119469122D01*
X110657586Y-119528684D01*
X110646996Y-119597709D01*
X110673366Y-119664054D01*
X110688022Y-119681021D01*
X110716312Y-119719176D01*
X110713186Y-119758504D01*
X110705791Y-119776271D01*
X110683653Y-119815180D01*
X110667730Y-119829500D01*
X110639007Y-119812804D01*
X110600073Y-119770885D01*
X110560413Y-119715989D01*
X110529508Y-119660366D01*
X110521881Y-119641133D01*
X110506514Y-119593686D01*
X110501538Y-119561617D01*
X110507022Y-119525988D01*
X110522531Y-119469666D01*
X110568600Y-119374429D01*
X110642395Y-119298985D01*
X110733475Y-119252944D01*
X110765663Y-119245823D01*
X110896326Y-119242037D01*
X111006122Y-119273844D01*
G37*
G36*
X111003545Y-127278545D02*
G01*
X111005834Y-127291683D01*
X111019491Y-127324544D01*
X111065296Y-127350935D01*
X111094364Y-127360989D01*
X111211359Y-127412199D01*
X111300620Y-127487905D01*
X111358530Y-127569887D01*
X111390481Y-127632462D01*
X111407673Y-127693205D01*
X111414122Y-127769832D01*
X111414581Y-127817212D01*
X111398645Y-127974088D01*
X111350736Y-128104322D01*
X111269081Y-128210933D01*
X111151912Y-128296943D01*
X111124785Y-128311567D01*
X111060527Y-128340815D01*
X110998724Y-128358013D01*
X110923777Y-128366241D01*
X110836500Y-128368494D01*
X110742710Y-128367525D01*
X110676010Y-128360910D01*
X110621229Y-128345481D01*
X110563196Y-128318068D01*
X110543225Y-128307221D01*
X110469072Y-128259342D01*
X110400924Y-128203870D01*
X110369190Y-128171063D01*
X110295764Y-128051472D01*
X110254529Y-127915985D01*
X110246883Y-127775416D01*
X110274225Y-127640579D01*
X110294352Y-127592536D01*
X110357899Y-127493955D01*
X110438561Y-127414846D01*
X110527024Y-127362554D01*
X110608959Y-127344416D01*
X110642278Y-127346375D01*
X110659605Y-127360259D01*
X110666161Y-127396416D01*
X110667167Y-127459799D01*
X110665592Y-127527172D01*
X110656462Y-127565541D01*
X110633170Y-127588225D01*
X110594490Y-127606298D01*
X110520890Y-127658756D01*
X110472795Y-127739507D01*
X110455501Y-127839648D01*
X110455500Y-127840032D01*
X110463549Y-127896125D01*
X110492948Y-127948060D01*
X110536860Y-127996526D01*
X110607088Y-128054463D01*
X110683915Y-128088643D01*
X110780709Y-128103767D01*
X110847084Y-128105666D01*
X110964205Y-128098418D01*
X111052195Y-128074484D01*
X111122075Y-128030578D01*
X111133590Y-128020294D01*
X111171165Y-127979341D01*
X111189914Y-127936662D01*
X111196031Y-127875052D01*
X111196334Y-127846028D01*
X111189466Y-127757202D01*
X111166509Y-127694785D01*
X111153448Y-127675855D01*
X111103117Y-127627494D01*
X111053159Y-127604630D01*
X111013829Y-127610962D01*
X111003762Y-127621859D01*
X110986214Y-127630761D01*
X110955115Y-127614440D01*
X110904597Y-127569448D01*
X110889727Y-127554794D01*
X110793646Y-127459005D01*
X110899740Y-127354506D01*
X110955808Y-127301544D01*
X110988736Y-127277215D01*
X111003545Y-127278545D01*
G37*
G36*
X110972146Y-126720164D02*
G01*
X111114443Y-126751561D01*
X111256718Y-126798213D01*
X111370856Y-126849604D01*
X111464690Y-126911078D01*
X111566863Y-126996947D01*
X111667021Y-127096633D01*
X111754811Y-127199560D01*
X111819877Y-127295148D01*
X111834664Y-127323420D01*
X111914273Y-127533568D01*
X111952005Y-127739168D01*
X111947966Y-127941103D01*
X111924240Y-128065995D01*
X111849561Y-128279714D01*
X111742666Y-128466297D01*
X111604932Y-128624365D01*
X111437739Y-128752540D01*
X111242465Y-128849442D01*
X111093163Y-128897072D01*
X110897772Y-128925971D01*
X110697477Y-128916416D01*
X110500342Y-128870252D01*
X110314433Y-128789322D01*
X110156938Y-128683046D01*
X110008528Y-128536216D01*
X109890696Y-128367242D01*
X109805454Y-128182202D01*
X109754815Y-127987172D01*
X109740792Y-127788230D01*
X109747955Y-127730948D01*
X109934636Y-127730948D01*
X109935879Y-127844728D01*
X109946875Y-127963717D01*
X109966264Y-128070292D01*
X109981724Y-128121928D01*
X110068472Y-128299390D01*
X110182537Y-128448545D01*
X110319023Y-128568179D01*
X110473033Y-128657074D01*
X110639670Y-128714015D01*
X110814038Y-128737788D01*
X110991241Y-128727175D01*
X111166381Y-128680962D01*
X111334563Y-128597933D01*
X111474058Y-128492421D01*
X111595686Y-128355499D01*
X111684150Y-128198627D01*
X111739329Y-128028167D01*
X111761098Y-127850481D01*
X111749335Y-127671930D01*
X111703919Y-127498875D01*
X111624725Y-127337678D01*
X111511632Y-127194700D01*
X111499313Y-127182483D01*
X111354682Y-127060779D01*
X111207548Y-126977348D01*
X111049247Y-126928580D01*
X110871116Y-126910864D01*
X110847084Y-126910653D01*
X110672200Y-126922512D01*
X110521371Y-126960887D01*
X110385099Y-127029972D01*
X110253884Y-127133961D01*
X110184480Y-127203241D01*
X110088316Y-127324470D01*
X110008817Y-127461923D01*
X109954756Y-127599633D01*
X109944509Y-127640000D01*
X109934636Y-127730948D01*
X109747955Y-127730948D01*
X109765398Y-127591453D01*
X109778577Y-127540685D01*
X109810516Y-127447122D01*
X109851318Y-127349142D01*
X109876720Y-127297317D01*
X109940090Y-127201570D01*
X110028683Y-127097008D01*
X110130853Y-126995290D01*
X110234957Y-126908073D01*
X110323360Y-126850164D01*
X110450496Y-126793425D01*
X110593644Y-126747820D01*
X110735418Y-126718045D01*
X110847084Y-126708666D01*
X110972146Y-126720164D01*
G37*
G36*
X110847084Y-118756513D02*
G01*
X111012993Y-118767273D01*
X111206986Y-118819448D01*
X111392556Y-118909586D01*
X111565311Y-119036322D01*
X111630633Y-119097754D01*
X111770894Y-119266819D01*
X111872125Y-119450268D01*
X111933782Y-119644857D01*
X111955323Y-119847340D01*
X111936207Y-120054474D01*
X111875889Y-120263014D01*
X111839541Y-120347289D01*
X111751405Y-120494500D01*
X111634009Y-120633656D01*
X111498287Y-120753681D01*
X111355174Y-120843499D01*
X111344500Y-120848683D01*
X111134618Y-120927261D01*
X110925235Y-120964553D01*
X110719483Y-120961066D01*
X110520493Y-120917307D01*
X110331397Y-120833780D01*
X110155326Y-120710993D01*
X110082929Y-120644798D01*
X109956582Y-120500706D01*
X109861964Y-120345965D01*
X109792379Y-120168654D01*
X109769636Y-120087082D01*
X109742117Y-119919445D01*
X109745787Y-119789391D01*
X109936513Y-119789391D01*
X109939030Y-119913584D01*
X109953874Y-120037960D01*
X109979659Y-120142835D01*
X109979953Y-120143676D01*
X110062527Y-120323557D01*
X110174260Y-120480111D01*
X110310288Y-120607227D01*
X110392522Y-120661703D01*
X110561017Y-120735294D01*
X110741337Y-120771804D01*
X110926495Y-120772075D01*
X111109501Y-120736949D01*
X111283368Y-120667268D01*
X111441107Y-120563874D01*
X111479531Y-120530738D01*
X111547104Y-120455447D01*
X111616875Y-120355381D01*
X111678816Y-120246295D01*
X111719514Y-120153621D01*
X111743569Y-120052563D01*
X111755516Y-119927155D01*
X111755369Y-119793607D01*
X111743140Y-119668130D01*
X111719044Y-119567493D01*
X111633513Y-119391192D01*
X111513120Y-119237736D01*
X111359988Y-119109368D01*
X111200909Y-119019438D01*
X111130007Y-118988399D01*
X111070466Y-118968946D01*
X111008036Y-118958424D01*
X110928465Y-118954178D01*
X110847084Y-118953514D01*
X110744900Y-118954736D01*
X110670715Y-118960190D01*
X110610225Y-118972563D01*
X110549125Y-118994540D01*
X110491385Y-119020287D01*
X110335021Y-119113473D01*
X110195407Y-119236933D01*
X110079163Y-119382572D01*
X109992913Y-119542292D01*
X109947706Y-119685064D01*
X109936513Y-119789391D01*
X109745787Y-119789391D01*
X109746837Y-119752199D01*
X109777804Y-119593983D01*
X109849844Y-119399453D01*
X109957656Y-119222125D01*
X110096647Y-119066441D01*
X110262226Y-118936841D01*
X110449800Y-118837763D01*
X110617306Y-118782285D01*
X110814969Y-118754430D01*
X110847084Y-118756513D01*
G37*
G36*
X111084963Y-121450726D02*
G01*
X111107615Y-121456787D01*
X111278377Y-121514925D01*
X111422769Y-121590507D01*
X111555877Y-121692384D01*
X111630633Y-121763737D01*
X111769546Y-121931887D01*
X111870850Y-122114613D01*
X111933456Y-122308160D01*
X111956271Y-122508773D01*
X111938208Y-122712698D01*
X111924328Y-122775248D01*
X111850242Y-122988182D01*
X111743610Y-123174494D01*
X111606036Y-123332581D01*
X111439124Y-123460837D01*
X111244479Y-123557660D01*
X111094083Y-123605494D01*
X110892639Y-123635477D01*
X110687973Y-123623777D01*
X110479177Y-123570288D01*
X110349667Y-123517219D01*
X110259888Y-123462874D01*
X110159184Y-123382010D01*
X110057819Y-123284759D01*
X109966061Y-123181249D01*
X109894175Y-123081610D01*
X109875529Y-123049374D01*
X109796172Y-122860606D01*
X109751769Y-122662373D01*
X109743386Y-122463470D01*
X109748264Y-122431045D01*
X109935276Y-122431045D01*
X109935368Y-122536571D01*
X109943568Y-122648561D01*
X109958696Y-122750666D01*
X109978858Y-122824760D01*
X110071597Y-123008587D01*
X110190894Y-123163455D01*
X110333094Y-123286941D01*
X110494542Y-123376624D01*
X110671583Y-123430081D01*
X110860562Y-123444891D01*
X110910584Y-123442163D01*
X111108792Y-123406139D01*
X111287995Y-123333433D01*
X111444867Y-123226587D01*
X111576084Y-123088142D01*
X111678321Y-122920641D01*
X111718326Y-122824583D01*
X111744441Y-122716254D01*
X111756851Y-122585963D01*
X111755614Y-122449662D01*
X111740789Y-122323303D01*
X111716133Y-122231916D01*
X111622987Y-122045975D01*
X111499660Y-121889713D01*
X111346390Y-121763369D01*
X111163418Y-121667182D01*
X111143417Y-121659201D01*
X111061289Y-121634840D01*
X110963999Y-121621973D01*
X110847084Y-121618690D01*
X110671467Y-121631076D01*
X110520247Y-121669849D01*
X110383816Y-121739253D01*
X110252568Y-121843537D01*
X110184480Y-121911574D01*
X110088232Y-122032926D01*
X110008678Y-122170538D01*
X109954604Y-122308419D01*
X109944471Y-122348333D01*
X109935276Y-122431045D01*
X109748264Y-122431045D01*
X109772088Y-122272691D01*
X109778577Y-122249019D01*
X109844492Y-122072214D01*
X109936475Y-121916190D01*
X110062145Y-121768248D01*
X110074548Y-121755714D01*
X110217740Y-121630198D01*
X110366155Y-121538540D01*
X110533087Y-121473040D01*
X110590543Y-121456877D01*
X110762898Y-121424278D01*
X110847084Y-121423195D01*
X110922266Y-121422228D01*
X111084963Y-121450726D01*
G37*
G36*
X110856816Y-124069434D02*
G01*
X110943052Y-124070119D01*
X111107615Y-124102621D01*
X111278377Y-124160759D01*
X111355349Y-124201049D01*
X111422769Y-124236340D01*
X111555877Y-124338217D01*
X111630633Y-124409570D01*
X111769546Y-124577720D01*
X111870850Y-124760446D01*
X111933456Y-124953993D01*
X111956271Y-125154606D01*
X111938208Y-125358531D01*
X111924328Y-125421082D01*
X111850242Y-125634016D01*
X111743610Y-125820328D01*
X111606036Y-125978414D01*
X111439124Y-126106670D01*
X111244479Y-126203493D01*
X111094083Y-126251327D01*
X110892639Y-126281310D01*
X110687973Y-126269611D01*
X110479177Y-126216121D01*
X110349667Y-126163052D01*
X110259888Y-126108707D01*
X110166834Y-126033987D01*
X110617800Y-126033987D01*
X110618797Y-126051350D01*
X110624846Y-126060509D01*
X110653852Y-126071303D01*
X110712448Y-126081711D01*
X110787708Y-126089458D01*
X110978866Y-126082777D01*
X111160821Y-126036893D01*
X111328713Y-125954709D01*
X111477682Y-125839131D01*
X111602866Y-125693066D01*
X111683773Y-125553813D01*
X111741528Y-125385889D01*
X111764090Y-125205277D01*
X111751903Y-125022143D01*
X111705409Y-124846651D01*
X111647658Y-124725078D01*
X111606899Y-124665547D01*
X111552148Y-124598577D01*
X111491448Y-124532488D01*
X111432844Y-124475604D01*
X111384380Y-124436246D01*
X111355349Y-124422666D01*
X111334967Y-124440573D01*
X111304971Y-124487566D01*
X111271782Y-124553552D01*
X111271147Y-124554958D01*
X111235010Y-124635075D01*
X111200956Y-124710458D01*
X111179674Y-124757470D01*
X111161947Y-124801290D01*
X111163132Y-124830510D01*
X111188328Y-124860309D01*
X111224479Y-124890878D01*
X111288074Y-124961097D01*
X111325840Y-125036518D01*
X111346279Y-125090468D01*
X111373871Y-125115674D01*
X111423305Y-125125051D01*
X111426897Y-125125360D01*
X111478322Y-125133933D01*
X111499657Y-125154157D01*
X111503250Y-125184666D01*
X111497176Y-125220673D01*
X111470851Y-125237701D01*
X111426100Y-125244020D01*
X111376495Y-125251914D01*
X111349342Y-125273044D01*
X111331588Y-125319899D01*
X111326538Y-125339270D01*
X111304907Y-125405785D01*
X111279029Y-125460622D01*
X111272539Y-125470416D01*
X111251388Y-125494941D01*
X111231805Y-125496934D01*
X111201653Y-125473480D01*
X111174286Y-125446819D01*
X111133874Y-125404369D01*
X111119892Y-125374892D01*
X111128242Y-125342034D01*
X111141394Y-125315579D01*
X111165288Y-125252385D01*
X111175167Y-125192676D01*
X111161605Y-125133889D01*
X111128174Y-125084227D01*
X111085760Y-125058599D01*
X111076595Y-125057666D01*
X111053631Y-125077292D01*
X111017646Y-125134813D01*
X110969687Y-125228199D01*
X110910799Y-125355418D01*
X110844678Y-125508150D01*
X110807514Y-125594215D01*
X110762973Y-125694504D01*
X110727386Y-125772733D01*
X110678424Y-125879526D01*
X110645349Y-125954430D01*
X110625895Y-126003799D01*
X110617800Y-126033987D01*
X110166834Y-126033987D01*
X110159184Y-126027844D01*
X110057819Y-125930592D01*
X109966061Y-125827082D01*
X109894175Y-125727443D01*
X109875529Y-125695207D01*
X109796172Y-125506439D01*
X109751769Y-125308206D01*
X109743386Y-125109303D01*
X109743733Y-125106998D01*
X109936080Y-125106998D01*
X109939359Y-125236158D01*
X109956146Y-125366369D01*
X109982446Y-125471119D01*
X110048177Y-125619741D01*
X110135964Y-125751051D01*
X110151736Y-125769595D01*
X110195809Y-125814337D01*
X110252158Y-125864840D01*
X110310520Y-125912747D01*
X110360633Y-125949703D01*
X110392234Y-125967351D01*
X110395207Y-125967833D01*
X110412490Y-125949806D01*
X110440953Y-125901739D01*
X110475457Y-125832655D01*
X110488628Y-125803791D01*
X110524864Y-125723604D01*
X110556741Y-125655162D01*
X110578748Y-125610237D01*
X110582553Y-125603189D01*
X110589702Y-125573710D01*
X110566290Y-125548678D01*
X110541140Y-125534419D01*
X110471158Y-125481228D01*
X110408555Y-125405000D01*
X110367531Y-125323808D01*
X110362946Y-125307647D01*
X110346363Y-125268377D01*
X110312034Y-125249921D01*
X110270208Y-125244147D01*
X110217564Y-125235881D01*
X110195171Y-125216941D01*
X110190917Y-125184666D01*
X110196837Y-125148933D01*
X110222652Y-125131879D01*
X110269565Y-125125223D01*
X110322360Y-125116767D01*
X110348093Y-125094102D01*
X110361768Y-125043535D01*
X110362309Y-125040557D01*
X110392034Y-124934455D01*
X110441753Y-124851642D01*
X110451387Y-124840190D01*
X110473864Y-124819243D01*
X110495720Y-124820227D01*
X110529148Y-124846572D01*
X110552187Y-124868559D01*
X110620209Y-124934488D01*
X110569860Y-125022535D01*
X110530214Y-125108790D01*
X110521677Y-125181948D01*
X110542716Y-125255868D01*
X110543796Y-125258261D01*
X110581111Y-125304582D01*
X110631727Y-125327465D01*
X110680744Y-125322005D01*
X110698192Y-125309119D01*
X110718530Y-125277431D01*
X110749813Y-125217259D01*
X110786679Y-125139186D01*
X110804112Y-125100000D01*
X110845087Y-125006507D01*
X110885407Y-124915253D01*
X110918099Y-124841999D01*
X110925857Y-124824833D01*
X110961203Y-124746075D01*
X110996615Y-124665762D01*
X111005665Y-124644916D01*
X111037753Y-124571760D01*
X111074818Y-124488875D01*
X111087520Y-124460869D01*
X111113713Y-124397402D01*
X111130078Y-124346161D01*
X111132834Y-124328981D01*
X111116872Y-124300220D01*
X111067268Y-124280309D01*
X110981442Y-124268691D01*
X110856816Y-124264806D01*
X110836500Y-124264846D01*
X110662093Y-124278431D01*
X110510283Y-124319921D01*
X110372100Y-124393340D01*
X110238574Y-124502713D01*
X110184480Y-124557407D01*
X110070637Y-124704265D01*
X109987307Y-124867378D01*
X109947706Y-124997898D01*
X109936080Y-125106998D01*
X109743733Y-125106998D01*
X109772088Y-124918524D01*
X109778577Y-124894852D01*
X109844492Y-124718047D01*
X109936475Y-124562023D01*
X110062145Y-124414081D01*
X110074548Y-124401547D01*
X110214170Y-124278555D01*
X110358503Y-124188143D01*
X110522173Y-124121736D01*
X110582335Y-124103789D01*
X110766387Y-124068715D01*
X110856816Y-124069434D01*
G37*
G04 #@! TO.C,AC2*
X144275000Y-113598748D02*
X144275000Y-114121252D01*
X142805000Y-113598748D02*
X142805000Y-114121252D01*
D17*
G04 #@! TO.C,ANT1*
X112740000Y-127950000D02*
X112740000Y-119950000D01*
X114840000Y-119950000D02*
X114840000Y-127950000D01*
D18*
X113980500Y-130300000D02*
G75*
G03*
X113980500Y-130300000I-190500J0D01*
G01*
D16*
G04 #@! TO.C,EC16*
X128285127Y-113265707D02*
X128566287Y-113265707D01*
X128285127Y-114285707D02*
X128566287Y-114285707D01*
G04 #@! TO.C,EC51*
X134465707Y-111776287D02*
X134465707Y-111495127D01*
X135485707Y-111776287D02*
X135485707Y-111495127D01*
G04 #@! TO.C,TP1*
X144360000Y-110810000D02*
G75*
G03*
X144360000Y-110810000I-700000J0D01*
G01*
G04 #@! TO.C,EC15*
X121820279Y-121385707D02*
X122101439Y-121385707D01*
X121820279Y-122405707D02*
X122101439Y-122405707D01*
G04 #@! TO.C,L2*
X122780000Y-125879622D02*
X122780000Y-125080378D01*
X123900000Y-125879622D02*
X123900000Y-125080378D01*
G04 #@! TO.C,EC19*
X122840580Y-128570000D02*
X122559420Y-128570000D01*
X122840580Y-127550000D02*
X122559420Y-127550000D01*
G04 #@! TO.C,EC14*
X121824455Y-119410707D02*
X122346959Y-119410707D01*
X121824455Y-120880707D02*
X122346959Y-120880707D01*
G04 #@! TO.C,AL1*
X138737936Y-120360000D02*
X139942064Y-120360000D01*
X138737936Y-123080000D02*
X139942064Y-123080000D01*
G04 #@! TO.C,AR2*
X139795000Y-114467064D02*
X139795000Y-114012936D01*
X141265000Y-114467064D02*
X141265000Y-114012936D01*
G04 #@! TO.C,EC50*
X128996287Y-112075707D02*
X128715127Y-112075707D01*
X128996287Y-111055707D02*
X128715127Y-111055707D01*
G04 #@! TO.C,EC37*
X118860000Y-127570580D02*
X118860000Y-127289420D01*
X119880000Y-127570580D02*
X119880000Y-127289420D01*
G04 #@! TO.C,EL4*
X116900000Y-127529622D02*
X116900000Y-126730378D01*
X118020000Y-127529622D02*
X118020000Y-126730378D01*
G04 #@! TO.C,AC1*
X135815000Y-118381252D02*
X135815000Y-117858748D01*
X137285000Y-118381252D02*
X137285000Y-117858748D01*
G04 #@! TO.C,TP2*
X147770000Y-110980000D02*
G75*
G03*
X147770000Y-110980000I-700000J0D01*
G01*
G04 #@! TO.C,ER2*
X126592500Y-113287742D02*
X126592500Y-113762258D01*
X125547500Y-113287742D02*
X125547500Y-113762258D01*
G04 #@! TO.C,ECY2*
X130535707Y-113905707D02*
X133735707Y-113905707D01*
X133735707Y-113905707D02*
X133735707Y-110005707D01*
G04 #@! TO.C,MTRT1*
X110512500Y-114720000D02*
X109862500Y-114720000D01*
X110512500Y-114720000D02*
X111162500Y-114720000D01*
X110512500Y-117840000D02*
X109862500Y-117840000D01*
X110512500Y-117840000D02*
X112187500Y-117840000D01*
G04 #@! TD*
%LPC*%
D19*
G04 #@! TO.C,EC1*
X125360000Y-124050000D03*
X125360000Y-125600000D03*
G04 #@! TD*
D20*
G04 #@! TO.C,AU1*
X139060000Y-117130000D03*
X139060000Y-118080000D03*
X139060000Y-119030000D03*
X141930000Y-119030000D03*
X141930000Y-118080000D03*
X141930000Y-117130000D03*
D21*
X140495000Y-118080000D03*
G04 #@! TD*
D22*
G04 #@! TO.C,F1*
X138552500Y-110990000D03*
X141527500Y-110990000D03*
G04 #@! TD*
D23*
G04 #@! TO.C,U1*
X141980000Y-127985000D03*
X142480000Y-127985000D03*
X142980000Y-127985000D03*
X143480000Y-127985000D03*
X143480000Y-125085000D03*
X142980000Y-125085000D03*
X142480000Y-125085000D03*
X141980000Y-125085000D03*
D24*
X142730000Y-126535000D03*
G04 #@! TD*
D25*
G04 #@! TO.C,P1*
X104180000Y-112870000D03*
X104180000Y-126010000D03*
D26*
X106890000Y-115940000D03*
D27*
X106890000Y-118440000D03*
X106890000Y-120440000D03*
X106890000Y-122940000D03*
G04 #@! TD*
D28*
G04 #@! TO.C,J1*
X147770000Y-121710000D03*
X147770000Y-117210000D03*
D29*
X145670000Y-115960000D03*
D30*
X145670000Y-118460000D03*
X145670000Y-120460000D03*
X145670000Y-122960000D03*
D31*
X147770000Y-113760000D03*
X147770000Y-125160000D03*
G04 #@! TD*
D19*
G04 #@! TO.C,EC20*
X120960000Y-124835000D03*
X120960000Y-126385000D03*
G04 #@! TD*
D32*
G04 #@! TO.C,EC18*
X137770000Y-128500000D03*
X137770000Y-126600000D03*
G04 #@! TD*
D33*
G04 #@! TO.C,AUC1*
X138995000Y-124310000D03*
X140545000Y-124310000D03*
G04 #@! TD*
D34*
G04 #@! TO.C,ECY3*
X121575707Y-114545707D03*
X123775707Y-114545707D03*
X123775707Y-116345707D03*
X121575707Y-116345707D03*
G04 #@! TD*
D35*
G04 #@! TO.C,EC60*
X122925000Y-112610000D03*
X121375000Y-112610000D03*
G04 #@! TD*
G04 #@! TO.C,EC61*
X122610707Y-118275707D03*
X121060707Y-118275707D03*
G04 #@! TD*
D36*
G04 #@! TO.C,ESP32S3*
X125436601Y-120987909D03*
X125719444Y-121270752D03*
X126002286Y-121553594D03*
X126285129Y-121836437D03*
X126567972Y-122119280D03*
D37*
X126850814Y-122402122D03*
X127133657Y-122684965D03*
D36*
X127416500Y-122967808D03*
X127699343Y-123250651D03*
X127982185Y-123533493D03*
X128265028Y-123816336D03*
X128547871Y-124099179D03*
X128830713Y-124382021D03*
X129113556Y-124664864D03*
D38*
X130297960Y-124664864D03*
X130580803Y-124382021D03*
D37*
X130863645Y-124099179D03*
D38*
X131146488Y-123816336D03*
X131429331Y-123533493D03*
X131712173Y-123250651D03*
X131995016Y-122967808D03*
X132277859Y-122684965D03*
D37*
X132560702Y-122402122D03*
X132843544Y-122119280D03*
D38*
X133126387Y-121836437D03*
X133409230Y-121553594D03*
X133692072Y-121270752D03*
X133974915Y-120987909D03*
D36*
X133974915Y-119803505D03*
X133692072Y-119520662D03*
X133409230Y-119237820D03*
X133126387Y-118954977D03*
X132843544Y-118672134D03*
X132560702Y-118389292D03*
X132277859Y-118106449D03*
X131995016Y-117823606D03*
X131712173Y-117540763D03*
X131429331Y-117257921D03*
X131146488Y-116975078D03*
X130863645Y-116692235D03*
X130580803Y-116409393D03*
X130297960Y-116126550D03*
D38*
X129113556Y-116126550D03*
X128830713Y-116409393D03*
D37*
X128547871Y-116692235D03*
D38*
X128265028Y-116975078D03*
X127982185Y-117257921D03*
X127699343Y-117540763D03*
X127416500Y-117823606D03*
X127133657Y-118106449D03*
X126850814Y-118389292D03*
X126567972Y-118672134D03*
X126285129Y-118954977D03*
X126002286Y-119237820D03*
X125719444Y-119520662D03*
X125436601Y-119803505D03*
D39*
X129705758Y-120395707D03*
G04 #@! TD*
D40*
G04 #@! TO.C,ER1*
X131600000Y-128545000D03*
X131600000Y-126895000D03*
G04 #@! TD*
D41*
G04 #@! TO.C,MTRR1*
X118200000Y-117802500D03*
X118200000Y-115977500D03*
G04 #@! TD*
D42*
G04 #@! TO.C,AR1*
X136410000Y-115130000D03*
X138410000Y-115130000D03*
G04 #@! TD*
D43*
G04 #@! TO.C,TP3*
X146130000Y-128040000D03*
G04 #@! TD*
D44*
G04 #@! TO.C,ER3*
X118470000Y-112795000D03*
X118470000Y-114445000D03*
G04 #@! TD*
D33*
G04 #@! TO.C,EC38*
X117535000Y-124400000D03*
X119085000Y-124400000D03*
G04 #@! TD*
G04 #@! TO.C,EC26*
X134905000Y-125050000D03*
X136455000Y-125050000D03*
G04 #@! TD*
D45*
G04 #@! TO.C,EC17*
X134800000Y-128105000D03*
X134800000Y-126555000D03*
G04 #@! TD*
D46*
G04 #@! TO.C,AC2*
X143540000Y-112822500D03*
X143540000Y-114897500D03*
G04 #@! TD*
D47*
G04 #@! TO.C,ANT1*
X113790000Y-128700000D03*
X113790000Y-119200000D03*
G04 #@! TD*
D33*
G04 #@! TO.C,EC16*
X127650707Y-113775707D03*
X129200707Y-113775707D03*
G04 #@! TD*
D45*
G04 #@! TO.C,EC51*
X134975707Y-112410707D03*
X134975707Y-110860707D03*
G04 #@! TD*
D43*
G04 #@! TO.C,TP1*
X143660000Y-110810000D03*
G04 #@! TD*
D33*
G04 #@! TO.C,EC15*
X121185859Y-121895707D03*
X122735859Y-121895707D03*
G04 #@! TD*
D48*
G04 #@! TO.C,L2*
X123340000Y-126542500D03*
X123340000Y-124417500D03*
G04 #@! TD*
D35*
G04 #@! TO.C,EC19*
X123475000Y-128060000D03*
X121925000Y-128060000D03*
G04 #@! TD*
D49*
G04 #@! TO.C,EC14*
X121135707Y-120145707D03*
X123035707Y-120145707D03*
G04 #@! TD*
D50*
G04 #@! TO.C,AL1*
X137940000Y-121720000D03*
X140740000Y-121720000D03*
G04 #@! TD*
D51*
G04 #@! TO.C,AR2*
X140530000Y-115240000D03*
X140530000Y-113240000D03*
G04 #@! TD*
D35*
G04 #@! TO.C,EC50*
X129630707Y-111565707D03*
X128080707Y-111565707D03*
G04 #@! TD*
D45*
G04 #@! TO.C,EC37*
X119370000Y-128205000D03*
X119370000Y-126655000D03*
G04 #@! TD*
D48*
G04 #@! TO.C,EL4*
X117460000Y-128192500D03*
X117460000Y-126067500D03*
G04 #@! TD*
D52*
G04 #@! TO.C,AC1*
X136550000Y-119157500D03*
X136550000Y-117082500D03*
G04 #@! TD*
D43*
G04 #@! TO.C,TP2*
X147070000Y-110980000D03*
G04 #@! TD*
D44*
G04 #@! TO.C,ER2*
X126070000Y-112700000D03*
X126070000Y-114350000D03*
G04 #@! TD*
D53*
G04 #@! TO.C,ECY2*
X133035707Y-113055707D03*
X133035707Y-110855707D03*
X131235707Y-110855707D03*
X131235707Y-113055707D03*
G04 #@! TD*
D54*
G04 #@! TO.C,MTRT1*
X109575000Y-116280000D03*
X111450000Y-115330000D03*
X111450000Y-117230000D03*
G04 #@! TD*
D55*
G04 #@! TO.C,ICSP1*
X110200000Y-113200000D03*
X111470000Y-113200000D03*
X112740000Y-113200000D03*
X114010000Y-113200000D03*
X115280000Y-113200000D03*
D56*
X110835000Y-112045000D03*
X112105000Y-112045000D03*
X113375000Y-112045000D03*
X114645000Y-112045000D03*
G04 #@! TD*
%LPD*%
D57*
G04 #@! TO.C,G\u002A\u002A\u002A*
X150899932Y-127602602D02*
X150899932Y-111182876D01*
X128680069Y-129472739D02*
X149089932Y-129412602D01*
X128350069Y-109362739D02*
X149089932Y-109372876D01*
X125059103Y-129402678D02*
X109200069Y-129392739D01*
X124740454Y-109352262D02*
X109210069Y-109352739D01*
X109210069Y-113192739D02*
X109210069Y-109352739D01*
X109200069Y-129392739D02*
X109200069Y-125552739D01*
X109200069Y-125552739D02*
X108570069Y-125552739D01*
X108580069Y-113192739D02*
X109210069Y-113192739D01*
X108580069Y-109352739D02*
X108580069Y-113192739D01*
X108580069Y-109352739D02*
X103700206Y-109352876D01*
X108570069Y-129392739D02*
X103700069Y-129392739D01*
X108570069Y-125552739D02*
X108570069Y-129392739D01*
X101890069Y-127582739D02*
X101890206Y-111162876D01*
X149089932Y-109372876D02*
G75*
G03*
X150899932Y-111182876I1810001J1D01*
G01*
X150899932Y-127602602D02*
G75*
G03*
X149089932Y-129412602I1J-1810001D01*
G01*
X124740454Y-109352262D02*
G75*
G03*
X128350069Y-109362739I1804649J-59822D01*
G01*
X128680068Y-129472739D02*
G75*
G03*
X125059104Y-129402678I-1809999J60000D01*
G01*
X101890206Y-111162876D02*
G75*
G03*
X103700206Y-109352876I-3J1810003D01*
G01*
X103700067Y-129392739D02*
G75*
G03*
X101890069Y-127582739I-1810084J-84D01*
G01*
G04 #@! TD*
M02*
