G04 #@! TF.GenerationSoftware,KiCad,Pcbnew,7.0.7*
G04 #@! TF.CreationDate,2023-09-06T15:28:22+02:00*
G04 #@! TF.ProjectId,Power Scheduler_20x49x1_6_mm,506f7765-7220-4536-9368-6564756c6572,5.3*
G04 #@! TF.SameCoordinates,Original*
G04 #@! TF.FileFunction,Soldermask,Top*
G04 #@! TF.FilePolarity,Negative*
%FSLAX46Y46*%
G04 Gerber Fmt 4.6, Leading zero omitted, Abs format (unit mm)*
G04 Created by KiCad (PCBNEW 7.0.7) date 2023-09-06 15:28:22*
%MOMM*%
%LPD*%
G01*
G04 APERTURE LIST*
G04 Aperture macros list*
%AMRoundRect*
0 Rectangle with rounded corners*
0 $1 Rounding radius*
0 $2 $3 $4 $5 $6 $7 $8 $9 X,Y pos of 4 corners*
0 Add a 4 corners polygon primitive as box body*
4,1,4,$2,$3,$4,$5,$6,$7,$8,$9,$2,$3,0*
0 Add four circle primitives for the rounded corners*
1,1,$1+$1,$2,$3*
1,1,$1+$1,$4,$5*
1,1,$1+$1,$6,$7*
1,1,$1+$1,$8,$9*
0 Add four rect primitives between the rounded corners*
20,1,$1+$1,$2,$3,$4,$5,0*
20,1,$1+$1,$4,$5,$6,$7,0*
20,1,$1+$1,$6,$7,$8,$9,0*
20,1,$1+$1,$8,$9,$2,$3,0*%
%AMRotRect*
0 Rectangle, with rotation*
0 The origin of the aperture is its center*
0 $1 length*
0 $2 width*
0 $3 Rotation angle, in degrees counterclockwise*
0 Add horizontal line*
21,1,$1,$2,0,0,$3*%
G04 Aperture macros list end*
%ADD10C,0.100000*%
%ADD11C,0.150000*%
%ADD12C,0.300000*%
%ADD13C,0.400000*%
%ADD14RoundRect,0.225000X-0.250000X0.225000X-0.250000X-0.225000X0.250000X-0.225000X0.250000X0.225000X0*%
%ADD15R,0.840000X0.420000*%
%ADD16R,1.600000X2.500000*%
%ADD17RoundRect,0.250001X-0.462499X-0.624999X0.462499X-0.624999X0.462499X0.624999X-0.462499X0.624999X0*%
%ADD18RoundRect,0.102000X0.150000X-0.425000X0.150000X0.425000X-0.150000X0.425000X-0.150000X-0.425000X0*%
%ADD19RoundRect,0.102000X0.800000X-0.700000X0.800000X0.700000X-0.800000X0.700000X-0.800000X-0.700000X0*%
%ADD20C,2.300000*%
%ADD21RoundRect,0.102000X-0.714000X0.714000X-0.714000X-0.714000X0.714000X-0.714000X0.714000X0.714000X0*%
%ADD22C,1.632000*%
%ADD23C,1.250000*%
%ADD24RoundRect,0.076200X0.754000X-0.754000X0.754000X0.754000X-0.754000X0.754000X-0.754000X-0.754000X0*%
%ADD25C,1.660400*%
%ADD26O,3.302400X1.727400*%
%ADD27RoundRect,0.250000X0.475000X-0.250000X0.475000X0.250000X-0.475000X0.250000X-0.475000X-0.250000X0*%
%ADD28RoundRect,0.225000X-0.225000X-0.250000X0.225000X-0.250000X0.225000X0.250000X-0.225000X0.250000X0*%
%ADD29R,1.300000X1.000000*%
%ADD30RoundRect,0.225000X0.225000X0.250000X-0.225000X0.250000X-0.225000X-0.250000X0.225000X-0.250000X0*%
%ADD31RoundRect,0.050000X-0.238649X-0.309359X0.309359X0.238649X0.238649X0.309359X-0.309359X-0.238649X0*%
%ADD32RoundRect,0.002500X0.000000X-0.003536X0.003536X0.000000X0.000000X0.003536X-0.003536X0.000000X0*%
%ADD33RoundRect,0.050000X0.238649X-0.309359X0.309359X-0.238649X-0.238649X0.309359X-0.309359X0.238649X0*%
%ADD34RotRect,5.600000X5.600000X45.000000*%
%ADD35RoundRect,0.200000X0.275000X-0.200000X0.275000X0.200000X-0.275000X0.200000X-0.275000X-0.200000X0*%
%ADD36RoundRect,0.250000X-0.450000X0.262500X-0.450000X-0.262500X0.450000X-0.262500X0.450000X0.262500X0*%
%ADD37RoundRect,0.250000X-0.350000X-0.450000X0.350000X-0.450000X0.350000X0.450000X-0.350000X0.450000X0*%
%ADD38C,1.000000*%
%ADD39RoundRect,0.200000X-0.275000X0.200000X-0.275000X-0.200000X0.275000X-0.200000X0.275000X0.200000X0*%
%ADD40RoundRect,0.225000X0.250000X-0.225000X0.250000X0.225000X-0.250000X0.225000X-0.250000X-0.225000X0*%
%ADD41RoundRect,0.250000X-0.475000X0.337500X-0.475000X-0.337500X0.475000X-0.337500X0.475000X0.337500X0*%
%ADD42R,2.100000X1.400000*%
%ADD43RoundRect,0.218750X0.381250X-0.218750X0.381250X0.218750X-0.381250X0.218750X-0.381250X-0.218750X0*%
%ADD44RoundRect,0.250000X-0.250000X-0.475000X0.250000X-0.475000X0.250000X0.475000X-0.250000X0.475000X0*%
%ADD45RoundRect,0.250000X-0.375000X-1.075000X0.375000X-1.075000X0.375000X1.075000X-0.375000X1.075000X0*%
%ADD46RoundRect,0.250000X0.450000X-0.350000X0.450000X0.350000X-0.450000X0.350000X-0.450000X-0.350000X0*%
%ADD47RoundRect,0.250000X0.475000X-0.337500X0.475000X0.337500X-0.475000X0.337500X-0.475000X-0.337500X0*%
%ADD48R,1.000000X1.300000*%
%ADD49RoundRect,0.150000X0.587500X0.150000X-0.587500X0.150000X-0.587500X-0.150000X0.587500X-0.150000X0*%
%ADD50C,0.700000*%
%ADD51O,0.800000X1.500000*%
G04 #@! TA.AperFunction,Profile*
%ADD52C,0.050000*%
G04 #@! TD*
G04 APERTURE END LIST*
D10*
D11*
X177002200Y-166007200D02*
X285002200Y-166007200D01*
X285002200Y-198007200D01*
X177002200Y-198007200D01*
X177002200Y-166007200D01*
D10*
D11*
X10000000Y-10000000D02*
X287002200Y-10000000D01*
X287002200Y-200007200D01*
X10000000Y-200007200D01*
X10000000Y-10000000D01*
D10*
D11*
X12000000Y-12000000D02*
X285002200Y-12000000D01*
X285002200Y-198007200D01*
X12000000Y-198007200D01*
X12000000Y-12000000D01*
D10*
D11*
X60000000Y-12000000D02*
X60000000Y-10000000D01*
D10*
D11*
X110000000Y-12000000D02*
X110000000Y-10000000D01*
D10*
D11*
X160000000Y-12000000D02*
X160000000Y-10000000D01*
D10*
D11*
X210000000Y-12000000D02*
X210000000Y-10000000D01*
D10*
D11*
X260000000Y-12000000D02*
X260000000Y-10000000D01*
D10*
D11*
X36089160Y-11593604D02*
X35346303Y-11593604D01*
X35717731Y-11593604D02*
X35717731Y-10293604D01*
X35717731Y-10293604D02*
X35593922Y-10479319D01*
X35593922Y-10479319D02*
X35470112Y-10603128D01*
X35470112Y-10603128D02*
X35346303Y-10665033D01*
D10*
D11*
X85346303Y-10417414D02*
X85408207Y-10355509D01*
X85408207Y-10355509D02*
X85532017Y-10293604D01*
X85532017Y-10293604D02*
X85841541Y-10293604D01*
X85841541Y-10293604D02*
X85965350Y-10355509D01*
X85965350Y-10355509D02*
X86027255Y-10417414D01*
X86027255Y-10417414D02*
X86089160Y-10541223D01*
X86089160Y-10541223D02*
X86089160Y-10665033D01*
X86089160Y-10665033D02*
X86027255Y-10850747D01*
X86027255Y-10850747D02*
X85284398Y-11593604D01*
X85284398Y-11593604D02*
X86089160Y-11593604D01*
D10*
D11*
X135284398Y-10293604D02*
X136089160Y-10293604D01*
X136089160Y-10293604D02*
X135655826Y-10788842D01*
X135655826Y-10788842D02*
X135841541Y-10788842D01*
X135841541Y-10788842D02*
X135965350Y-10850747D01*
X135965350Y-10850747D02*
X136027255Y-10912652D01*
X136027255Y-10912652D02*
X136089160Y-11036461D01*
X136089160Y-11036461D02*
X136089160Y-11345985D01*
X136089160Y-11345985D02*
X136027255Y-11469795D01*
X136027255Y-11469795D02*
X135965350Y-11531700D01*
X135965350Y-11531700D02*
X135841541Y-11593604D01*
X135841541Y-11593604D02*
X135470112Y-11593604D01*
X135470112Y-11593604D02*
X135346303Y-11531700D01*
X135346303Y-11531700D02*
X135284398Y-11469795D01*
D10*
D11*
X185965350Y-10726938D02*
X185965350Y-11593604D01*
X185655826Y-10231700D02*
X185346303Y-11160271D01*
X185346303Y-11160271D02*
X186151064Y-11160271D01*
D10*
D11*
X236027255Y-10293604D02*
X235408207Y-10293604D01*
X235408207Y-10293604D02*
X235346303Y-10912652D01*
X235346303Y-10912652D02*
X235408207Y-10850747D01*
X235408207Y-10850747D02*
X235532017Y-10788842D01*
X235532017Y-10788842D02*
X235841541Y-10788842D01*
X235841541Y-10788842D02*
X235965350Y-10850747D01*
X235965350Y-10850747D02*
X236027255Y-10912652D01*
X236027255Y-10912652D02*
X236089160Y-11036461D01*
X236089160Y-11036461D02*
X236089160Y-11345985D01*
X236089160Y-11345985D02*
X236027255Y-11469795D01*
X236027255Y-11469795D02*
X235965350Y-11531700D01*
X235965350Y-11531700D02*
X235841541Y-11593604D01*
X235841541Y-11593604D02*
X235532017Y-11593604D01*
X235532017Y-11593604D02*
X235408207Y-11531700D01*
X235408207Y-11531700D02*
X235346303Y-11469795D01*
D10*
D11*
X285965350Y-10293604D02*
X285717731Y-10293604D01*
X285717731Y-10293604D02*
X285593922Y-10355509D01*
X285593922Y-10355509D02*
X285532017Y-10417414D01*
X285532017Y-10417414D02*
X285408207Y-10603128D01*
X285408207Y-10603128D02*
X285346303Y-10850747D01*
X285346303Y-10850747D02*
X285346303Y-11345985D01*
X285346303Y-11345985D02*
X285408207Y-11469795D01*
X285408207Y-11469795D02*
X285470112Y-11531700D01*
X285470112Y-11531700D02*
X285593922Y-11593604D01*
X285593922Y-11593604D02*
X285841541Y-11593604D01*
X285841541Y-11593604D02*
X285965350Y-11531700D01*
X285965350Y-11531700D02*
X286027255Y-11469795D01*
X286027255Y-11469795D02*
X286089160Y-11345985D01*
X286089160Y-11345985D02*
X286089160Y-11036461D01*
X286089160Y-11036461D02*
X286027255Y-10912652D01*
X286027255Y-10912652D02*
X285965350Y-10850747D01*
X285965350Y-10850747D02*
X285841541Y-10788842D01*
X285841541Y-10788842D02*
X285593922Y-10788842D01*
X285593922Y-10788842D02*
X285470112Y-10850747D01*
X285470112Y-10850747D02*
X285408207Y-10912652D01*
X285408207Y-10912652D02*
X285346303Y-11036461D01*
D10*
D11*
X60000000Y-198007200D02*
X60000000Y-200007200D01*
D10*
D11*
X110000000Y-198007200D02*
X110000000Y-200007200D01*
D10*
D11*
X160000000Y-198007200D02*
X160000000Y-200007200D01*
D10*
D11*
X210000000Y-198007200D02*
X210000000Y-200007200D01*
D10*
D11*
X260000000Y-198007200D02*
X260000000Y-200007200D01*
D10*
D11*
X36089160Y-199600804D02*
X35346303Y-199600804D01*
X35717731Y-199600804D02*
X35717731Y-198300804D01*
X35717731Y-198300804D02*
X35593922Y-198486519D01*
X35593922Y-198486519D02*
X35470112Y-198610328D01*
X35470112Y-198610328D02*
X35346303Y-198672233D01*
D10*
D11*
X85346303Y-198424614D02*
X85408207Y-198362709D01*
X85408207Y-198362709D02*
X85532017Y-198300804D01*
X85532017Y-198300804D02*
X85841541Y-198300804D01*
X85841541Y-198300804D02*
X85965350Y-198362709D01*
X85965350Y-198362709D02*
X86027255Y-198424614D01*
X86027255Y-198424614D02*
X86089160Y-198548423D01*
X86089160Y-198548423D02*
X86089160Y-198672233D01*
X86089160Y-198672233D02*
X86027255Y-198857947D01*
X86027255Y-198857947D02*
X85284398Y-199600804D01*
X85284398Y-199600804D02*
X86089160Y-199600804D01*
D10*
D11*
X135284398Y-198300804D02*
X136089160Y-198300804D01*
X136089160Y-198300804D02*
X135655826Y-198796042D01*
X135655826Y-198796042D02*
X135841541Y-198796042D01*
X135841541Y-198796042D02*
X135965350Y-198857947D01*
X135965350Y-198857947D02*
X136027255Y-198919852D01*
X136027255Y-198919852D02*
X136089160Y-199043661D01*
X136089160Y-199043661D02*
X136089160Y-199353185D01*
X136089160Y-199353185D02*
X136027255Y-199476995D01*
X136027255Y-199476995D02*
X135965350Y-199538900D01*
X135965350Y-199538900D02*
X135841541Y-199600804D01*
X135841541Y-199600804D02*
X135470112Y-199600804D01*
X135470112Y-199600804D02*
X135346303Y-199538900D01*
X135346303Y-199538900D02*
X135284398Y-199476995D01*
D10*
D11*
X185965350Y-198734138D02*
X185965350Y-199600804D01*
X185655826Y-198238900D02*
X185346303Y-199167471D01*
X185346303Y-199167471D02*
X186151064Y-199167471D01*
D10*
D11*
X236027255Y-198300804D02*
X235408207Y-198300804D01*
X235408207Y-198300804D02*
X235346303Y-198919852D01*
X235346303Y-198919852D02*
X235408207Y-198857947D01*
X235408207Y-198857947D02*
X235532017Y-198796042D01*
X235532017Y-198796042D02*
X235841541Y-198796042D01*
X235841541Y-198796042D02*
X235965350Y-198857947D01*
X235965350Y-198857947D02*
X236027255Y-198919852D01*
X236027255Y-198919852D02*
X236089160Y-199043661D01*
X236089160Y-199043661D02*
X236089160Y-199353185D01*
X236089160Y-199353185D02*
X236027255Y-199476995D01*
X236027255Y-199476995D02*
X235965350Y-199538900D01*
X235965350Y-199538900D02*
X235841541Y-199600804D01*
X235841541Y-199600804D02*
X235532017Y-199600804D01*
X235532017Y-199600804D02*
X235408207Y-199538900D01*
X235408207Y-199538900D02*
X235346303Y-199476995D01*
D10*
D11*
X285965350Y-198300804D02*
X285717731Y-198300804D01*
X285717731Y-198300804D02*
X285593922Y-198362709D01*
X285593922Y-198362709D02*
X285532017Y-198424614D01*
X285532017Y-198424614D02*
X285408207Y-198610328D01*
X285408207Y-198610328D02*
X285346303Y-198857947D01*
X285346303Y-198857947D02*
X285346303Y-199353185D01*
X285346303Y-199353185D02*
X285408207Y-199476995D01*
X285408207Y-199476995D02*
X285470112Y-199538900D01*
X285470112Y-199538900D02*
X285593922Y-199600804D01*
X285593922Y-199600804D02*
X285841541Y-199600804D01*
X285841541Y-199600804D02*
X285965350Y-199538900D01*
X285965350Y-199538900D02*
X286027255Y-199476995D01*
X286027255Y-199476995D02*
X286089160Y-199353185D01*
X286089160Y-199353185D02*
X286089160Y-199043661D01*
X286089160Y-199043661D02*
X286027255Y-198919852D01*
X286027255Y-198919852D02*
X285965350Y-198857947D01*
X285965350Y-198857947D02*
X285841541Y-198796042D01*
X285841541Y-198796042D02*
X285593922Y-198796042D01*
X285593922Y-198796042D02*
X285470112Y-198857947D01*
X285470112Y-198857947D02*
X285408207Y-198919852D01*
X285408207Y-198919852D02*
X285346303Y-199043661D01*
D10*
D11*
X10000000Y-60000000D02*
X12000000Y-60000000D01*
D10*
D11*
X10000000Y-110000000D02*
X12000000Y-110000000D01*
D10*
D11*
X10000000Y-160000000D02*
X12000000Y-160000000D01*
D10*
D11*
X10690476Y-35222176D02*
X11309523Y-35222176D01*
X10566666Y-35593604D02*
X10999999Y-34293604D01*
X10999999Y-34293604D02*
X11433333Y-35593604D01*
D10*
D11*
X11092857Y-84912652D02*
X11278571Y-84974557D01*
X11278571Y-84974557D02*
X11340476Y-85036461D01*
X11340476Y-85036461D02*
X11402380Y-85160271D01*
X11402380Y-85160271D02*
X11402380Y-85345985D01*
X11402380Y-85345985D02*
X11340476Y-85469795D01*
X11340476Y-85469795D02*
X11278571Y-85531700D01*
X11278571Y-85531700D02*
X11154761Y-85593604D01*
X11154761Y-85593604D02*
X10659523Y-85593604D01*
X10659523Y-85593604D02*
X10659523Y-84293604D01*
X10659523Y-84293604D02*
X11092857Y-84293604D01*
X11092857Y-84293604D02*
X11216666Y-84355509D01*
X11216666Y-84355509D02*
X11278571Y-84417414D01*
X11278571Y-84417414D02*
X11340476Y-84541223D01*
X11340476Y-84541223D02*
X11340476Y-84665033D01*
X11340476Y-84665033D02*
X11278571Y-84788842D01*
X11278571Y-84788842D02*
X11216666Y-84850747D01*
X11216666Y-84850747D02*
X11092857Y-84912652D01*
X11092857Y-84912652D02*
X10659523Y-84912652D01*
D10*
D11*
X11402380Y-135469795D02*
X11340476Y-135531700D01*
X11340476Y-135531700D02*
X11154761Y-135593604D01*
X11154761Y-135593604D02*
X11030952Y-135593604D01*
X11030952Y-135593604D02*
X10845238Y-135531700D01*
X10845238Y-135531700D02*
X10721428Y-135407890D01*
X10721428Y-135407890D02*
X10659523Y-135284080D01*
X10659523Y-135284080D02*
X10597619Y-135036461D01*
X10597619Y-135036461D02*
X10597619Y-134850747D01*
X10597619Y-134850747D02*
X10659523Y-134603128D01*
X10659523Y-134603128D02*
X10721428Y-134479319D01*
X10721428Y-134479319D02*
X10845238Y-134355509D01*
X10845238Y-134355509D02*
X11030952Y-134293604D01*
X11030952Y-134293604D02*
X11154761Y-134293604D01*
X11154761Y-134293604D02*
X11340476Y-134355509D01*
X11340476Y-134355509D02*
X11402380Y-134417414D01*
D10*
D11*
X10659523Y-185593604D02*
X10659523Y-184293604D01*
X10659523Y-184293604D02*
X10969047Y-184293604D01*
X10969047Y-184293604D02*
X11154761Y-184355509D01*
X11154761Y-184355509D02*
X11278571Y-184479319D01*
X11278571Y-184479319D02*
X11340476Y-184603128D01*
X11340476Y-184603128D02*
X11402380Y-184850747D01*
X11402380Y-184850747D02*
X11402380Y-185036461D01*
X11402380Y-185036461D02*
X11340476Y-185284080D01*
X11340476Y-185284080D02*
X11278571Y-185407890D01*
X11278571Y-185407890D02*
X11154761Y-185531700D01*
X11154761Y-185531700D02*
X10969047Y-185593604D01*
X10969047Y-185593604D02*
X10659523Y-185593604D01*
D10*
D11*
X287002200Y-60000000D02*
X285002200Y-60000000D01*
D10*
D11*
X287002200Y-110000000D02*
X285002200Y-110000000D01*
D10*
D11*
X287002200Y-160000000D02*
X285002200Y-160000000D01*
D10*
D11*
X285692676Y-35222176D02*
X286311723Y-35222176D01*
X285568866Y-35593604D02*
X286002199Y-34293604D01*
X286002199Y-34293604D02*
X286435533Y-35593604D01*
D10*
D11*
X286095057Y-84912652D02*
X286280771Y-84974557D01*
X286280771Y-84974557D02*
X286342676Y-85036461D01*
X286342676Y-85036461D02*
X286404580Y-85160271D01*
X286404580Y-85160271D02*
X286404580Y-85345985D01*
X286404580Y-85345985D02*
X286342676Y-85469795D01*
X286342676Y-85469795D02*
X286280771Y-85531700D01*
X286280771Y-85531700D02*
X286156961Y-85593604D01*
X286156961Y-85593604D02*
X285661723Y-85593604D01*
X285661723Y-85593604D02*
X285661723Y-84293604D01*
X285661723Y-84293604D02*
X286095057Y-84293604D01*
X286095057Y-84293604D02*
X286218866Y-84355509D01*
X286218866Y-84355509D02*
X286280771Y-84417414D01*
X286280771Y-84417414D02*
X286342676Y-84541223D01*
X286342676Y-84541223D02*
X286342676Y-84665033D01*
X286342676Y-84665033D02*
X286280771Y-84788842D01*
X286280771Y-84788842D02*
X286218866Y-84850747D01*
X286218866Y-84850747D02*
X286095057Y-84912652D01*
X286095057Y-84912652D02*
X285661723Y-84912652D01*
D10*
D11*
X286404580Y-135469795D02*
X286342676Y-135531700D01*
X286342676Y-135531700D02*
X286156961Y-135593604D01*
X286156961Y-135593604D02*
X286033152Y-135593604D01*
X286033152Y-135593604D02*
X285847438Y-135531700D01*
X285847438Y-135531700D02*
X285723628Y-135407890D01*
X285723628Y-135407890D02*
X285661723Y-135284080D01*
X285661723Y-135284080D02*
X285599819Y-135036461D01*
X285599819Y-135036461D02*
X285599819Y-134850747D01*
X285599819Y-134850747D02*
X285661723Y-134603128D01*
X285661723Y-134603128D02*
X285723628Y-134479319D01*
X285723628Y-134479319D02*
X285847438Y-134355509D01*
X285847438Y-134355509D02*
X286033152Y-134293604D01*
X286033152Y-134293604D02*
X286156961Y-134293604D01*
X286156961Y-134293604D02*
X286342676Y-134355509D01*
X286342676Y-134355509D02*
X286404580Y-134417414D01*
D10*
D11*
X285661723Y-185593604D02*
X285661723Y-184293604D01*
X285661723Y-184293604D02*
X285971247Y-184293604D01*
X285971247Y-184293604D02*
X286156961Y-184355509D01*
X286156961Y-184355509D02*
X286280771Y-184479319D01*
X286280771Y-184479319D02*
X286342676Y-184603128D01*
X286342676Y-184603128D02*
X286404580Y-184850747D01*
X286404580Y-184850747D02*
X286404580Y-185036461D01*
X286404580Y-185036461D02*
X286342676Y-185284080D01*
X286342676Y-185284080D02*
X286280771Y-185407890D01*
X286280771Y-185407890D02*
X286156961Y-185531700D01*
X286156961Y-185531700D02*
X285971247Y-185593604D01*
X285971247Y-185593604D02*
X285661723Y-185593604D01*
D10*
D11*
X200458026Y-193793328D02*
X200458026Y-192293328D01*
X200458026Y-192293328D02*
X200815169Y-192293328D01*
X200815169Y-192293328D02*
X201029455Y-192364757D01*
X201029455Y-192364757D02*
X201172312Y-192507614D01*
X201172312Y-192507614D02*
X201243741Y-192650471D01*
X201243741Y-192650471D02*
X201315169Y-192936185D01*
X201315169Y-192936185D02*
X201315169Y-193150471D01*
X201315169Y-193150471D02*
X201243741Y-193436185D01*
X201243741Y-193436185D02*
X201172312Y-193579042D01*
X201172312Y-193579042D02*
X201029455Y-193721900D01*
X201029455Y-193721900D02*
X200815169Y-193793328D01*
X200815169Y-193793328D02*
X200458026Y-193793328D01*
X202600884Y-193793328D02*
X202600884Y-193007614D01*
X202600884Y-193007614D02*
X202529455Y-192864757D01*
X202529455Y-192864757D02*
X202386598Y-192793328D01*
X202386598Y-192793328D02*
X202100884Y-192793328D01*
X202100884Y-192793328D02*
X201958026Y-192864757D01*
X202600884Y-193721900D02*
X202458026Y-193793328D01*
X202458026Y-193793328D02*
X202100884Y-193793328D01*
X202100884Y-193793328D02*
X201958026Y-193721900D01*
X201958026Y-193721900D02*
X201886598Y-193579042D01*
X201886598Y-193579042D02*
X201886598Y-193436185D01*
X201886598Y-193436185D02*
X201958026Y-193293328D01*
X201958026Y-193293328D02*
X202100884Y-193221900D01*
X202100884Y-193221900D02*
X202458026Y-193221900D01*
X202458026Y-193221900D02*
X202600884Y-193150471D01*
X203100884Y-192793328D02*
X203672312Y-192793328D01*
X203315169Y-192293328D02*
X203315169Y-193579042D01*
X203315169Y-193579042D02*
X203386598Y-193721900D01*
X203386598Y-193721900D02*
X203529455Y-193793328D01*
X203529455Y-193793328D02*
X203672312Y-193793328D01*
X204743741Y-193721900D02*
X204600884Y-193793328D01*
X204600884Y-193793328D02*
X204315170Y-193793328D01*
X204315170Y-193793328D02*
X204172312Y-193721900D01*
X204172312Y-193721900D02*
X204100884Y-193579042D01*
X204100884Y-193579042D02*
X204100884Y-193007614D01*
X204100884Y-193007614D02*
X204172312Y-192864757D01*
X204172312Y-192864757D02*
X204315170Y-192793328D01*
X204315170Y-192793328D02*
X204600884Y-192793328D01*
X204600884Y-192793328D02*
X204743741Y-192864757D01*
X204743741Y-192864757D02*
X204815170Y-193007614D01*
X204815170Y-193007614D02*
X204815170Y-193150471D01*
X204815170Y-193150471D02*
X204100884Y-193293328D01*
X205458026Y-193650471D02*
X205529455Y-193721900D01*
X205529455Y-193721900D02*
X205458026Y-193793328D01*
X205458026Y-193793328D02*
X205386598Y-193721900D01*
X205386598Y-193721900D02*
X205458026Y-193650471D01*
X205458026Y-193650471D02*
X205458026Y-193793328D01*
X205458026Y-192864757D02*
X205529455Y-192936185D01*
X205529455Y-192936185D02*
X205458026Y-193007614D01*
X205458026Y-193007614D02*
X205386598Y-192936185D01*
X205386598Y-192936185D02*
X205458026Y-192864757D01*
X205458026Y-192864757D02*
X205458026Y-193007614D01*
X207243741Y-192436185D02*
X207315169Y-192364757D01*
X207315169Y-192364757D02*
X207458027Y-192293328D01*
X207458027Y-192293328D02*
X207815169Y-192293328D01*
X207815169Y-192293328D02*
X207958027Y-192364757D01*
X207958027Y-192364757D02*
X208029455Y-192436185D01*
X208029455Y-192436185D02*
X208100884Y-192579042D01*
X208100884Y-192579042D02*
X208100884Y-192721900D01*
X208100884Y-192721900D02*
X208029455Y-192936185D01*
X208029455Y-192936185D02*
X207172312Y-193793328D01*
X207172312Y-193793328D02*
X208100884Y-193793328D01*
X209029455Y-192293328D02*
X209172312Y-192293328D01*
X209172312Y-192293328D02*
X209315169Y-192364757D01*
X209315169Y-192364757D02*
X209386598Y-192436185D01*
X209386598Y-192436185D02*
X209458026Y-192579042D01*
X209458026Y-192579042D02*
X209529455Y-192864757D01*
X209529455Y-192864757D02*
X209529455Y-193221900D01*
X209529455Y-193221900D02*
X209458026Y-193507614D01*
X209458026Y-193507614D02*
X209386598Y-193650471D01*
X209386598Y-193650471D02*
X209315169Y-193721900D01*
X209315169Y-193721900D02*
X209172312Y-193793328D01*
X209172312Y-193793328D02*
X209029455Y-193793328D01*
X209029455Y-193793328D02*
X208886598Y-193721900D01*
X208886598Y-193721900D02*
X208815169Y-193650471D01*
X208815169Y-193650471D02*
X208743740Y-193507614D01*
X208743740Y-193507614D02*
X208672312Y-193221900D01*
X208672312Y-193221900D02*
X208672312Y-192864757D01*
X208672312Y-192864757D02*
X208743740Y-192579042D01*
X208743740Y-192579042D02*
X208815169Y-192436185D01*
X208815169Y-192436185D02*
X208886598Y-192364757D01*
X208886598Y-192364757D02*
X209029455Y-192293328D01*
X210100883Y-192436185D02*
X210172311Y-192364757D01*
X210172311Y-192364757D02*
X210315169Y-192293328D01*
X210315169Y-192293328D02*
X210672311Y-192293328D01*
X210672311Y-192293328D02*
X210815169Y-192364757D01*
X210815169Y-192364757D02*
X210886597Y-192436185D01*
X210886597Y-192436185D02*
X210958026Y-192579042D01*
X210958026Y-192579042D02*
X210958026Y-192721900D01*
X210958026Y-192721900D02*
X210886597Y-192936185D01*
X210886597Y-192936185D02*
X210029454Y-193793328D01*
X210029454Y-193793328D02*
X210958026Y-193793328D01*
X212386597Y-193793328D02*
X211529454Y-193793328D01*
X211958025Y-193793328D02*
X211958025Y-192293328D01*
X211958025Y-192293328D02*
X211815168Y-192507614D01*
X211815168Y-192507614D02*
X211672311Y-192650471D01*
X211672311Y-192650471D02*
X211529454Y-192721900D01*
X213029453Y-193221900D02*
X214172311Y-193221900D01*
X215672311Y-193793328D02*
X214815168Y-193793328D01*
X215243739Y-193793328D02*
X215243739Y-192293328D01*
X215243739Y-192293328D02*
X215100882Y-192507614D01*
X215100882Y-192507614D02*
X214958025Y-192650471D01*
X214958025Y-192650471D02*
X214815168Y-192721900D01*
X216243739Y-192436185D02*
X216315167Y-192364757D01*
X216315167Y-192364757D02*
X216458025Y-192293328D01*
X216458025Y-192293328D02*
X216815167Y-192293328D01*
X216815167Y-192293328D02*
X216958025Y-192364757D01*
X216958025Y-192364757D02*
X217029453Y-192436185D01*
X217029453Y-192436185D02*
X217100882Y-192579042D01*
X217100882Y-192579042D02*
X217100882Y-192721900D01*
X217100882Y-192721900D02*
X217029453Y-192936185D01*
X217029453Y-192936185D02*
X216172310Y-193793328D01*
X216172310Y-193793328D02*
X217100882Y-193793328D01*
X217743738Y-193221900D02*
X218886596Y-193221900D01*
X219529453Y-192436185D02*
X219600881Y-192364757D01*
X219600881Y-192364757D02*
X219743739Y-192293328D01*
X219743739Y-192293328D02*
X220100881Y-192293328D01*
X220100881Y-192293328D02*
X220243739Y-192364757D01*
X220243739Y-192364757D02*
X220315167Y-192436185D01*
X220315167Y-192436185D02*
X220386596Y-192579042D01*
X220386596Y-192579042D02*
X220386596Y-192721900D01*
X220386596Y-192721900D02*
X220315167Y-192936185D01*
X220315167Y-192936185D02*
X219458024Y-193793328D01*
X219458024Y-193793328D02*
X220386596Y-193793328D01*
X221243738Y-192936185D02*
X221100881Y-192864757D01*
X221100881Y-192864757D02*
X221029452Y-192793328D01*
X221029452Y-192793328D02*
X220958024Y-192650471D01*
X220958024Y-192650471D02*
X220958024Y-192579042D01*
X220958024Y-192579042D02*
X221029452Y-192436185D01*
X221029452Y-192436185D02*
X221100881Y-192364757D01*
X221100881Y-192364757D02*
X221243738Y-192293328D01*
X221243738Y-192293328D02*
X221529452Y-192293328D01*
X221529452Y-192293328D02*
X221672310Y-192364757D01*
X221672310Y-192364757D02*
X221743738Y-192436185D01*
X221743738Y-192436185D02*
X221815167Y-192579042D01*
X221815167Y-192579042D02*
X221815167Y-192650471D01*
X221815167Y-192650471D02*
X221743738Y-192793328D01*
X221743738Y-192793328D02*
X221672310Y-192864757D01*
X221672310Y-192864757D02*
X221529452Y-192936185D01*
X221529452Y-192936185D02*
X221243738Y-192936185D01*
X221243738Y-192936185D02*
X221100881Y-193007614D01*
X221100881Y-193007614D02*
X221029452Y-193079042D01*
X221029452Y-193079042D02*
X220958024Y-193221900D01*
X220958024Y-193221900D02*
X220958024Y-193507614D01*
X220958024Y-193507614D02*
X221029452Y-193650471D01*
X221029452Y-193650471D02*
X221100881Y-193721900D01*
X221100881Y-193721900D02*
X221243738Y-193793328D01*
X221243738Y-193793328D02*
X221529452Y-193793328D01*
X221529452Y-193793328D02*
X221672310Y-193721900D01*
X221672310Y-193721900D02*
X221743738Y-193650471D01*
X221743738Y-193650471D02*
X221815167Y-193507614D01*
X221815167Y-193507614D02*
X221815167Y-193221900D01*
X221815167Y-193221900D02*
X221743738Y-193079042D01*
X221743738Y-193079042D02*
X221672310Y-193007614D01*
X221672310Y-193007614D02*
X221529452Y-192936185D01*
D10*
D11*
X177002200Y-194507200D02*
X285002200Y-194507200D01*
D10*
D11*
X178458026Y-196593328D02*
X178458026Y-195093328D01*
X179315169Y-196593328D02*
X178672312Y-195736185D01*
X179315169Y-195093328D02*
X178458026Y-195950471D01*
X179958026Y-196593328D02*
X179958026Y-195593328D01*
X179958026Y-195093328D02*
X179886598Y-195164757D01*
X179886598Y-195164757D02*
X179958026Y-195236185D01*
X179958026Y-195236185D02*
X180029455Y-195164757D01*
X180029455Y-195164757D02*
X179958026Y-195093328D01*
X179958026Y-195093328D02*
X179958026Y-195236185D01*
X181529455Y-196450471D02*
X181458027Y-196521900D01*
X181458027Y-196521900D02*
X181243741Y-196593328D01*
X181243741Y-196593328D02*
X181100884Y-196593328D01*
X181100884Y-196593328D02*
X180886598Y-196521900D01*
X180886598Y-196521900D02*
X180743741Y-196379042D01*
X180743741Y-196379042D02*
X180672312Y-196236185D01*
X180672312Y-196236185D02*
X180600884Y-195950471D01*
X180600884Y-195950471D02*
X180600884Y-195736185D01*
X180600884Y-195736185D02*
X180672312Y-195450471D01*
X180672312Y-195450471D02*
X180743741Y-195307614D01*
X180743741Y-195307614D02*
X180886598Y-195164757D01*
X180886598Y-195164757D02*
X181100884Y-195093328D01*
X181100884Y-195093328D02*
X181243741Y-195093328D01*
X181243741Y-195093328D02*
X181458027Y-195164757D01*
X181458027Y-195164757D02*
X181529455Y-195236185D01*
X182815170Y-196593328D02*
X182815170Y-195807614D01*
X182815170Y-195807614D02*
X182743741Y-195664757D01*
X182743741Y-195664757D02*
X182600884Y-195593328D01*
X182600884Y-195593328D02*
X182315170Y-195593328D01*
X182315170Y-195593328D02*
X182172312Y-195664757D01*
X182815170Y-196521900D02*
X182672312Y-196593328D01*
X182672312Y-196593328D02*
X182315170Y-196593328D01*
X182315170Y-196593328D02*
X182172312Y-196521900D01*
X182172312Y-196521900D02*
X182100884Y-196379042D01*
X182100884Y-196379042D02*
X182100884Y-196236185D01*
X182100884Y-196236185D02*
X182172312Y-196093328D01*
X182172312Y-196093328D02*
X182315170Y-196021900D01*
X182315170Y-196021900D02*
X182672312Y-196021900D01*
X182672312Y-196021900D02*
X182815170Y-195950471D01*
X184172313Y-196593328D02*
X184172313Y-195093328D01*
X184172313Y-196521900D02*
X184029455Y-196593328D01*
X184029455Y-196593328D02*
X183743741Y-196593328D01*
X183743741Y-196593328D02*
X183600884Y-196521900D01*
X183600884Y-196521900D02*
X183529455Y-196450471D01*
X183529455Y-196450471D02*
X183458027Y-196307614D01*
X183458027Y-196307614D02*
X183458027Y-195879042D01*
X183458027Y-195879042D02*
X183529455Y-195736185D01*
X183529455Y-195736185D02*
X183600884Y-195664757D01*
X183600884Y-195664757D02*
X183743741Y-195593328D01*
X183743741Y-195593328D02*
X184029455Y-195593328D01*
X184029455Y-195593328D02*
X184172313Y-195664757D01*
X186029455Y-195807614D02*
X186529455Y-195807614D01*
X186743741Y-196593328D02*
X186029455Y-196593328D01*
X186029455Y-196593328D02*
X186029455Y-195093328D01*
X186029455Y-195093328D02*
X186743741Y-195093328D01*
X187386598Y-196450471D02*
X187458027Y-196521900D01*
X187458027Y-196521900D02*
X187386598Y-196593328D01*
X187386598Y-196593328D02*
X187315170Y-196521900D01*
X187315170Y-196521900D02*
X187386598Y-196450471D01*
X187386598Y-196450471D02*
X187386598Y-196593328D01*
X188100884Y-196593328D02*
X188100884Y-195093328D01*
X188100884Y-195093328D02*
X188458027Y-195093328D01*
X188458027Y-195093328D02*
X188672313Y-195164757D01*
X188672313Y-195164757D02*
X188815170Y-195307614D01*
X188815170Y-195307614D02*
X188886599Y-195450471D01*
X188886599Y-195450471D02*
X188958027Y-195736185D01*
X188958027Y-195736185D02*
X188958027Y-195950471D01*
X188958027Y-195950471D02*
X188886599Y-196236185D01*
X188886599Y-196236185D02*
X188815170Y-196379042D01*
X188815170Y-196379042D02*
X188672313Y-196521900D01*
X188672313Y-196521900D02*
X188458027Y-196593328D01*
X188458027Y-196593328D02*
X188100884Y-196593328D01*
X189600884Y-196450471D02*
X189672313Y-196521900D01*
X189672313Y-196521900D02*
X189600884Y-196593328D01*
X189600884Y-196593328D02*
X189529456Y-196521900D01*
X189529456Y-196521900D02*
X189600884Y-196450471D01*
X189600884Y-196450471D02*
X189600884Y-196593328D01*
X190243742Y-196164757D02*
X190958028Y-196164757D01*
X190100885Y-196593328D02*
X190600885Y-195093328D01*
X190600885Y-195093328D02*
X191100885Y-196593328D01*
X191600884Y-196450471D02*
X191672313Y-196521900D01*
X191672313Y-196521900D02*
X191600884Y-196593328D01*
X191600884Y-196593328D02*
X191529456Y-196521900D01*
X191529456Y-196521900D02*
X191600884Y-196450471D01*
X191600884Y-196450471D02*
X191600884Y-196593328D01*
X194600884Y-196593328D02*
X194600884Y-195093328D01*
X194743742Y-196021900D02*
X195172313Y-196593328D01*
X195172313Y-195593328D02*
X194600884Y-196164757D01*
X195815170Y-196593328D02*
X195815170Y-195593328D01*
X195815170Y-195093328D02*
X195743742Y-195164757D01*
X195743742Y-195164757D02*
X195815170Y-195236185D01*
X195815170Y-195236185D02*
X195886599Y-195164757D01*
X195886599Y-195164757D02*
X195815170Y-195093328D01*
X195815170Y-195093328D02*
X195815170Y-195236185D01*
X197172314Y-196521900D02*
X197029456Y-196593328D01*
X197029456Y-196593328D02*
X196743742Y-196593328D01*
X196743742Y-196593328D02*
X196600885Y-196521900D01*
X196600885Y-196521900D02*
X196529456Y-196450471D01*
X196529456Y-196450471D02*
X196458028Y-196307614D01*
X196458028Y-196307614D02*
X196458028Y-195879042D01*
X196458028Y-195879042D02*
X196529456Y-195736185D01*
X196529456Y-195736185D02*
X196600885Y-195664757D01*
X196600885Y-195664757D02*
X196743742Y-195593328D01*
X196743742Y-195593328D02*
X197029456Y-195593328D01*
X197029456Y-195593328D02*
X197172314Y-195664757D01*
X198458028Y-196593328D02*
X198458028Y-195807614D01*
X198458028Y-195807614D02*
X198386599Y-195664757D01*
X198386599Y-195664757D02*
X198243742Y-195593328D01*
X198243742Y-195593328D02*
X197958028Y-195593328D01*
X197958028Y-195593328D02*
X197815170Y-195664757D01*
X198458028Y-196521900D02*
X198315170Y-196593328D01*
X198315170Y-196593328D02*
X197958028Y-196593328D01*
X197958028Y-196593328D02*
X197815170Y-196521900D01*
X197815170Y-196521900D02*
X197743742Y-196379042D01*
X197743742Y-196379042D02*
X197743742Y-196236185D01*
X197743742Y-196236185D02*
X197815170Y-196093328D01*
X197815170Y-196093328D02*
X197958028Y-196021900D01*
X197958028Y-196021900D02*
X198315170Y-196021900D01*
X198315170Y-196021900D02*
X198458028Y-195950471D01*
X199815171Y-196593328D02*
X199815171Y-195093328D01*
X199815171Y-196521900D02*
X199672313Y-196593328D01*
X199672313Y-196593328D02*
X199386599Y-196593328D01*
X199386599Y-196593328D02*
X199243742Y-196521900D01*
X199243742Y-196521900D02*
X199172313Y-196450471D01*
X199172313Y-196450471D02*
X199100885Y-196307614D01*
X199100885Y-196307614D02*
X199100885Y-195879042D01*
X199100885Y-195879042D02*
X199172313Y-195736185D01*
X199172313Y-195736185D02*
X199243742Y-195664757D01*
X199243742Y-195664757D02*
X199386599Y-195593328D01*
X199386599Y-195593328D02*
X199672313Y-195593328D01*
X199672313Y-195593328D02*
X199815171Y-195664757D01*
X201529456Y-195093328D02*
X202529456Y-195093328D01*
X202529456Y-195093328D02*
X201886599Y-196593328D01*
X203100884Y-196450471D02*
X203172313Y-196521900D01*
X203172313Y-196521900D02*
X203100884Y-196593328D01*
X203100884Y-196593328D02*
X203029456Y-196521900D01*
X203029456Y-196521900D02*
X203100884Y-196450471D01*
X203100884Y-196450471D02*
X203100884Y-196593328D01*
X204100885Y-195093328D02*
X204243742Y-195093328D01*
X204243742Y-195093328D02*
X204386599Y-195164757D01*
X204386599Y-195164757D02*
X204458028Y-195236185D01*
X204458028Y-195236185D02*
X204529456Y-195379042D01*
X204529456Y-195379042D02*
X204600885Y-195664757D01*
X204600885Y-195664757D02*
X204600885Y-196021900D01*
X204600885Y-196021900D02*
X204529456Y-196307614D01*
X204529456Y-196307614D02*
X204458028Y-196450471D01*
X204458028Y-196450471D02*
X204386599Y-196521900D01*
X204386599Y-196521900D02*
X204243742Y-196593328D01*
X204243742Y-196593328D02*
X204100885Y-196593328D01*
X204100885Y-196593328D02*
X203958028Y-196521900D01*
X203958028Y-196521900D02*
X203886599Y-196450471D01*
X203886599Y-196450471D02*
X203815170Y-196307614D01*
X203815170Y-196307614D02*
X203743742Y-196021900D01*
X203743742Y-196021900D02*
X203743742Y-195664757D01*
X203743742Y-195664757D02*
X203815170Y-195379042D01*
X203815170Y-195379042D02*
X203886599Y-195236185D01*
X203886599Y-195236185D02*
X203958028Y-195164757D01*
X203958028Y-195164757D02*
X204100885Y-195093328D01*
X205243741Y-196450471D02*
X205315170Y-196521900D01*
X205315170Y-196521900D02*
X205243741Y-196593328D01*
X205243741Y-196593328D02*
X205172313Y-196521900D01*
X205172313Y-196521900D02*
X205243741Y-196450471D01*
X205243741Y-196450471D02*
X205243741Y-196593328D01*
X205815170Y-195093328D02*
X206815170Y-195093328D01*
X206815170Y-195093328D02*
X206172313Y-196593328D01*
D10*
D11*
X177002200Y-191507200D02*
X285002200Y-191507200D01*
D10*
D12*
X264413853Y-193785528D02*
X263913853Y-193071242D01*
X263556710Y-193785528D02*
X263556710Y-192285528D01*
X263556710Y-192285528D02*
X264128139Y-192285528D01*
X264128139Y-192285528D02*
X264270996Y-192356957D01*
X264270996Y-192356957D02*
X264342425Y-192428385D01*
X264342425Y-192428385D02*
X264413853Y-192571242D01*
X264413853Y-192571242D02*
X264413853Y-192785528D01*
X264413853Y-192785528D02*
X264342425Y-192928385D01*
X264342425Y-192928385D02*
X264270996Y-192999814D01*
X264270996Y-192999814D02*
X264128139Y-193071242D01*
X264128139Y-193071242D02*
X263556710Y-193071242D01*
X265628139Y-193714100D02*
X265485282Y-193785528D01*
X265485282Y-193785528D02*
X265199568Y-193785528D01*
X265199568Y-193785528D02*
X265056710Y-193714100D01*
X265056710Y-193714100D02*
X264985282Y-193571242D01*
X264985282Y-193571242D02*
X264985282Y-192999814D01*
X264985282Y-192999814D02*
X265056710Y-192856957D01*
X265056710Y-192856957D02*
X265199568Y-192785528D01*
X265199568Y-192785528D02*
X265485282Y-192785528D01*
X265485282Y-192785528D02*
X265628139Y-192856957D01*
X265628139Y-192856957D02*
X265699568Y-192999814D01*
X265699568Y-192999814D02*
X265699568Y-193142671D01*
X265699568Y-193142671D02*
X264985282Y-193285528D01*
X266199567Y-192785528D02*
X266556710Y-193785528D01*
X266556710Y-193785528D02*
X266913853Y-192785528D01*
X267485281Y-193642671D02*
X267556710Y-193714100D01*
X267556710Y-193714100D02*
X267485281Y-193785528D01*
X267485281Y-193785528D02*
X267413853Y-193714100D01*
X267413853Y-193714100D02*
X267485281Y-193642671D01*
X267485281Y-193642671D02*
X267485281Y-193785528D01*
X267485281Y-192856957D02*
X267556710Y-192928385D01*
X267556710Y-192928385D02*
X267485281Y-192999814D01*
X267485281Y-192999814D02*
X267413853Y-192928385D01*
X267413853Y-192928385D02*
X267485281Y-192856957D01*
X267485281Y-192856957D02*
X267485281Y-192999814D01*
X270056710Y-192285528D02*
X269342424Y-192285528D01*
X269342424Y-192285528D02*
X269270996Y-192999814D01*
X269270996Y-192999814D02*
X269342424Y-192928385D01*
X269342424Y-192928385D02*
X269485282Y-192856957D01*
X269485282Y-192856957D02*
X269842424Y-192856957D01*
X269842424Y-192856957D02*
X269985282Y-192928385D01*
X269985282Y-192928385D02*
X270056710Y-192999814D01*
X270056710Y-192999814D02*
X270128139Y-193142671D01*
X270128139Y-193142671D02*
X270128139Y-193499814D01*
X270128139Y-193499814D02*
X270056710Y-193642671D01*
X270056710Y-193642671D02*
X269985282Y-193714100D01*
X269985282Y-193714100D02*
X269842424Y-193785528D01*
X269842424Y-193785528D02*
X269485282Y-193785528D01*
X269485282Y-193785528D02*
X269342424Y-193714100D01*
X269342424Y-193714100D02*
X269270996Y-193642671D01*
X270770995Y-193642671D02*
X270842424Y-193714100D01*
X270842424Y-193714100D02*
X270770995Y-193785528D01*
X270770995Y-193785528D02*
X270699567Y-193714100D01*
X270699567Y-193714100D02*
X270770995Y-193642671D01*
X270770995Y-193642671D02*
X270770995Y-193785528D01*
X271342424Y-192285528D02*
X272270996Y-192285528D01*
X272270996Y-192285528D02*
X271770996Y-192856957D01*
X271770996Y-192856957D02*
X271985281Y-192856957D01*
X271985281Y-192856957D02*
X272128139Y-192928385D01*
X272128139Y-192928385D02*
X272199567Y-192999814D01*
X272199567Y-192999814D02*
X272270996Y-193142671D01*
X272270996Y-193142671D02*
X272270996Y-193499814D01*
X272270996Y-193499814D02*
X272199567Y-193642671D01*
X272199567Y-193642671D02*
X272128139Y-193714100D01*
X272128139Y-193714100D02*
X271985281Y-193785528D01*
X271985281Y-193785528D02*
X271556710Y-193785528D01*
X271556710Y-193785528D02*
X271413853Y-193714100D01*
X271413853Y-193714100D02*
X271342424Y-193642671D01*
D10*
D11*
X178386598Y-193721900D02*
X178600884Y-193793328D01*
X178600884Y-193793328D02*
X178958026Y-193793328D01*
X178958026Y-193793328D02*
X179100884Y-193721900D01*
X179100884Y-193721900D02*
X179172312Y-193650471D01*
X179172312Y-193650471D02*
X179243741Y-193507614D01*
X179243741Y-193507614D02*
X179243741Y-193364757D01*
X179243741Y-193364757D02*
X179172312Y-193221900D01*
X179172312Y-193221900D02*
X179100884Y-193150471D01*
X179100884Y-193150471D02*
X178958026Y-193079042D01*
X178958026Y-193079042D02*
X178672312Y-193007614D01*
X178672312Y-193007614D02*
X178529455Y-192936185D01*
X178529455Y-192936185D02*
X178458026Y-192864757D01*
X178458026Y-192864757D02*
X178386598Y-192721900D01*
X178386598Y-192721900D02*
X178386598Y-192579042D01*
X178386598Y-192579042D02*
X178458026Y-192436185D01*
X178458026Y-192436185D02*
X178529455Y-192364757D01*
X178529455Y-192364757D02*
X178672312Y-192293328D01*
X178672312Y-192293328D02*
X179029455Y-192293328D01*
X179029455Y-192293328D02*
X179243741Y-192364757D01*
X179886597Y-193793328D02*
X179886597Y-192793328D01*
X179886597Y-192293328D02*
X179815169Y-192364757D01*
X179815169Y-192364757D02*
X179886597Y-192436185D01*
X179886597Y-192436185D02*
X179958026Y-192364757D01*
X179958026Y-192364757D02*
X179886597Y-192293328D01*
X179886597Y-192293328D02*
X179886597Y-192436185D01*
X180458026Y-192793328D02*
X181243741Y-192793328D01*
X181243741Y-192793328D02*
X180458026Y-193793328D01*
X180458026Y-193793328D02*
X181243741Y-193793328D01*
X182386598Y-193721900D02*
X182243741Y-193793328D01*
X182243741Y-193793328D02*
X181958027Y-193793328D01*
X181958027Y-193793328D02*
X181815169Y-193721900D01*
X181815169Y-193721900D02*
X181743741Y-193579042D01*
X181743741Y-193579042D02*
X181743741Y-193007614D01*
X181743741Y-193007614D02*
X181815169Y-192864757D01*
X181815169Y-192864757D02*
X181958027Y-192793328D01*
X181958027Y-192793328D02*
X182243741Y-192793328D01*
X182243741Y-192793328D02*
X182386598Y-192864757D01*
X182386598Y-192864757D02*
X182458027Y-193007614D01*
X182458027Y-193007614D02*
X182458027Y-193150471D01*
X182458027Y-193150471D02*
X181743741Y-193293328D01*
X183100883Y-193650471D02*
X183172312Y-193721900D01*
X183172312Y-193721900D02*
X183100883Y-193793328D01*
X183100883Y-193793328D02*
X183029455Y-193721900D01*
X183029455Y-193721900D02*
X183100883Y-193650471D01*
X183100883Y-193650471D02*
X183100883Y-193793328D01*
X183100883Y-192864757D02*
X183172312Y-192936185D01*
X183172312Y-192936185D02*
X183100883Y-193007614D01*
X183100883Y-193007614D02*
X183029455Y-192936185D01*
X183029455Y-192936185D02*
X183100883Y-192864757D01*
X183100883Y-192864757D02*
X183100883Y-193007614D01*
X184886598Y-193364757D02*
X185600884Y-193364757D01*
X184743741Y-193793328D02*
X185243741Y-192293328D01*
X185243741Y-192293328D02*
X185743741Y-193793328D01*
X186886598Y-192793328D02*
X186886598Y-193793328D01*
X186529455Y-192221900D02*
X186172312Y-193293328D01*
X186172312Y-193293328D02*
X187100883Y-193293328D01*
D10*
D11*
X263458026Y-196593328D02*
X263458026Y-195093328D01*
X264815170Y-196593328D02*
X264815170Y-195093328D01*
X264815170Y-196521900D02*
X264672312Y-196593328D01*
X264672312Y-196593328D02*
X264386598Y-196593328D01*
X264386598Y-196593328D02*
X264243741Y-196521900D01*
X264243741Y-196521900D02*
X264172312Y-196450471D01*
X264172312Y-196450471D02*
X264100884Y-196307614D01*
X264100884Y-196307614D02*
X264100884Y-195879042D01*
X264100884Y-195879042D02*
X264172312Y-195736185D01*
X264172312Y-195736185D02*
X264243741Y-195664757D01*
X264243741Y-195664757D02*
X264386598Y-195593328D01*
X264386598Y-195593328D02*
X264672312Y-195593328D01*
X264672312Y-195593328D02*
X264815170Y-195664757D01*
X265529455Y-196450471D02*
X265600884Y-196521900D01*
X265600884Y-196521900D02*
X265529455Y-196593328D01*
X265529455Y-196593328D02*
X265458027Y-196521900D01*
X265458027Y-196521900D02*
X265529455Y-196450471D01*
X265529455Y-196450471D02*
X265529455Y-196593328D01*
X265529455Y-195664757D02*
X265600884Y-195736185D01*
X265600884Y-195736185D02*
X265529455Y-195807614D01*
X265529455Y-195807614D02*
X265458027Y-195736185D01*
X265458027Y-195736185D02*
X265529455Y-195664757D01*
X265529455Y-195664757D02*
X265529455Y-195807614D01*
X268172313Y-196593328D02*
X267315170Y-196593328D01*
X267743741Y-196593328D02*
X267743741Y-195093328D01*
X267743741Y-195093328D02*
X267600884Y-195307614D01*
X267600884Y-195307614D02*
X267458027Y-195450471D01*
X267458027Y-195450471D02*
X267315170Y-195521900D01*
X269886598Y-195021900D02*
X268600884Y-196950471D01*
X271172313Y-196593328D02*
X270315170Y-196593328D01*
X270743741Y-196593328D02*
X270743741Y-195093328D01*
X270743741Y-195093328D02*
X270600884Y-195307614D01*
X270600884Y-195307614D02*
X270458027Y-195450471D01*
X270458027Y-195450471D02*
X270315170Y-195521900D01*
D10*
D11*
X177002200Y-187507200D02*
X285002200Y-187507200D01*
D10*
D13*
X178693928Y-188211638D02*
X179836785Y-188211638D01*
X179015357Y-190211638D02*
X179265357Y-188211638D01*
X180253452Y-190211638D02*
X180420119Y-188878304D01*
X180503452Y-188211638D02*
X180396309Y-188306876D01*
X180396309Y-188306876D02*
X180479643Y-188402114D01*
X180479643Y-188402114D02*
X180586786Y-188306876D01*
X180586786Y-188306876D02*
X180503452Y-188211638D01*
X180503452Y-188211638D02*
X180479643Y-188402114D01*
X181086786Y-188878304D02*
X181848690Y-188878304D01*
X181455833Y-188211638D02*
X181241548Y-189925923D01*
X181241548Y-189925923D02*
X181312976Y-190116400D01*
X181312976Y-190116400D02*
X181491548Y-190211638D01*
X181491548Y-190211638D02*
X181682024Y-190211638D01*
X182634405Y-190211638D02*
X182455833Y-190116400D01*
X182455833Y-190116400D02*
X182384405Y-189925923D01*
X182384405Y-189925923D02*
X182598690Y-188211638D01*
X184170119Y-190116400D02*
X183967738Y-190211638D01*
X183967738Y-190211638D02*
X183586785Y-190211638D01*
X183586785Y-190211638D02*
X183408214Y-190116400D01*
X183408214Y-190116400D02*
X183336785Y-189925923D01*
X183336785Y-189925923D02*
X183432024Y-189164019D01*
X183432024Y-189164019D02*
X183551071Y-188973542D01*
X183551071Y-188973542D02*
X183753452Y-188878304D01*
X183753452Y-188878304D02*
X184134404Y-188878304D01*
X184134404Y-188878304D02*
X184312976Y-188973542D01*
X184312976Y-188973542D02*
X184384404Y-189164019D01*
X184384404Y-189164019D02*
X184360595Y-189354495D01*
X184360595Y-189354495D02*
X183384404Y-189544971D01*
X185134405Y-190021161D02*
X185217738Y-190116400D01*
X185217738Y-190116400D02*
X185110595Y-190211638D01*
X185110595Y-190211638D02*
X185027262Y-190116400D01*
X185027262Y-190116400D02*
X185134405Y-190021161D01*
X185134405Y-190021161D02*
X185110595Y-190211638D01*
X185265357Y-188973542D02*
X185348690Y-189068780D01*
X185348690Y-189068780D02*
X185241548Y-189164019D01*
X185241548Y-189164019D02*
X185158214Y-189068780D01*
X185158214Y-189068780D02*
X185265357Y-188973542D01*
X185265357Y-188973542D02*
X185241548Y-189164019D01*
D10*
D11*
X178958026Y-185607614D02*
X178458026Y-185607614D01*
X178458026Y-186393328D02*
X178458026Y-184893328D01*
X178458026Y-184893328D02*
X179172312Y-184893328D01*
X179743740Y-186393328D02*
X179743740Y-185393328D01*
X179743740Y-184893328D02*
X179672312Y-184964757D01*
X179672312Y-184964757D02*
X179743740Y-185036185D01*
X179743740Y-185036185D02*
X179815169Y-184964757D01*
X179815169Y-184964757D02*
X179743740Y-184893328D01*
X179743740Y-184893328D02*
X179743740Y-185036185D01*
X180672312Y-186393328D02*
X180529455Y-186321900D01*
X180529455Y-186321900D02*
X180458026Y-186179042D01*
X180458026Y-186179042D02*
X180458026Y-184893328D01*
X181815169Y-186321900D02*
X181672312Y-186393328D01*
X181672312Y-186393328D02*
X181386598Y-186393328D01*
X181386598Y-186393328D02*
X181243740Y-186321900D01*
X181243740Y-186321900D02*
X181172312Y-186179042D01*
X181172312Y-186179042D02*
X181172312Y-185607614D01*
X181172312Y-185607614D02*
X181243740Y-185464757D01*
X181243740Y-185464757D02*
X181386598Y-185393328D01*
X181386598Y-185393328D02*
X181672312Y-185393328D01*
X181672312Y-185393328D02*
X181815169Y-185464757D01*
X181815169Y-185464757D02*
X181886598Y-185607614D01*
X181886598Y-185607614D02*
X181886598Y-185750471D01*
X181886598Y-185750471D02*
X181172312Y-185893328D01*
X182529454Y-186250471D02*
X182600883Y-186321900D01*
X182600883Y-186321900D02*
X182529454Y-186393328D01*
X182529454Y-186393328D02*
X182458026Y-186321900D01*
X182458026Y-186321900D02*
X182529454Y-186250471D01*
X182529454Y-186250471D02*
X182529454Y-186393328D01*
X182529454Y-185464757D02*
X182600883Y-185536185D01*
X182600883Y-185536185D02*
X182529454Y-185607614D01*
X182529454Y-185607614D02*
X182458026Y-185536185D01*
X182458026Y-185536185D02*
X182529454Y-185464757D01*
X182529454Y-185464757D02*
X182529454Y-185607614D01*
X184386597Y-186393328D02*
X184386597Y-184893328D01*
X184386597Y-184893328D02*
X184958026Y-184893328D01*
X184958026Y-184893328D02*
X185100883Y-184964757D01*
X185100883Y-184964757D02*
X185172312Y-185036185D01*
X185172312Y-185036185D02*
X185243740Y-185179042D01*
X185243740Y-185179042D02*
X185243740Y-185393328D01*
X185243740Y-185393328D02*
X185172312Y-185536185D01*
X185172312Y-185536185D02*
X185100883Y-185607614D01*
X185100883Y-185607614D02*
X184958026Y-185679042D01*
X184958026Y-185679042D02*
X184386597Y-185679042D01*
X186100883Y-186393328D02*
X185958026Y-186321900D01*
X185958026Y-186321900D02*
X185886597Y-186250471D01*
X185886597Y-186250471D02*
X185815169Y-186107614D01*
X185815169Y-186107614D02*
X185815169Y-185679042D01*
X185815169Y-185679042D02*
X185886597Y-185536185D01*
X185886597Y-185536185D02*
X185958026Y-185464757D01*
X185958026Y-185464757D02*
X186100883Y-185393328D01*
X186100883Y-185393328D02*
X186315169Y-185393328D01*
X186315169Y-185393328D02*
X186458026Y-185464757D01*
X186458026Y-185464757D02*
X186529455Y-185536185D01*
X186529455Y-185536185D02*
X186600883Y-185679042D01*
X186600883Y-185679042D02*
X186600883Y-186107614D01*
X186600883Y-186107614D02*
X186529455Y-186250471D01*
X186529455Y-186250471D02*
X186458026Y-186321900D01*
X186458026Y-186321900D02*
X186315169Y-186393328D01*
X186315169Y-186393328D02*
X186100883Y-186393328D01*
X187100883Y-185393328D02*
X187386598Y-186393328D01*
X187386598Y-186393328D02*
X187672312Y-185679042D01*
X187672312Y-185679042D02*
X187958026Y-186393328D01*
X187958026Y-186393328D02*
X188243740Y-185393328D01*
X189386598Y-186321900D02*
X189243741Y-186393328D01*
X189243741Y-186393328D02*
X188958027Y-186393328D01*
X188958027Y-186393328D02*
X188815169Y-186321900D01*
X188815169Y-186321900D02*
X188743741Y-186179042D01*
X188743741Y-186179042D02*
X188743741Y-185607614D01*
X188743741Y-185607614D02*
X188815169Y-185464757D01*
X188815169Y-185464757D02*
X188958027Y-185393328D01*
X188958027Y-185393328D02*
X189243741Y-185393328D01*
X189243741Y-185393328D02*
X189386598Y-185464757D01*
X189386598Y-185464757D02*
X189458027Y-185607614D01*
X189458027Y-185607614D02*
X189458027Y-185750471D01*
X189458027Y-185750471D02*
X188743741Y-185893328D01*
X190100883Y-186393328D02*
X190100883Y-185393328D01*
X190100883Y-185679042D02*
X190172312Y-185536185D01*
X190172312Y-185536185D02*
X190243741Y-185464757D01*
X190243741Y-185464757D02*
X190386598Y-185393328D01*
X190386598Y-185393328D02*
X190529455Y-185393328D01*
X192100883Y-186321900D02*
X192315169Y-186393328D01*
X192315169Y-186393328D02*
X192672311Y-186393328D01*
X192672311Y-186393328D02*
X192815169Y-186321900D01*
X192815169Y-186321900D02*
X192886597Y-186250471D01*
X192886597Y-186250471D02*
X192958026Y-186107614D01*
X192958026Y-186107614D02*
X192958026Y-185964757D01*
X192958026Y-185964757D02*
X192886597Y-185821900D01*
X192886597Y-185821900D02*
X192815169Y-185750471D01*
X192815169Y-185750471D02*
X192672311Y-185679042D01*
X192672311Y-185679042D02*
X192386597Y-185607614D01*
X192386597Y-185607614D02*
X192243740Y-185536185D01*
X192243740Y-185536185D02*
X192172311Y-185464757D01*
X192172311Y-185464757D02*
X192100883Y-185321900D01*
X192100883Y-185321900D02*
X192100883Y-185179042D01*
X192100883Y-185179042D02*
X192172311Y-185036185D01*
X192172311Y-185036185D02*
X192243740Y-184964757D01*
X192243740Y-184964757D02*
X192386597Y-184893328D01*
X192386597Y-184893328D02*
X192743740Y-184893328D01*
X192743740Y-184893328D02*
X192958026Y-184964757D01*
X194243740Y-186321900D02*
X194100882Y-186393328D01*
X194100882Y-186393328D02*
X193815168Y-186393328D01*
X193815168Y-186393328D02*
X193672311Y-186321900D01*
X193672311Y-186321900D02*
X193600882Y-186250471D01*
X193600882Y-186250471D02*
X193529454Y-186107614D01*
X193529454Y-186107614D02*
X193529454Y-185679042D01*
X193529454Y-185679042D02*
X193600882Y-185536185D01*
X193600882Y-185536185D02*
X193672311Y-185464757D01*
X193672311Y-185464757D02*
X193815168Y-185393328D01*
X193815168Y-185393328D02*
X194100882Y-185393328D01*
X194100882Y-185393328D02*
X194243740Y-185464757D01*
X194886596Y-186393328D02*
X194886596Y-184893328D01*
X195529454Y-186393328D02*
X195529454Y-185607614D01*
X195529454Y-185607614D02*
X195458025Y-185464757D01*
X195458025Y-185464757D02*
X195315168Y-185393328D01*
X195315168Y-185393328D02*
X195100882Y-185393328D01*
X195100882Y-185393328D02*
X194958025Y-185464757D01*
X194958025Y-185464757D02*
X194886596Y-185536185D01*
X196815168Y-186321900D02*
X196672311Y-186393328D01*
X196672311Y-186393328D02*
X196386597Y-186393328D01*
X196386597Y-186393328D02*
X196243739Y-186321900D01*
X196243739Y-186321900D02*
X196172311Y-186179042D01*
X196172311Y-186179042D02*
X196172311Y-185607614D01*
X196172311Y-185607614D02*
X196243739Y-185464757D01*
X196243739Y-185464757D02*
X196386597Y-185393328D01*
X196386597Y-185393328D02*
X196672311Y-185393328D01*
X196672311Y-185393328D02*
X196815168Y-185464757D01*
X196815168Y-185464757D02*
X196886597Y-185607614D01*
X196886597Y-185607614D02*
X196886597Y-185750471D01*
X196886597Y-185750471D02*
X196172311Y-185893328D01*
X198172311Y-186393328D02*
X198172311Y-184893328D01*
X198172311Y-186321900D02*
X198029453Y-186393328D01*
X198029453Y-186393328D02*
X197743739Y-186393328D01*
X197743739Y-186393328D02*
X197600882Y-186321900D01*
X197600882Y-186321900D02*
X197529453Y-186250471D01*
X197529453Y-186250471D02*
X197458025Y-186107614D01*
X197458025Y-186107614D02*
X197458025Y-185679042D01*
X197458025Y-185679042D02*
X197529453Y-185536185D01*
X197529453Y-185536185D02*
X197600882Y-185464757D01*
X197600882Y-185464757D02*
X197743739Y-185393328D01*
X197743739Y-185393328D02*
X198029453Y-185393328D01*
X198029453Y-185393328D02*
X198172311Y-185464757D01*
X199529454Y-185393328D02*
X199529454Y-186393328D01*
X198886596Y-185393328D02*
X198886596Y-186179042D01*
X198886596Y-186179042D02*
X198958025Y-186321900D01*
X198958025Y-186321900D02*
X199100882Y-186393328D01*
X199100882Y-186393328D02*
X199315168Y-186393328D01*
X199315168Y-186393328D02*
X199458025Y-186321900D01*
X199458025Y-186321900D02*
X199529454Y-186250471D01*
X200458025Y-186393328D02*
X200315168Y-186321900D01*
X200315168Y-186321900D02*
X200243739Y-186179042D01*
X200243739Y-186179042D02*
X200243739Y-184893328D01*
X201600882Y-186321900D02*
X201458025Y-186393328D01*
X201458025Y-186393328D02*
X201172311Y-186393328D01*
X201172311Y-186393328D02*
X201029453Y-186321900D01*
X201029453Y-186321900D02*
X200958025Y-186179042D01*
X200958025Y-186179042D02*
X200958025Y-185607614D01*
X200958025Y-185607614D02*
X201029453Y-185464757D01*
X201029453Y-185464757D02*
X201172311Y-185393328D01*
X201172311Y-185393328D02*
X201458025Y-185393328D01*
X201458025Y-185393328D02*
X201600882Y-185464757D01*
X201600882Y-185464757D02*
X201672311Y-185607614D01*
X201672311Y-185607614D02*
X201672311Y-185750471D01*
X201672311Y-185750471D02*
X200958025Y-185893328D01*
X202315167Y-186393328D02*
X202315167Y-185393328D01*
X202315167Y-185679042D02*
X202386596Y-185536185D01*
X202386596Y-185536185D02*
X202458025Y-185464757D01*
X202458025Y-185464757D02*
X202600882Y-185393328D01*
X202600882Y-185393328D02*
X202743739Y-185393328D01*
X202886596Y-186536185D02*
X204029453Y-186536185D01*
X204315167Y-185036185D02*
X204386595Y-184964757D01*
X204386595Y-184964757D02*
X204529453Y-184893328D01*
X204529453Y-184893328D02*
X204886595Y-184893328D01*
X204886595Y-184893328D02*
X205029453Y-184964757D01*
X205029453Y-184964757D02*
X205100881Y-185036185D01*
X205100881Y-185036185D02*
X205172310Y-185179042D01*
X205172310Y-185179042D02*
X205172310Y-185321900D01*
X205172310Y-185321900D02*
X205100881Y-185536185D01*
X205100881Y-185536185D02*
X204243738Y-186393328D01*
X204243738Y-186393328D02*
X205172310Y-186393328D01*
X206100881Y-184893328D02*
X206243738Y-184893328D01*
X206243738Y-184893328D02*
X206386595Y-184964757D01*
X206386595Y-184964757D02*
X206458024Y-185036185D01*
X206458024Y-185036185D02*
X206529452Y-185179042D01*
X206529452Y-185179042D02*
X206600881Y-185464757D01*
X206600881Y-185464757D02*
X206600881Y-185821900D01*
X206600881Y-185821900D02*
X206529452Y-186107614D01*
X206529452Y-186107614D02*
X206458024Y-186250471D01*
X206458024Y-186250471D02*
X206386595Y-186321900D01*
X206386595Y-186321900D02*
X206243738Y-186393328D01*
X206243738Y-186393328D02*
X206100881Y-186393328D01*
X206100881Y-186393328D02*
X205958024Y-186321900D01*
X205958024Y-186321900D02*
X205886595Y-186250471D01*
X205886595Y-186250471D02*
X205815166Y-186107614D01*
X205815166Y-186107614D02*
X205743738Y-185821900D01*
X205743738Y-185821900D02*
X205743738Y-185464757D01*
X205743738Y-185464757D02*
X205815166Y-185179042D01*
X205815166Y-185179042D02*
X205886595Y-185036185D01*
X205886595Y-185036185D02*
X205958024Y-184964757D01*
X205958024Y-184964757D02*
X206100881Y-184893328D01*
X207100880Y-186393328D02*
X207886595Y-185393328D01*
X207100880Y-185393328D02*
X207886595Y-186393328D01*
X209100881Y-185393328D02*
X209100881Y-186393328D01*
X208743738Y-184821900D02*
X208386595Y-185893328D01*
X208386595Y-185893328D02*
X209315166Y-185893328D01*
X209958023Y-186393328D02*
X210243737Y-186393328D01*
X210243737Y-186393328D02*
X210386594Y-186321900D01*
X210386594Y-186321900D02*
X210458023Y-186250471D01*
X210458023Y-186250471D02*
X210600880Y-186036185D01*
X210600880Y-186036185D02*
X210672309Y-185750471D01*
X210672309Y-185750471D02*
X210672309Y-185179042D01*
X210672309Y-185179042D02*
X210600880Y-185036185D01*
X210600880Y-185036185D02*
X210529452Y-184964757D01*
X210529452Y-184964757D02*
X210386594Y-184893328D01*
X210386594Y-184893328D02*
X210100880Y-184893328D01*
X210100880Y-184893328D02*
X209958023Y-184964757D01*
X209958023Y-184964757D02*
X209886594Y-185036185D01*
X209886594Y-185036185D02*
X209815166Y-185179042D01*
X209815166Y-185179042D02*
X209815166Y-185536185D01*
X209815166Y-185536185D02*
X209886594Y-185679042D01*
X209886594Y-185679042D02*
X209958023Y-185750471D01*
X209958023Y-185750471D02*
X210100880Y-185821900D01*
X210100880Y-185821900D02*
X210386594Y-185821900D01*
X210386594Y-185821900D02*
X210529452Y-185750471D01*
X210529452Y-185750471D02*
X210600880Y-185679042D01*
X210600880Y-185679042D02*
X210672309Y-185536185D01*
X211172308Y-186393328D02*
X211958023Y-185393328D01*
X211172308Y-185393328D02*
X211958023Y-186393328D01*
X213315166Y-186393328D02*
X212458023Y-186393328D01*
X212886594Y-186393328D02*
X212886594Y-184893328D01*
X212886594Y-184893328D02*
X212743737Y-185107614D01*
X212743737Y-185107614D02*
X212600880Y-185250471D01*
X212600880Y-185250471D02*
X212458023Y-185321900D01*
X214029451Y-186321900D02*
X214029451Y-186393328D01*
X214029451Y-186393328D02*
X213958022Y-186536185D01*
X213958022Y-186536185D02*
X213886594Y-186607614D01*
X215315166Y-184893328D02*
X215029451Y-184893328D01*
X215029451Y-184893328D02*
X214886594Y-184964757D01*
X214886594Y-184964757D02*
X214815166Y-185036185D01*
X214815166Y-185036185D02*
X214672308Y-185250471D01*
X214672308Y-185250471D02*
X214600880Y-185536185D01*
X214600880Y-185536185D02*
X214600880Y-186107614D01*
X214600880Y-186107614D02*
X214672308Y-186250471D01*
X214672308Y-186250471D02*
X214743737Y-186321900D01*
X214743737Y-186321900D02*
X214886594Y-186393328D01*
X214886594Y-186393328D02*
X215172308Y-186393328D01*
X215172308Y-186393328D02*
X215315166Y-186321900D01*
X215315166Y-186321900D02*
X215386594Y-186250471D01*
X215386594Y-186250471D02*
X215458023Y-186107614D01*
X215458023Y-186107614D02*
X215458023Y-185750471D01*
X215458023Y-185750471D02*
X215386594Y-185607614D01*
X215386594Y-185607614D02*
X215315166Y-185536185D01*
X215315166Y-185536185D02*
X215172308Y-185464757D01*
X215172308Y-185464757D02*
X214886594Y-185464757D01*
X214886594Y-185464757D02*
X214743737Y-185536185D01*
X214743737Y-185536185D02*
X214672308Y-185607614D01*
X214672308Y-185607614D02*
X214600880Y-185750471D01*
X215743737Y-186536185D02*
X216886594Y-186536185D01*
X217243736Y-186393328D02*
X217243736Y-185393328D01*
X217243736Y-185536185D02*
X217315165Y-185464757D01*
X217315165Y-185464757D02*
X217458022Y-185393328D01*
X217458022Y-185393328D02*
X217672308Y-185393328D01*
X217672308Y-185393328D02*
X217815165Y-185464757D01*
X217815165Y-185464757D02*
X217886594Y-185607614D01*
X217886594Y-185607614D02*
X217886594Y-186393328D01*
X217886594Y-185607614D02*
X217958022Y-185464757D01*
X217958022Y-185464757D02*
X218100879Y-185393328D01*
X218100879Y-185393328D02*
X218315165Y-185393328D01*
X218315165Y-185393328D02*
X218458022Y-185464757D01*
X218458022Y-185464757D02*
X218529451Y-185607614D01*
X218529451Y-185607614D02*
X218529451Y-186393328D01*
X219243736Y-186393328D02*
X219243736Y-185393328D01*
X219243736Y-185536185D02*
X219315165Y-185464757D01*
X219315165Y-185464757D02*
X219458022Y-185393328D01*
X219458022Y-185393328D02*
X219672308Y-185393328D01*
X219672308Y-185393328D02*
X219815165Y-185464757D01*
X219815165Y-185464757D02*
X219886594Y-185607614D01*
X219886594Y-185607614D02*
X219886594Y-186393328D01*
X219886594Y-185607614D02*
X219958022Y-185464757D01*
X219958022Y-185464757D02*
X220100879Y-185393328D01*
X220100879Y-185393328D02*
X220315165Y-185393328D01*
X220315165Y-185393328D02*
X220458022Y-185464757D01*
X220458022Y-185464757D02*
X220529451Y-185607614D01*
X220529451Y-185607614D02*
X220529451Y-186393328D01*
X221243736Y-186250471D02*
X221315165Y-186321900D01*
X221315165Y-186321900D02*
X221243736Y-186393328D01*
X221243736Y-186393328D02*
X221172308Y-186321900D01*
X221172308Y-186321900D02*
X221243736Y-186250471D01*
X221243736Y-186250471D02*
X221243736Y-186393328D01*
X221958022Y-186393328D02*
X221958022Y-184893328D01*
X222100880Y-185821900D02*
X222529451Y-186393328D01*
X222529451Y-185393328D02*
X221958022Y-185964757D01*
X223172308Y-186393328D02*
X223172308Y-185393328D01*
X223172308Y-184893328D02*
X223100880Y-184964757D01*
X223100880Y-184964757D02*
X223172308Y-185036185D01*
X223172308Y-185036185D02*
X223243737Y-184964757D01*
X223243737Y-184964757D02*
X223172308Y-184893328D01*
X223172308Y-184893328D02*
X223172308Y-185036185D01*
X224529452Y-186321900D02*
X224386594Y-186393328D01*
X224386594Y-186393328D02*
X224100880Y-186393328D01*
X224100880Y-186393328D02*
X223958023Y-186321900D01*
X223958023Y-186321900D02*
X223886594Y-186250471D01*
X223886594Y-186250471D02*
X223815166Y-186107614D01*
X223815166Y-186107614D02*
X223815166Y-185679042D01*
X223815166Y-185679042D02*
X223886594Y-185536185D01*
X223886594Y-185536185D02*
X223958023Y-185464757D01*
X223958023Y-185464757D02*
X224100880Y-185393328D01*
X224100880Y-185393328D02*
X224386594Y-185393328D01*
X224386594Y-185393328D02*
X224529452Y-185464757D01*
X225815166Y-186393328D02*
X225815166Y-185607614D01*
X225815166Y-185607614D02*
X225743737Y-185464757D01*
X225743737Y-185464757D02*
X225600880Y-185393328D01*
X225600880Y-185393328D02*
X225315166Y-185393328D01*
X225315166Y-185393328D02*
X225172308Y-185464757D01*
X225815166Y-186321900D02*
X225672308Y-186393328D01*
X225672308Y-186393328D02*
X225315166Y-186393328D01*
X225315166Y-186393328D02*
X225172308Y-186321900D01*
X225172308Y-186321900D02*
X225100880Y-186179042D01*
X225100880Y-186179042D02*
X225100880Y-186036185D01*
X225100880Y-186036185D02*
X225172308Y-185893328D01*
X225172308Y-185893328D02*
X225315166Y-185821900D01*
X225315166Y-185821900D02*
X225672308Y-185821900D01*
X225672308Y-185821900D02*
X225815166Y-185750471D01*
X227172309Y-186393328D02*
X227172309Y-184893328D01*
X227172309Y-186321900D02*
X227029451Y-186393328D01*
X227029451Y-186393328D02*
X226743737Y-186393328D01*
X226743737Y-186393328D02*
X226600880Y-186321900D01*
X226600880Y-186321900D02*
X226529451Y-186250471D01*
X226529451Y-186250471D02*
X226458023Y-186107614D01*
X226458023Y-186107614D02*
X226458023Y-185679042D01*
X226458023Y-185679042D02*
X226529451Y-185536185D01*
X226529451Y-185536185D02*
X226600880Y-185464757D01*
X226600880Y-185464757D02*
X226743737Y-185393328D01*
X226743737Y-185393328D02*
X227029451Y-185393328D01*
X227029451Y-185393328D02*
X227172309Y-185464757D01*
X227529452Y-186536185D02*
X228672309Y-186536185D01*
X229029451Y-185393328D02*
X229029451Y-186893328D01*
X229029451Y-185464757D02*
X229172309Y-185393328D01*
X229172309Y-185393328D02*
X229458023Y-185393328D01*
X229458023Y-185393328D02*
X229600880Y-185464757D01*
X229600880Y-185464757D02*
X229672309Y-185536185D01*
X229672309Y-185536185D02*
X229743737Y-185679042D01*
X229743737Y-185679042D02*
X229743737Y-186107614D01*
X229743737Y-186107614D02*
X229672309Y-186250471D01*
X229672309Y-186250471D02*
X229600880Y-186321900D01*
X229600880Y-186321900D02*
X229458023Y-186393328D01*
X229458023Y-186393328D02*
X229172309Y-186393328D01*
X229172309Y-186393328D02*
X229029451Y-186321900D01*
X231029452Y-186321900D02*
X230886594Y-186393328D01*
X230886594Y-186393328D02*
X230600880Y-186393328D01*
X230600880Y-186393328D02*
X230458023Y-186321900D01*
X230458023Y-186321900D02*
X230386594Y-186250471D01*
X230386594Y-186250471D02*
X230315166Y-186107614D01*
X230315166Y-186107614D02*
X230315166Y-185679042D01*
X230315166Y-185679042D02*
X230386594Y-185536185D01*
X230386594Y-185536185D02*
X230458023Y-185464757D01*
X230458023Y-185464757D02*
X230600880Y-185393328D01*
X230600880Y-185393328D02*
X230886594Y-185393328D01*
X230886594Y-185393328D02*
X231029452Y-185464757D01*
X231672308Y-186393328D02*
X231672308Y-184893328D01*
X231672308Y-185464757D02*
X231815166Y-185393328D01*
X231815166Y-185393328D02*
X232100880Y-185393328D01*
X232100880Y-185393328D02*
X232243737Y-185464757D01*
X232243737Y-185464757D02*
X232315166Y-185536185D01*
X232315166Y-185536185D02*
X232386594Y-185679042D01*
X232386594Y-185679042D02*
X232386594Y-186107614D01*
X232386594Y-186107614D02*
X232315166Y-186250471D01*
X232315166Y-186250471D02*
X232243737Y-186321900D01*
X232243737Y-186321900D02*
X232100880Y-186393328D01*
X232100880Y-186393328D02*
X231815166Y-186393328D01*
X231815166Y-186393328D02*
X231672308Y-186321900D01*
D10*
D11*
X177002200Y-181507200D02*
X285002200Y-181507200D01*
D10*
D11*
X178386598Y-183621900D02*
X178600884Y-183693328D01*
X178600884Y-183693328D02*
X178958026Y-183693328D01*
X178958026Y-183693328D02*
X179100884Y-183621900D01*
X179100884Y-183621900D02*
X179172312Y-183550471D01*
X179172312Y-183550471D02*
X179243741Y-183407614D01*
X179243741Y-183407614D02*
X179243741Y-183264757D01*
X179243741Y-183264757D02*
X179172312Y-183121900D01*
X179172312Y-183121900D02*
X179100884Y-183050471D01*
X179100884Y-183050471D02*
X178958026Y-182979042D01*
X178958026Y-182979042D02*
X178672312Y-182907614D01*
X178672312Y-182907614D02*
X178529455Y-182836185D01*
X178529455Y-182836185D02*
X178458026Y-182764757D01*
X178458026Y-182764757D02*
X178386598Y-182621900D01*
X178386598Y-182621900D02*
X178386598Y-182479042D01*
X178386598Y-182479042D02*
X178458026Y-182336185D01*
X178458026Y-182336185D02*
X178529455Y-182264757D01*
X178529455Y-182264757D02*
X178672312Y-182193328D01*
X178672312Y-182193328D02*
X179029455Y-182193328D01*
X179029455Y-182193328D02*
X179243741Y-182264757D01*
X179886597Y-183693328D02*
X179886597Y-182193328D01*
X180529455Y-183693328D02*
X180529455Y-182907614D01*
X180529455Y-182907614D02*
X180458026Y-182764757D01*
X180458026Y-182764757D02*
X180315169Y-182693328D01*
X180315169Y-182693328D02*
X180100883Y-182693328D01*
X180100883Y-182693328D02*
X179958026Y-182764757D01*
X179958026Y-182764757D02*
X179886597Y-182836185D01*
X181815169Y-183621900D02*
X181672312Y-183693328D01*
X181672312Y-183693328D02*
X181386598Y-183693328D01*
X181386598Y-183693328D02*
X181243740Y-183621900D01*
X181243740Y-183621900D02*
X181172312Y-183479042D01*
X181172312Y-183479042D02*
X181172312Y-182907614D01*
X181172312Y-182907614D02*
X181243740Y-182764757D01*
X181243740Y-182764757D02*
X181386598Y-182693328D01*
X181386598Y-182693328D02*
X181672312Y-182693328D01*
X181672312Y-182693328D02*
X181815169Y-182764757D01*
X181815169Y-182764757D02*
X181886598Y-182907614D01*
X181886598Y-182907614D02*
X181886598Y-183050471D01*
X181886598Y-183050471D02*
X181172312Y-183193328D01*
X183100883Y-183621900D02*
X182958026Y-183693328D01*
X182958026Y-183693328D02*
X182672312Y-183693328D01*
X182672312Y-183693328D02*
X182529454Y-183621900D01*
X182529454Y-183621900D02*
X182458026Y-183479042D01*
X182458026Y-183479042D02*
X182458026Y-182907614D01*
X182458026Y-182907614D02*
X182529454Y-182764757D01*
X182529454Y-182764757D02*
X182672312Y-182693328D01*
X182672312Y-182693328D02*
X182958026Y-182693328D01*
X182958026Y-182693328D02*
X183100883Y-182764757D01*
X183100883Y-182764757D02*
X183172312Y-182907614D01*
X183172312Y-182907614D02*
X183172312Y-183050471D01*
X183172312Y-183050471D02*
X182458026Y-183193328D01*
X183600883Y-182693328D02*
X184172311Y-182693328D01*
X183815168Y-182193328D02*
X183815168Y-183479042D01*
X183815168Y-183479042D02*
X183886597Y-183621900D01*
X183886597Y-183621900D02*
X184029454Y-183693328D01*
X184029454Y-183693328D02*
X184172311Y-183693328D01*
X184672311Y-183550471D02*
X184743740Y-183621900D01*
X184743740Y-183621900D02*
X184672311Y-183693328D01*
X184672311Y-183693328D02*
X184600883Y-183621900D01*
X184600883Y-183621900D02*
X184672311Y-183550471D01*
X184672311Y-183550471D02*
X184672311Y-183693328D01*
X184672311Y-182764757D02*
X184743740Y-182836185D01*
X184743740Y-182836185D02*
X184672311Y-182907614D01*
X184672311Y-182907614D02*
X184600883Y-182836185D01*
X184600883Y-182836185D02*
X184672311Y-182764757D01*
X184672311Y-182764757D02*
X184672311Y-182907614D01*
D10*
D12*
X178485282Y-180256957D02*
X179199568Y-180256957D01*
X178342425Y-180685528D02*
X178842425Y-179185528D01*
X178842425Y-179185528D02*
X179342425Y-180685528D01*
X180413853Y-180614100D02*
X180270996Y-180685528D01*
X180270996Y-180685528D02*
X179985282Y-180685528D01*
X179985282Y-180685528D02*
X179842424Y-180614100D01*
X179842424Y-180614100D02*
X179770996Y-180471242D01*
X179770996Y-180471242D02*
X179770996Y-179899814D01*
X179770996Y-179899814D02*
X179842424Y-179756957D01*
X179842424Y-179756957D02*
X179985282Y-179685528D01*
X179985282Y-179685528D02*
X180270996Y-179685528D01*
X180270996Y-179685528D02*
X180413853Y-179756957D01*
X180413853Y-179756957D02*
X180485282Y-179899814D01*
X180485282Y-179899814D02*
X180485282Y-180042671D01*
X180485282Y-180042671D02*
X179770996Y-180185528D01*
X181342424Y-180685528D02*
X181199567Y-180614100D01*
X181199567Y-180614100D02*
X181128138Y-180542671D01*
X181128138Y-180542671D02*
X181056710Y-180399814D01*
X181056710Y-180399814D02*
X181056710Y-179971242D01*
X181056710Y-179971242D02*
X181128138Y-179828385D01*
X181128138Y-179828385D02*
X181199567Y-179756957D01*
X181199567Y-179756957D02*
X181342424Y-179685528D01*
X181342424Y-179685528D02*
X181556710Y-179685528D01*
X181556710Y-179685528D02*
X181699567Y-179756957D01*
X181699567Y-179756957D02*
X181770996Y-179828385D01*
X181770996Y-179828385D02*
X181842424Y-179971242D01*
X181842424Y-179971242D02*
X181842424Y-180399814D01*
X181842424Y-180399814D02*
X181770996Y-180542671D01*
X181770996Y-180542671D02*
X181699567Y-180614100D01*
X181699567Y-180614100D02*
X181556710Y-180685528D01*
X181556710Y-180685528D02*
X181342424Y-180685528D01*
X182485281Y-179685528D02*
X182485281Y-180685528D01*
X182485281Y-179828385D02*
X182556710Y-179756957D01*
X182556710Y-179756957D02*
X182699567Y-179685528D01*
X182699567Y-179685528D02*
X182913853Y-179685528D01*
X182913853Y-179685528D02*
X183056710Y-179756957D01*
X183056710Y-179756957D02*
X183128139Y-179899814D01*
X183128139Y-179899814D02*
X183128139Y-180685528D01*
X184556710Y-180685528D02*
X183842424Y-180685528D01*
X183842424Y-180685528D02*
X183842424Y-179185528D01*
X185699568Y-180685528D02*
X185699568Y-179899814D01*
X185699568Y-179899814D02*
X185628139Y-179756957D01*
X185628139Y-179756957D02*
X185485282Y-179685528D01*
X185485282Y-179685528D02*
X185199568Y-179685528D01*
X185199568Y-179685528D02*
X185056710Y-179756957D01*
X185699568Y-180614100D02*
X185556710Y-180685528D01*
X185556710Y-180685528D02*
X185199568Y-180685528D01*
X185199568Y-180685528D02*
X185056710Y-180614100D01*
X185056710Y-180614100D02*
X184985282Y-180471242D01*
X184985282Y-180471242D02*
X184985282Y-180328385D01*
X184985282Y-180328385D02*
X185056710Y-180185528D01*
X185056710Y-180185528D02*
X185199568Y-180114100D01*
X185199568Y-180114100D02*
X185556710Y-180114100D01*
X185556710Y-180114100D02*
X185699568Y-180042671D01*
X186413853Y-180685528D02*
X186413853Y-179185528D01*
X186413853Y-179756957D02*
X186556711Y-179685528D01*
X186556711Y-179685528D02*
X186842425Y-179685528D01*
X186842425Y-179685528D02*
X186985282Y-179756957D01*
X186985282Y-179756957D02*
X187056711Y-179828385D01*
X187056711Y-179828385D02*
X187128139Y-179971242D01*
X187128139Y-179971242D02*
X187128139Y-180399814D01*
X187128139Y-180399814D02*
X187056711Y-180542671D01*
X187056711Y-180542671D02*
X186985282Y-180614100D01*
X186985282Y-180614100D02*
X186842425Y-180685528D01*
X186842425Y-180685528D02*
X186556711Y-180685528D01*
X186556711Y-180685528D02*
X186413853Y-180614100D01*
X187699568Y-180614100D02*
X187842425Y-180685528D01*
X187842425Y-180685528D02*
X188128139Y-180685528D01*
X188128139Y-180685528D02*
X188270996Y-180614100D01*
X188270996Y-180614100D02*
X188342425Y-180471242D01*
X188342425Y-180471242D02*
X188342425Y-180399814D01*
X188342425Y-180399814D02*
X188270996Y-180256957D01*
X188270996Y-180256957D02*
X188128139Y-180185528D01*
X188128139Y-180185528D02*
X187913854Y-180185528D01*
X187913854Y-180185528D02*
X187770996Y-180114100D01*
X187770996Y-180114100D02*
X187699568Y-179971242D01*
X187699568Y-179971242D02*
X187699568Y-179899814D01*
X187699568Y-179899814D02*
X187770996Y-179756957D01*
X187770996Y-179756957D02*
X187913854Y-179685528D01*
X187913854Y-179685528D02*
X188128139Y-179685528D01*
X188128139Y-179685528D02*
X188270996Y-179756957D01*
D10*
D11*
D10*
D11*
D10*
D11*
D10*
D11*
D10*
D11*
X197002200Y-191507200D02*
X197002200Y-194507200D01*
D10*
D11*
X261002200Y-191507200D02*
X261002200Y-198007200D01*
D14*
G04 #@! TO.C,EC1*
X125360000Y-124050000D03*
X125360000Y-125600000D03*
G04 #@! TD*
D15*
G04 #@! TO.C,AU1*
X139060000Y-117130000D03*
X139060000Y-118080000D03*
X139060000Y-119030000D03*
X141930000Y-119030000D03*
X141930000Y-118080000D03*
X141930000Y-117130000D03*
D16*
X140495000Y-118080000D03*
G04 #@! TD*
D17*
G04 #@! TO.C,F1*
X138552500Y-110990000D03*
X141527500Y-110990000D03*
G04 #@! TD*
D18*
G04 #@! TO.C,U1*
X141980000Y-127985000D03*
X142480000Y-127985000D03*
X142980000Y-127985000D03*
X143480000Y-127985000D03*
X143480000Y-125085000D03*
X142980000Y-125085000D03*
X142480000Y-125085000D03*
X141980000Y-125085000D03*
D19*
X142730000Y-126535000D03*
G04 #@! TD*
D20*
G04 #@! TO.C,P1*
X104180000Y-112870000D03*
X104180000Y-126010000D03*
D21*
X106890000Y-115940000D03*
D22*
X106890000Y-118440000D03*
X106890000Y-120440000D03*
X106890000Y-122940000D03*
G04 #@! TD*
D23*
G04 #@! TO.C,J1*
X147770000Y-121710000D03*
X147770000Y-117210000D03*
D24*
X145670000Y-115960000D03*
D25*
X145670000Y-118460000D03*
X145670000Y-120460000D03*
X145670000Y-122960000D03*
D26*
X147770000Y-113760000D03*
X147770000Y-125160000D03*
G04 #@! TD*
D14*
G04 #@! TO.C,EC20*
X120960000Y-124835000D03*
X120960000Y-126385000D03*
G04 #@! TD*
D27*
G04 #@! TO.C,EC18*
X137770000Y-128500000D03*
X137770000Y-126600000D03*
G04 #@! TD*
D28*
G04 #@! TO.C,AUC1*
X138995000Y-124310000D03*
X140545000Y-124310000D03*
G04 #@! TD*
D29*
G04 #@! TO.C,ECY3*
X121575707Y-114545707D03*
X123775707Y-114545707D03*
X123775707Y-116345707D03*
X121575707Y-116345707D03*
G04 #@! TD*
D30*
G04 #@! TO.C,EC60*
X122925000Y-112610000D03*
X121375000Y-112610000D03*
G04 #@! TD*
G04 #@! TO.C,EC61*
X122610707Y-118275707D03*
X121060707Y-118275707D03*
G04 #@! TD*
D31*
G04 #@! TO.C,ESP32S3*
X125436601Y-120987909D03*
X125719444Y-121270752D03*
X126002286Y-121553594D03*
X126285129Y-121836437D03*
X126567972Y-122119280D03*
D32*
X126850814Y-122402122D03*
X127133657Y-122684965D03*
D31*
X127416500Y-122967808D03*
X127699343Y-123250651D03*
X127982185Y-123533493D03*
X128265028Y-123816336D03*
X128547871Y-124099179D03*
X128830713Y-124382021D03*
X129113556Y-124664864D03*
D33*
X130297960Y-124664864D03*
X130580803Y-124382021D03*
D32*
X130863645Y-124099179D03*
D33*
X131146488Y-123816336D03*
X131429331Y-123533493D03*
X131712173Y-123250651D03*
X131995016Y-122967808D03*
X132277859Y-122684965D03*
D32*
X132560702Y-122402122D03*
X132843544Y-122119280D03*
D33*
X133126387Y-121836437D03*
X133409230Y-121553594D03*
X133692072Y-121270752D03*
X133974915Y-120987909D03*
D31*
X133974915Y-119803505D03*
X133692072Y-119520662D03*
X133409230Y-119237820D03*
X133126387Y-118954977D03*
X132843544Y-118672134D03*
X132560702Y-118389292D03*
X132277859Y-118106449D03*
X131995016Y-117823606D03*
X131712173Y-117540763D03*
X131429331Y-117257921D03*
X131146488Y-116975078D03*
X130863645Y-116692235D03*
X130580803Y-116409393D03*
X130297960Y-116126550D03*
D33*
X129113556Y-116126550D03*
X128830713Y-116409393D03*
D32*
X128547871Y-116692235D03*
D33*
X128265028Y-116975078D03*
X127982185Y-117257921D03*
X127699343Y-117540763D03*
X127416500Y-117823606D03*
X127133657Y-118106449D03*
X126850814Y-118389292D03*
X126567972Y-118672134D03*
X126285129Y-118954977D03*
X126002286Y-119237820D03*
X125719444Y-119520662D03*
X125436601Y-119803505D03*
D34*
X129705758Y-120395707D03*
G04 #@! TD*
D35*
G04 #@! TO.C,ER1*
X131600000Y-128545000D03*
X131600000Y-126895000D03*
G04 #@! TD*
D36*
G04 #@! TO.C,MTRR1*
X118200000Y-117802500D03*
X118200000Y-115977500D03*
G04 #@! TD*
D37*
G04 #@! TO.C,AR1*
X136410000Y-115130000D03*
X138410000Y-115130000D03*
G04 #@! TD*
D38*
G04 #@! TO.C,TP3*
X146130000Y-128040000D03*
G04 #@! TD*
D39*
G04 #@! TO.C,ER3*
X118470000Y-112795000D03*
X118470000Y-114445000D03*
G04 #@! TD*
D28*
G04 #@! TO.C,EC38*
X117535000Y-124400000D03*
X119085000Y-124400000D03*
G04 #@! TD*
G04 #@! TO.C,EC26*
X134905000Y-125050000D03*
X136455000Y-125050000D03*
G04 #@! TD*
D40*
G04 #@! TO.C,EC17*
X134800000Y-128105000D03*
X134800000Y-126555000D03*
G04 #@! TD*
D41*
G04 #@! TO.C,AC2*
X143540000Y-112822500D03*
X143540000Y-114897500D03*
G04 #@! TD*
D42*
G04 #@! TO.C,ANT1*
X113790000Y-128700000D03*
X113790000Y-119200000D03*
G04 #@! TD*
D28*
G04 #@! TO.C,EC16*
X127650707Y-113775707D03*
X129200707Y-113775707D03*
G04 #@! TD*
D40*
G04 #@! TO.C,EC51*
X134975707Y-112410707D03*
X134975707Y-110860707D03*
G04 #@! TD*
D38*
G04 #@! TO.C,TP1*
X143660000Y-110810000D03*
G04 #@! TD*
D28*
G04 #@! TO.C,EC15*
X121185859Y-121895707D03*
X122735859Y-121895707D03*
G04 #@! TD*
D43*
G04 #@! TO.C,L2*
X123340000Y-126542500D03*
X123340000Y-124417500D03*
G04 #@! TD*
D30*
G04 #@! TO.C,EC19*
X123475000Y-128060000D03*
X121925000Y-128060000D03*
G04 #@! TD*
D44*
G04 #@! TO.C,EC14*
X121135707Y-120145707D03*
X123035707Y-120145707D03*
G04 #@! TD*
D45*
G04 #@! TO.C,AL1*
X137940000Y-121720000D03*
X140740000Y-121720000D03*
G04 #@! TD*
D46*
G04 #@! TO.C,AR2*
X140530000Y-115240000D03*
X140530000Y-113240000D03*
G04 #@! TD*
D30*
G04 #@! TO.C,EC50*
X129630707Y-111565707D03*
X128080707Y-111565707D03*
G04 #@! TD*
D40*
G04 #@! TO.C,EC37*
X119370000Y-128205000D03*
X119370000Y-126655000D03*
G04 #@! TD*
D43*
G04 #@! TO.C,EL4*
X117460000Y-128192500D03*
X117460000Y-126067500D03*
G04 #@! TD*
D47*
G04 #@! TO.C,AC1*
X136550000Y-119157500D03*
X136550000Y-117082500D03*
G04 #@! TD*
D38*
G04 #@! TO.C,TP2*
X147070000Y-110980000D03*
G04 #@! TD*
D39*
G04 #@! TO.C,ER2*
X126070000Y-112700000D03*
X126070000Y-114350000D03*
G04 #@! TD*
D48*
G04 #@! TO.C,ECY2*
X133035707Y-113055707D03*
X133035707Y-110855707D03*
X131235707Y-110855707D03*
X131235707Y-113055707D03*
G04 #@! TD*
D49*
G04 #@! TO.C,MTRT1*
X109575000Y-116280000D03*
X111450000Y-115330000D03*
X111450000Y-117230000D03*
G04 #@! TD*
D50*
G04 #@! TO.C,ICSP1*
X110200000Y-113200000D03*
X111470000Y-113200000D03*
X112740000Y-113200000D03*
X114010000Y-113200000D03*
X115280000Y-113200000D03*
D51*
X110835000Y-112045000D03*
X112105000Y-112045000D03*
X113375000Y-112045000D03*
X114645000Y-112045000D03*
G04 #@! TD*
D52*
G04 #@! TO.C,G\u002A\u002A\u002A*
X150899932Y-127602602D02*
X150899932Y-111182876D01*
X128680069Y-129472739D02*
X149089932Y-129412602D01*
X128350069Y-109362739D02*
X149089932Y-109372876D01*
X125059103Y-129402678D02*
X109200069Y-129392739D01*
X124740454Y-109352262D02*
X109210069Y-109352739D01*
X109210069Y-113192739D02*
X109210069Y-109352739D01*
X109200069Y-129392739D02*
X109200069Y-125552739D01*
X109200069Y-125552739D02*
X108570069Y-125552739D01*
X108580069Y-113192739D02*
X109210069Y-113192739D01*
X108580069Y-109352739D02*
X108580069Y-113192739D01*
X108580069Y-109352739D02*
X103700206Y-109352876D01*
X108570069Y-129392739D02*
X103700069Y-129392739D01*
X108570069Y-125552739D02*
X108570069Y-129392739D01*
X101890069Y-127582739D02*
X101890206Y-111162876D01*
X149089932Y-109372876D02*
G75*
G03*
X150899932Y-111182876I1810001J1D01*
G01*
X150899932Y-127602602D02*
G75*
G03*
X149089932Y-129412602I1J-1810001D01*
G01*
X124740454Y-109352262D02*
G75*
G03*
X128350069Y-109362739I1804649J-59822D01*
G01*
X128680068Y-129472739D02*
G75*
G03*
X125059104Y-129402678I-1809999J60000D01*
G01*
X101890206Y-111162876D02*
G75*
G03*
X103700206Y-109352876I-3J1810003D01*
G01*
X103700067Y-129392739D02*
G75*
G03*
X101890069Y-127582739I-1810084J-84D01*
G01*
G04 #@! TD*
M02*
