M48
; DRILL file {KiCad 7.0.7} date Wed Sep  6 15:28:25 2023
; FORMAT={-:-/ absolute / inch / decimal}
; #@! TF.CreationDate,2023-09-06T15:28:25+02:00
; #@! TF.GenerationSoftware,Kicad,Pcbnew,7.0.7
; #@! TF.FileFunction,Plated,1,2,PTH
FMAT,2
INCH
; #@! TA.AperFunction,Plated,PTH,ViaDrill
T1C0.0118
; #@! TA.AperFunction,Plated,PTH,ViaDrill
T2C0.0157
; #@! TA.AperFunction,Plated,PTH,ComponentDrill
T3C0.0362
; #@! TA.AperFunction,Plated,PTH,ComponentDrill
T4C0.0394
; #@! TA.AperFunction,Plated,PTH,ComponentDrill
T5C0.0413
%
G90
G05
T1
X4.3575Y-4.6646
X4.4685Y-4.6067
X4.5362Y-4.5654
X4.5736Y-4.5665
X4.5819Y-4.4331
X4.6134Y-4.4055
X4.7108Y-4.5343
X4.7126Y-4.5724
X4.7339Y-4.8012
X4.7768Y-4.4846
X4.8323Y-4.3287
X4.8831Y-4.3315
X4.9043Y-4.9815
X5.1264Y-4.4736
X5.3693Y-4.4378
X5.3976Y-4.3732
X5.4083Y-4.726
X5.411Y-4.4846
X5.4378Y-4.6417
X5.5528Y-5.0638
X5.5791Y-4.874
X5.6228Y-4.8744
X5.6634Y-4.876
X5.7606Y-4.3374
T2
X4.7614Y-5.0165
X4.9144Y-4.6258
X4.9187Y-4.7325
X4.9288Y-4.5878
X4.9402Y-4.8368
X4.975Y-4.8518
X5.0069Y-4.9175
X5.039Y-4.9441
X5.0841Y-4.9514
X5.0986Y-4.7034
X5.1538Y-4.7601
X5.2324Y-4.5473
X5.2433Y-5.0111
X5.2697Y-4.9236
X5.3669Y-5.0118
T3
X4.2083Y-4.5646
X4.2083Y-4.663
X4.2083Y-4.7417
X4.2083Y-4.8402
T4
X5.735Y-4.5654
X5.735Y-4.6638
X5.735Y-4.7425
X5.735Y-4.8409
T5
G00X5.7872Y-4.4787
M15
G01X5.8482Y-4.4787
M16
G05
G00X5.7872Y-4.9276
M15
G01X5.8482Y-4.9276
M16
G05
T0
M30
